<?xml version="1.0" standalone="no"?><!DOCTYPE svg PUBLIC "-//W3C//DTD SVG 1.1//EN" "http://www.w3.org/Graphics/SVG/1.1/DTD/svg11.dtd"><svg class="icon" width="200px" height="200.00px" viewBox="0 0 1024 1024" version="1.1" xmlns="http://www.w3.org/2000/svg"><path d="M767.061333 513.28a132.266667 132.266667 0 0 1-43.306666-88.234667 21.333333 21.333333 0 0 1 18.389333-23.210666l45.013333-6.016a21.333333 21.333333 0 0 1 23.722667 17.066666 79.701333 79.701333 0 0 0 19.797333 43.562667 44.074667 44.074667 0 0 0 31.018667 11.349333 51.712 51.712 0 0 0 38.4-15.744 53.290667 53.290667 0 0 0 15.658667-39.424 48 48 0 0 0-13.994667-35.968 49.024 49.024 0 0 0-36.437333-13.952 110.336 110.336 0 0 0-26.325334 4.266667 21.333333 21.333333 0 0 1-26.453333-23.296l4.992-39.509333a21.333333 21.333333 0 0 1 23.552-18.517334 40.789333 40.789333 0 0 0 4.864 0.341334 71.125333 71.125333 0 0 0 40.106667-11.52 29.866667 29.866667 0 0 0 13.312-28.373334 33.578667 33.578667 0 0 0-10.24-25.6 38.4 38.4 0 0 0-28.416-10.197333 39.808 39.808 0 0 0-29.098667 10.666667 63.232 63.232 0 0 0-16.042667 37.162666 21.333333 21.333333 0 0 1-24.789333 17.834667l-45.013333-8.021333a21.333333 21.333333 0 0 1-13.781334-8.789334 21.333333 21.333333 0 0 1-3.498666-16 136.96 136.96 0 0 1 44.672-82.944 129.450667 129.450667 0 0 1 86.528-29.866666 141.312 141.312 0 0 1 64.938666 15.189333 114.389333 114.389333 0 0 1 47.232 43.136 111.658667 111.658667 0 0 1 16.426667 58.24 98.816 98.816 0 0 1-16.256 54.912 97.322667 97.322667 0 0 1-12.074667 14.933333 100.437333 100.437333 0 0 1 23.936 22.570667 116.138667 116.138667 0 0 1 22.357334 72.064 129.237333 129.237333 0 0 1-41.6 96.810667 144.256 144.256 0 0 1-103.210667 39.296 136.277333 136.277333 0 0 1-94.378667-34.218667z m-398.165333 27.733333a21.333333 21.333333 0 0 1-21.333333-20.650666 101.162667 101.162667 0 0 1 6.656-39.552 187.52 187.52 0 0 1 33.28-54.912 484.736 484.736 0 0 1 61.610666-58.197334 483.285333 483.285333 0 0 0 77.013334-73.728 73.002667 73.002667 0 0 0 17.066666-41.514666 38.656 38.656 0 0 0-12.8-29.866667 48 48 0 0 0-35.114666-12.458667 49.493333 49.493333 0 0 0-36.906667 13.269334 53.290667 53.290667 0 0 0-13.525333 39.082666 21.333333 21.333333 0 0 1-23.509334 21.034667l-46.122666-4.608a21.333333 21.333333 0 0 1-19.072-23.210667 134.954667 134.954667 0 0 1 42.922666-92.928 143.061333 143.061333 0 0 1 97.322667-32.426666 137.216 137.216 0 0 1 98.133333 35.157333 116.949333 116.949333 0 0 1 37.589334 87.936 132.266667 132.266667 0 0 1-10.666667 51.584 190.08 190.08 0 0 1-33.578667 50.602667A744.149333 744.149333 0 0 1 516.266667 422.229333c-18.176 15.232-30.165333 25.6-38.101334 32.853334h133.077334a21.333333 21.333333 0 0 1 21.333333 21.333333v43.264a21.333333 21.333333 0 0 1-21.333333 21.333333z m-239.829333 0a21.333333 21.333333 0 0 1-21.333334-21.333333V275.925333c-3.370667 2.133333-6.869333 4.266667-10.496 6.4a324.266667 324.266667 0 0 1-50.816 24.832 21.333333 21.333333 0 0 1-28.714666-19.968v-43.52a21.333333 21.333333 0 0 1 12.245333-19.456 251.136 251.136 0 0 0 60.885333-39.637333 148.394667 148.394667 0 0 0 35.114667-42.666667 21.333333 21.333333 0 0 1 19.072-11.562666h29.013333a21.333333 21.333333 0 0 1 21.333334 21.333333v368a21.333333 21.333333 0 0 1-21.333334 21.333333z" fill="#516280" /><path d="M511.002906 664.777466m30.169889 30.16989l0 0q30.169889 30.169889 0 60.339778l-150.849447 150.849447q-30.169889 30.169889-60.339778 0l0 0q-30.169889-30.169889 0-60.339779l150.849446-150.849446q30.169889-30.169889 60.339779 0Z" fill="#007BFC" /><path d="M452.662901 725.099552m30.16989-30.16989l0 0q30.169889-30.169889 60.339778 0l150.849447 150.849447q30.169889 30.169889 0 60.339779l0 0q-30.169889 30.169889-60.339779 0l-150.849446-150.849447q-30.169889-30.169889 0-60.339779Z" fill="#007BFC" /></svg>