<?xml version="1.0" standalone="no"?><!DOCTYPE svg PUBLIC "-//W3C//DTD SVG 1.1//EN" "http://www.w3.org/Graphics/SVG/1.1/DTD/svg11.dtd"><svg t="1655868436426" class="icon" viewBox="0 0 1024 1024" version="1.1" xmlns="http://www.w3.org/2000/svg" p-id="4698" xmlns:xlink="http://www.w3.org/1999/xlink" width="200" height="200"><defs><style type="text/css">@font-face { font-family: feedback-iconfont; src: url("") format("woff2"), url("") format("woff"), url("") format("truetype"); }
</style></defs><path d="M512.05 624.33c80.32 0 154.96 10.04 223.92 30.12 68.97 20.08 123.53 47.14 163.69 81.19s60.24 71.15 60.24 111.31v112.62H64.21V846.94c0-40.16 20.08-77.26 60.24-111.31 40.16-34.05 94.72-61.11 163.69-81.19 68.96-20.07 143.6-30.11 223.91-30.11z m0-560.46c61.11 0 113.49 21.83 157.14 65.47s65.47 96.47 65.47 158.45c0 61.98-21.83 114.8-65.47 158.45-43.65 43.65-96.03 65.47-157.14 65.47-61.11 0-113.49-21.82-157.14-65.47-43.65-43.65-65.47-96.47-65.47-158.45 0-61.98 21.83-114.8 65.47-158.45s96.04-65.47 157.14-65.47z" p-id="4699" ></path></svg>
