<?xml version="1.0" standalone="no"?><!DOCTYPE svg PUBLIC "-//W3C//DTD SVG 1.1//EN" "http://www.w3.org/Graphics/SVG/1.1/DTD/svg11.dtd"><svg t="1655868371565" class="icon" viewBox="0 0 1024 1024" version="1.1" xmlns="http://www.w3.org/2000/svg" p-id="3943" xmlns:xlink="http://www.w3.org/1999/xlink" width="200" height="200"><defs><style type="text/css">@font-face { font-family: feedback-iconfont; src: url("") format("woff2"), url("") format("woff"), url("") format("truetype"); }
</style></defs><path d="M833.79 322.4H713.67a22.69 22.69 0 0 0-17.95 17.95c-2.44 12.41 5.54 24.38 17.95 26.81h121c34.79 0.22 62.94 28.37 63.16 63.16v421.29c0 35.24-28.59 63.61-63.6 63.61H412.49c-35.24-0.22-63.38-29.03-63.16-64.04V686.31c-1.77-9.08-8.87-15.96-17.95-17.95-12.41-2.44-24.38 5.54-27.04 17.95v164.88c0 60.06 48.76 108.81 108.81 108.81h420.41c60.06 0 108.81-48.75 108.81-108.81V430.34c-0.21-59.84-48.97-107.94-108.58-107.94z" p-id="3944" ></path><path d="M751.35 855.17V526.29c-1.11-7.09-6.87-12.86-13.96-13.96-9.31-1.55-17.95 4.65-19.5 13.96v327.55c0.22 9.08 7.54 16.4 16.62 16.62 8.41 0 15.95-6.64 16.84-15.29zM633 805.08c9.31 0 16.84-7.32 17.06-16.62V593c-1.11-7.09-6.87-12.86-13.96-13.96-9.31-1.55-18.17 4.65-19.5 13.96v195.47c0 9.08 7.32 16.17 16.4 16.61zM845.75 739.49v-97.73c-1.11-7.32-6.87-12.86-13.96-13.96-9.31-1.55-17.95 4.87-19.5 13.96v97.73c0.22 9.08 7.54 16.4 16.62 16.62 9.09 0 16.62-7.32 16.84-16.62zM295.48 343.02h88.87l-44.32-87.99zM518.21 641.98v97.73c0.22 9.08 7.54 16.4 16.62 16.62 9.31 0 16.84-7.32 17.06-16.62v-97.73c0.22-1.77 0.22-3.77 0-5.54-1.55-9.31-10.19-15.51-19.5-13.96-9.31 1.32-15.74 10.19-14.18 19.5z" p-id="3945" ></path><path d="M598.43 505.9v-367c0-41.44-33.46-74.9-74.91-74.9H156.53c-41.44 0-74.91 33.46-74.91 74.9v366.55c0 41.44 33.46 74.9 74.91 74.9h366.55c41.44 0.24 75.13-33 75.35-74.45z m-121.89-38.34c-3.55 1.77-7.54 2.66-11.75 2.66-9.97 1.11-19.72-3.99-24.6-12.63l-30.58-64.04H269.77l-32.36 64.04c-4.21 13.52-18.62 20.83-31.91 16.62-13.52-4.21-20.83-18.62-16.62-31.91 0.89-2.66 2.22-5.32 3.77-7.54l124.1-247.32c7.76-12.41 24.16-16.18 36.35-8.42 3.32 2.22 6.21 5.1 8.42 8.42L487.4 434.32c5.98 12.41 1.11 26.82-10.86 33.24z" p-id="3946" ></path></svg>
