<?xml version="1.0" standalone="no"?><!DOCTYPE svg PUBLIC "-//W3C//DTD SVG 1.1//EN" "http://www.w3.org/Graphics/SVG/1.1/DTD/svg11.dtd"><svg t="1655868390573" class="icon" viewBox="0 0 1024 1024" version="1.1" xmlns="http://www.w3.org/2000/svg" p-id="4195" xmlns:xlink="http://www.w3.org/1999/xlink" width="200" height="200"><defs><style type="text/css">@font-face { font-family: feedback-iconfont; src: url("") format("woff2"), url("") format("woff"), url("") format("truetype"); }
</style></defs><path d="M934.24 145.26c-16.97-16.97-37.82-25.55-62.35-25.55H151.9c-24.53 0-45.18 8.58-62.35 25.55S64 183.08 64 207.61v522.92c0 23.1 8.59 43.14 25.55 60.3 16.97 17.17 37.82 25.55 62.35 25.55h186.44v87.9h347.32v-87.9H872.1c24.53 0 45.18-8.58 62.35-25.55 16.97-16.97 25.55-37.21 25.55-60.3V207.61c-0.2-24.54-8.79-45.18-25.76-62.35z m-62.35 585.27H151.9V207.6h719.99v522.93z" p-id="4196" ></path><path d="M388.83 550.43h-96.08c-16.97 0-22.69 16.97-22.69 33.93 0 16.97 5.72 39.66 22.69 33.93h118.77c5.72 0 16.97-16.97 22.69-22.69l45.18-73.6-45.18-45.18-45.38 73.61z" p-id="4197" ></path><path d="M315.44 386.28h96.08L558.5 601.13c5.72 5.72 11.45 22.69 22.69 22.69h135.74c16.97 0 28.42-22.69 28.42-39.66 0-16.97-5.72-39.66-22.69-39.66H603.89L434.22 306.96H315.45v-45.18l-96.08 96.08 96.08 73.6-0.01-45.18z" p-id="4198" ></path><path d="M603.89 386.28h96.08v45.18l101.8-73.6-96.08-96.08v50.9h-96.08c-14.51 2.05-28.01 7.97-39.66 16.97l-56.63 56.63 45.18 45.18 45.39-45.18z" p-id="4199" ></path></svg>
