<?xml version="1.0" standalone="no"?><!DOCTYPE svg PUBLIC "-//W3C//DTD SVG 1.1//EN" "http://www.w3.org/Graphics/SVG/1.1/DTD/svg11.dtd"><svg t="1655876329865" class="icon" viewBox="0 0 1024 1024" version="1.1" xmlns="http://www.w3.org/2000/svg" p-id="1016" xmlns:xlink="http://www.w3.org/1999/xlink" width="200" height="200"><defs><style type="text/css">@font-face { font-family: feedback-iconfont; src: url("") format("woff2"), url("") format("woff"), url("") format("truetype"); }
</style></defs><path d="M815.70816 629.78048h-96.57344l-14.68416 25.43104-94.30016-67.85024 34.57024-59.8784-22.99904-39.84384 108.46208-48.98816 12.09856 20.95616h67.67616l33.83296-58.60864-33.83296-58.60864h-67.67616l-33.83808 58.60864 9.03168 15.6416-108.46208 48.98816-33.97632-58.83904h-17.82272l28.04224-85.02784h39.24992l34.13504-59.13088-34.13504-59.12576h-68.2752l-34.14016 59.12576 34.14016 59.13088h2.39616l-28.04736 85.02784H435.67104l-10.08128 17.4592-53.98528-57.63584 33.3568-57.7792-61.2352-106.06592H221.24544L160.00512 308.83328l61.24032 106.07104h122.48064l14.6688-25.40544 53.98528 57.63584-46.39232 80.34816 48.1792 83.44064-44.59008 51.13344-6.33344-10.97216H265.00608l-49.11616 85.07392 49.11616 85.07392h98.23744l49.11616-85.07392-29.4144-50.94912 44.58496-51.13344 8.1408 14.10048h139.3664l22.40512-38.80448 94.30016 67.85024-20.89472 36.19328 48.28672 83.6352h96.57344l48.28672-83.6352z" p-id="1017" ></path></svg>
