<?xml version="1.0" standalone="no"?><!DOCTYPE svg PUBLIC "-//W3C//DTD SVG 1.1//EN" "http://www.w3.org/Graphics/SVG/1.1/DTD/svg11.dtd"><svg t="1655868444430" class="icon" viewBox="0 0 1024 1024" version="1.1" xmlns="http://www.w3.org/2000/svg" p-id="4948" xmlns:xlink="http://www.w3.org/1999/xlink" width="200" height="200"><defs><style type="text/css">@font-face { font-family: feedback-iconfont; src: url("") format("woff2"), url("") format("woff"), url("") format("truetype"); }
</style></defs><path d="M646.61 175.47c-32.25 0-61 9.11-86.24 27.34 28.04 39.26 42.07 82.73 42.07 130.4s-14.02 91.14-42.07 130.41c25.24 18.23 53.98 27.34 86.24 27.34 43.47 0 80.62-15.43 111.47-46.27 30.85-30.85 46.27-68.01 46.27-111.47 0-43.47-15.43-80.62-46.27-111.47-30.84-30.85-68-46.28-111.47-46.28z m42.07 403.84c28.04 22.44 50.13 49.43 66.25 80.98 16.13 31.55 24.89 64.85 26.29 99.91v88.34H960V760.2l-2.1-16.83c-2.8-14.02-7.71-28.04-14.72-42.07-9.81-19.63-23.84-36.46-42.07-50.48-21.03-19.63-47.67-35.06-79.92-46.27-37.87-12.62-82.03-21.04-132.51-25.24zM535.14 333.22c0-32.25-9.11-61.35-27.34-87.29-18.23-25.94-41.71-45.22-70.46-57.84-28.75-12.62-58.89-15.77-90.44-9.47-31.55 6.31-58.54 20.68-80.98 43.12-22.44 22.44-36.81 49.43-43.12 80.98-6.31 31.55-3.16 61.7 9.47 90.44 12.62 28.75 31.9 52.23 57.84 70.46 25.94 18.23 55.04 27.34 87.29 27.34 43.47 0 80.62-15.43 111.47-46.27 30.84-30.84 46.27-68 46.27-111.47z m155.64 426.97v88.34H64v-88.34l2.1-18.93c2.8-15.43 8.41-30.15 16.83-44.17 12.62-21.03 28.74-39.26 48.38-54.68 25.24-18.23 56.09-32.95 92.54-44.17 43.47-12.62 94.65-18.93 153.54-18.93 92.54 0 166.16 15.43 220.84 46.27 39.26 22.44 66.6 51.88 82.03 88.34 7.01 16.82 10.52 32.25 10.52 46.27z" p-id="4949" ></path></svg>
