<?xml version="1.0" standalone="no"?><!DOCTYPE svg PUBLIC "-//W3C//DTD SVG 1.1//EN" "http://www.w3.org/Graphics/SVG/1.1/DTD/svg11.dtd"><svg t="1655868447740" class="icon" viewBox="0 0 1024 1024" version="1.1" xmlns="http://www.w3.org/2000/svg" p-id="5204" xmlns:xlink="http://www.w3.org/1999/xlink" width="200" height="200"><defs><style type="text/css">@font-face { font-family: feedback-iconfont; src: url("") format("woff2"), url("") format("woff"), url("") format("truetype"); }
</style></defs><path d="M642.96 638.56c-80.3-12.22-66.34-52.37-68.08-55.86 0-6.98 3.49-33.17 3.49-33.17 17.46-15.71 29.68-34.91 38.41-55.86 19.2-12.22 26.19-13.97 29.68-27.93 0 0 6.98-54.12-13.96-54.12 0 0-8.73 1.75-5.24-10.47 1.75-22.69 1.75-43.64 0-64.59-1.74-13.97 1.75-54.12-26.18-59.35a95.213 95.213 0 0 0-31.42 0c-12.22 0-24.44-26.19-41.9-26.19l-38.41 5.24c-17.46 0-15.71 5.24-24.44 6.98-8.73 0-19.2 1.74-27.93 3.49-27.93 6.98-38.41 45.39-40.15 59.35-1.75 12.22-1.75 52.37-1.75 73.32 3.49 12.22-6.98 12.22-6.98 12.22-17.46-1.75-10.47 54.12-10.47 54.12 3.49 12.22 0 19.2 26.19 29.68 8.73 22.69 24.44 40.15 43.64 52.37 0 0 1.75 22.69 1.75 38.41-1.75-1.75 8.73 40.15-71.57 52.37-80.3 12.22-96.02 38.41-111.73 52.37-15.71 15.71-13.97 82.05-13.97 82.05h520.22s-1.75-66.34-17.46-82.05c-15.73-13.97-31.44-40.16-111.74-52.38z" p-id="5205" ></path><path d="M944.84 650.47c-13.65-12.13-27.3-34.88-97.06-45.5-69.76-10.61-57.63-45.49-59.14-48.53 0-6.07 3.03-28.81 3.03-28.81 15.16-13.65 25.78-30.33 33.36-48.53 16.68-10.62 22.75-12.13 25.78-24.26 0 0 6.07-47.01-12.13-47.01 0 0-7.58 1.52-4.55-9.1 1.52-19.71 1.52-37.91 0-56.11-1.52-12.13 1.52-47.01-22.75-51.56a82.29 82.29 0 0 0-27.3 0c-10.62 0-21.23-22.75-36.4-22.75l-33.36 4.55c-15.17 0-13.65 4.55-21.23 6.07-7.58 0-16.68 1.52-24.26 3.03-5.3 1.33-9.76 4.11-13.7 7.54 4.53 14.69 5.26 29.03 5.63 36.71 0.12 2.41 0.17 4.52 0.37 6.13 1.62 19.1 1.97 37.47 1.08 56.45 1.4 1.25 2.74 2.59 4 4.04 18.26 20.76 16.68 57.33 14.11 77.28l-0.25 1.99-0.48 1.95c-4.34 17.27-12.87 26.95-22.52 34.26 6.13 6.88 13.12 12.89 20.86 17.82 0 0 1.52 19.72 1.52 33.36-1.39-1.39 5.95 29-46.46 42.27 6.61 1.67 12.66 2.67 15.1 3.04 80.49 12.24 107.81 39.41 124.13 55.65 1.82 1.79 3.47 3.47 5.15 4.96l1.45 1.38c11.93 11.93 18.76 32.65 22.69 54.96H960s-1.52-57.63-15.16-71.28zM387.7 601.68c-51.52-13.14-41.71-42.46-43.1-45.23 0-6.07 3.03-28.81 3.03-28.81 5.77-5.2 10.7-10.94 15.24-16.93-10.35-9.27-14.83-19.82-17.37-32.31-0.2-1.01-0.4-2.08-0.73-3.24l-0.73-2.55-0.32-2.64c-4.65-37.28-0.4-63.68 12.64-78.45a41.86 41.86 0 0 1 4.57-4.47c0.08-32.51 0.52-54.95 2.08-65.81 1.01-8.13 3.53-18.37 7.51-28.95-1.09-0.38-1.95-0.99-3.17-1.22a82.29 82.29 0 0 0-27.3 0c-10.62 0-21.23-22.75-36.4-22.75l-33.36 4.55c-15.17 0-13.65 4.55-21.23 6.07-7.58 0-16.68 1.52-24.26 3.03-24.26 6.07-33.36 39.43-34.88 51.56-1.52 10.62-1.52 45.5-1.52 63.69 3.03 10.62-6.07 10.62-6.07 10.62-15.16-1.52-9.1 47.01-9.1 47.01 3.03 10.62 0 16.68 22.75 25.78 7.58 19.71 21.23 34.88 37.91 45.49 0 0 1.52 19.72 1.52 33.36-1.52-1.52 7.58 34.88-62.18 45.49-69.76 10.62-83.41 33.36-97.06 45.5-13.65 13.65-12.13 71.28-12.13 71.28H220.3c3.09-22.25 9.34-42.88 21.42-54.96l1.45-1.38c1.68-1.49 3.34-3.17 5.15-4.96 16.33-16.24 43.65-43.4 124.13-55.65 5.83-0.88 10.75-1.97 15.25-3.12z" p-id="5206" ></path></svg>
