<?xml version="1.0" standalone="no"?><!DOCTYPE svg PUBLIC "-//W3C//DTD SVG 1.1//EN" "http://www.w3.org/Graphics/SVG/1.1/DTD/svg11.dtd"><svg t="1655869105898" class="icon" viewBox="0 0 1024 1024" version="1.1" xmlns="http://www.w3.org/2000/svg" p-id="31207" xmlns:xlink="http://www.w3.org/1999/xlink" width="200" height="200"><defs><style type="text/css">@font-face { font-family: feedback-iconfont; src: url("") format("woff2"), url("") format("woff"), url("") format("truetype"); }
</style></defs><path d="M170.666667 853.333333v-256a341.333333 341.333333 0 1 1 682.666666 0v256h42.666667v85.333334H128v-85.333334h42.666667z m85.333333-256h85.333333a170.666667 170.666667 0 0 1 170.666667-170.666666V341.333333a256 256 0 0 0-256 256z m213.333333-512h85.333334v128h-85.333334V85.333333z m374.528 119.808l60.330667 60.330667-90.453333 90.496-60.373334-60.330667 90.496-90.496zM119.808 265.472l60.330667-60.330667 90.496 90.453334L210.346667 356.010667 119.808 265.472z" p-id="31208" ></path></svg>
