<?xml version="1.0" standalone="no"?><!DOCTYPE svg PUBLIC "-//W3C//DTD SVG 1.1//EN" "http://www.w3.org/Graphics/SVG/1.1/DTD/svg11.dtd"><svg t="1655867742885" class="icon" viewBox="0 0 1024 1024" version="1.1" xmlns="http://www.w3.org/2000/svg" p-id="3816" xmlns:xlink="http://www.w3.org/1999/xlink" width="200" height="200"><defs><style type="text/css">@font-face { font-family: feedback-iconfont; src: url("") format("woff2"), url("") format("woff"), url("") format("truetype"); }
</style></defs><path d="M747.708 64c30.284 0 54.953 24.633 54.953 54.873v349.068c-5.315-0.5-10.73-0.901-16.245-0.901-81.929 0-148.515 66.489-148.515 148.298 0 39.453 15.945 77.004 43.622 104.64-1.504 25.234-7.42 45.962-16.646 56.276-1.605 1.702-3.811 3.705-7.923 5.307h-1.704c-48.135 0-87.344 39.152-87.344 87.217v49.066c0 14.82 4.111 28.538 10.63 40.854H118.953C88.67 958.698 64 934.065 64 903.825V118.873C64 88.633 88.669 64 118.953 64zM437.342 563.169H217.528c-18.652 0-33.794 15.12-33.794 33.745s15.142 33.745 33.794 33.745h219.814c18.652 0 33.794-15.12 33.794-33.745s-15.142-33.745-33.794-33.745z m125.25-163.92H217.527c-18.652 0-33.794 15.12-33.794 33.745s15.142 33.745 33.794 33.745h345.063c18.652 0 33.794-15.12 33.794-33.745s-15.142-33.745-33.794-33.745z m91.855-160.114H217.528c-18.652 0-33.794 15.12-33.794 33.745s15.142 33.745 33.794 33.745h437.02c18.652 0 33.694-15.12 33.694-33.745s-15.143-33.745-33.795-33.745z" p-id="3817" ></path><path d="M933.326 829.525c-4.914-2.002-10.129-3.104-15.644-3.104h-8.022c-13.94-3.505-25.672-10.013-34.998-20.427-26.775-29.94-29.182-81.109-28.58-106.643 26.374-18.725 43.822-49.366 43.822-84.113 0-56.976-46.43-103.338-103.488-103.338-57.06 0-103.49 46.362-103.49 103.338 0 34.747 17.45 65.388 43.823 84.113 0.702 25.534-1.604 76.703-28.379 106.643-9.226 10.414-20.958 16.922-34.897 20.427h-8.324c-23.365 0-42.318 18.925-42.318 42.257v49.065c0 23.332 18.953 42.257 42.318 42.257h262.533C940.947 960 960 941.075 960 917.743v-49.065c0-17.724-11.131-32.844-26.674-39.153" p-id="3818" ></path></svg>
