<?xml version="1.0" standalone="no"?><!DOCTYPE svg PUBLIC "-//W3C//DTD SVG 1.1//EN" "http://www.w3.org/Graphics/SVG/1.1/DTD/svg11.dtd"><svg t="1655868795774" class="icon" viewBox="0 0 1024 1024" version="1.1" xmlns="http://www.w3.org/2000/svg" p-id="28303" xmlns:xlink="http://www.w3.org/1999/xlink" width="200" height="200"><defs><style type="text/css">@font-face { font-family: feedback-iconfont; src: url("") format("woff2"), url("") format("woff"), url("") format("truetype"); }
</style></defs><path d="M512 554.666667l256 384H256l256-384z m-45.226667-104.106667a64 64 0 1 1 90.453334-90.453333 64 64 0 0 1-90.453334 90.453333zM225.322667 118.741333l60.373333 60.373334a320 320 0 0 0 0 452.522666l-60.373333 60.373334a405.333333 405.333333 0 0 1 0-573.269334z m573.269333 0a405.333333 405.333333 0 0 1 0 573.269334l-60.373333-60.373334a320 320 0 0 0 0-452.522666l60.373333-60.373334zM346.026667 239.402667l60.330666 60.330666a149.333333 149.333333 0 0 0 0 211.2L346.026667 571.264a234.666667 234.666667 0 0 1 0-331.861333z m331.861333 0a234.666667 234.666667 0 0 1 0 331.861333l-60.330667-60.330667a149.333333 149.333333 0 0 0 0-211.2l60.330667-60.330666z" p-id="28304" ></path></svg>
