<?xml version="1.0" standalone="no"?><!DOCTYPE svg PUBLIC "-//W3C//DTD SVG 1.1//EN" "http://www.w3.org/Graphics/SVG/1.1/DTD/svg11.dtd"><svg t="1655867730827" class="icon" viewBox="0 0 1024 1024" version="1.1" xmlns="http://www.w3.org/2000/svg" p-id="3284" xmlns:xlink="http://www.w3.org/1999/xlink" width="200" height="200"><defs><style type="text/css">@font-face { font-family: feedback-iconfont; src: url("") format("woff2"), url("") format("woff"), url("") format("truetype"); }
</style></defs><path d="M400 573.03s56 6.3 56 55.28v276.41S447.827 960 400 960H120s-55.998-9.785-55.998-55.28V628.293c0.063-1.084 3.444-55.265 55.999-55.265z m504.003 0s55.999 6.3 55.999 55.28v276.41s-6.384 55.28-56 55.28h-280s-55.998-2.872-55.998-55.28V628.31s11.646-55.28 55.999-55.28zM400 75.49c51.355 0 55.999 55.281 55.999 55.281v276.41c0 43.784-56 55.28-56 55.28H120s-55.998-9.784-55.998-55.28V130.77c0-50.692 55.999-55.28 55.999-55.28z" p-id="3285" ></path><path d="M785.549 64c11.232 0 20.379 9.03 20.379 20.118l12.272 43.59a154.233 154.233 0 0 1 25.698 14.656l44.485-11.305c9.753-5.515 22.19-2.217 27.832 7.41l30.572 52.302c5.586 9.63 2.246 21.902-7.506 27.476l-32.159 32.34c0.494 4.868 0.713 9.68 0.713 14.66 0 4.974-0.22 9.892-0.713 14.655l32.213 32.34c9.753 5.571 13.04 17.904 7.452 27.583l-30.572 52.298c-5.641 9.627-18.08 12.978-27.832 7.41l-44.43-11.305c-8 5.625-16.6 10.6-25.698 14.655l-12.272 43.702c0 11.089-9.148 20.118-20.38 20.118h-61.197c-11.232 0-20.38-9.03-20.38-20.118l-12.272-43.702a153.813 153.813 0 0 1-25.696-14.655l-44.486 11.305c-9.752 5.514-22.19 2.217-27.831-7.41l-30.571-52.298c-5.592-9.628-2.246-21.906 7.505-27.476l32.16-32.342c-0.494-4.869-0.714-9.734-0.714-14.656 0-4.975 0.22-9.897 0.713-14.656l-32.159-32.343c-9.751-5.572-13.15-17.847-7.505-27.474l30.459-52.298c5.645-9.626 18.08-12.982 27.831-7.41l44.49 11.302c7.999-5.622 16.599-10.596 25.692-14.656l12.272-43.698c0-11.088 9.152-20.118 20.38-20.118z m-30.57 130.77c-39.39 0-71.387 31.586-71.387 70.472 0 38.885 31.997 70.472 71.387 70.472 39.391 0 71.277-31.529 71.39-70.472 0-38.886-31.998-70.472-71.39-70.472z" p-id="3286" ></path></svg>
