<?xml version="1.0" standalone="no"?><!DOCTYPE svg PUBLIC "-//W3C//DTD SVG 1.1//EN" "http://www.w3.org/Graphics/SVG/1.1/DTD/svg11.dtd"><svg t="1655867737479" class="icon" viewBox="0 0 1024 1024" version="1.1" xmlns="http://www.w3.org/2000/svg" p-id="3553" xmlns:xlink="http://www.w3.org/1999/xlink" width="200" height="200"><defs><style type="text/css">@font-face { font-family: feedback-iconfont; src: url("") format("woff2"), url("") format("woff"), url("") format("truetype"); }
</style></defs><path d="M359.104 696.79c0-184.793 156.168-336.028 347.16-336.028 75.27 0 138.818 22.372 196.736 61.637V153.597C903 103.151 862.55 64 810.382 64H156.624C104.565 64 64 103.151 64 153.597v716.8C64 920.85 104.45 960 156.624 960h335.552c-81.015-61.638-133.072-156.828-133.072-263.21zM289.69 175.97v-11.187c0-16.779 11.609-27.965 28.963-27.965 11.603 0 28.955 11.186 28.955 22.372v11.186c5.75 72.824 63.663 128.754 138.823 128.754 75.155 0 138.817-61.638 138.817-140.049 0-16.779 11.604-27.965 28.957-27.965 17.352 0 28.962 11.186 28.962 27.965 0 106.376-86.765 195.979-190.882 195.979-110.08 5.702-196.845-78.302-202.595-179.09z" p-id="3554" ></path><path d="M707.503 455C567.209 455 455 567.247 455 707.503 455 847.753 567.321 960 707.503 960 847.679 960 960 847.863 960 707.503 960 567.135 847.79 455 707.503 455z m109.873 392.778H597.747c-18.292 0-30.525-11.197-30.525-28.055 0-16.854 12.233-28.056 30.525-28.056h219.507c18.292 0 30.524 11.202 30.524 28.056 0 16.858-12.116 28.055-30.402 28.055z m0-112.222H597.747c-18.292 0-30.525-11.197-30.525-28.056s12.233-28.056 30.525-28.056h219.507c18.292 0 30.524 11.197 30.524 28.056s-12.116 28.056-30.402 28.056z m0-112.223H597.747c-18.292 0-30.525-11.202-30.525-28.056 0-16.858 12.233-28.055 30.525-28.055h219.507c18.292 0 30.524 11.197 30.524 28.055 0 16.854-12.116 28.056-30.402 28.056z" p-id="3555" ></path></svg>
