<?xml version="1.0" standalone="no"?><!DOCTYPE svg PUBLIC "-//W3C//DTD SVG 1.1//EN" "http://www.w3.org/Graphics/SVG/1.1/DTD/svg11.dtd"><svg t="1655867709507" class="icon" viewBox="0 0 1024 1024" version="1.1" xmlns="http://www.w3.org/2000/svg" p-id="2489" xmlns:xlink="http://www.w3.org/1999/xlink" width="200" height="200"><defs><style type="text/css">@font-face { font-family: feedback-iconfont; src: url("") format("woff2"), url("") format("woff"), url("") format("truetype"); }
</style></defs><path d="M730.4 870.4c15.464 0 28 10.029 28 22.4v44.8c0 12.371-12.536 22.4-28 22.4h-448c-15.464 0-28-10.029-28-22.4v-44.8c0-12.371 12.536-22.4 28-22.4h448z" p-id="2490" ></path><path d="M860.44 64c54.986 0 99.56 44.574 99.56 99.56v517.646c0 54.985-44.574 99.56-99.56 99.56H163.595A99.56 99.56 0 0 1 64 681.24V163.594A99.56 99.56 0 0 1 163.56 64h696.88zM310.4 243.2h-44.8c-12.371 0-22.4 10.029-22.4 22.4v313.6c0 12.372 10.028 22.4 22.4 22.4h44.8c12.371 0 22.4-10.029 22.4-22.4V265.6a22.4 22.4 0 0 0-22.4-22.4z m224 179.2h-44.8c-12.371 0-22.4 10.029-22.4 22.4v134.4c0 12.372 10.028 22.4 22.4 22.4h44.8c12.371 0 22.4-10.029 22.4-22.4V444.8c0-12.371-10.029-22.4-22.4-22.4z m224-89.6h-44.8c-12.371 0-22.4 10.029-22.4 22.4v224c0 12.372 10.028 22.4 22.4 22.4h44.8c12.371 0 22.4-10.029 22.4-22.4v-224c0-12.371-10.029-22.4-22.4-22.4z" p-id="2491" ></path></svg>
