<?xml version="1.0" standalone="no"?><!DOCTYPE svg PUBLIC "-//W3C//DTD SVG 1.1//EN" "http://www.w3.org/Graphics/SVG/1.1/DTD/svg11.dtd"><svg t="1655867720629" class="icon" viewBox="0 0 1024 1024" version="1.1" xmlns="http://www.w3.org/2000/svg" p-id="3021" xmlns:xlink="http://www.w3.org/1999/xlink" width="200" height="200"><defs><style type="text/css">@font-face { font-family: feedback-iconfont; src: url("") format("woff2"), url("") format("woff"), url("") format("truetype"); }
</style></defs><path d="M689.858 64c50.337 0 92.284 42.424 92.284 95.03v775.515c0 13.576-11.745 25.455-25.168 25.455h-600.69C105.949 960 64 917.576 64 866.667V157.333C64 106.424 105.948 64 156.285 64z m-199.67 385.212H223.4c-18.457 0-33.558 15.273-33.558 33.94 0 18.666 15.1 33.939 33.558 33.939h266.786c18.457 0 33.558-15.273 33.558-33.94 0-18.666-15.1-33.939-33.558-33.939z m-88.93-157.818H223.401c-18.457 0-33.558 15.273-33.558 33.94 0 18.666 15.1 33.939 33.558 33.939h177.857c18.457 0 33.558-15.273 33.558-33.94 0-18.666-15.1-33.94-33.558-33.94z" p-id="3022" ></path><path d="M889.528 411.879h-40.27v546.424h18.457c50.337 0 92.285-42.424 92.285-93.333V483.152c0-39.03-31.88-71.273-70.472-71.273z" p-id="3023" ></path></svg>
