<?xml version="1.0" standalone="no"?><!DOCTYPE svg PUBLIC "-//W3C//DTD SVG 1.1//EN" "http://www.w3.org/Graphics/SVG/1.1/DTD/svg11.dtd"><svg t="1655867777132" class="icon" viewBox="0 0 1024 1024" version="1.1" xmlns="http://www.w3.org/2000/svg" p-id="5137" xmlns:xlink="http://www.w3.org/1999/xlink" width="200" height="200"><defs><style type="text/css">@font-face { font-family: feedback-iconfont; src: url("") format("woff2"), url("") format("woff"), url("") format("truetype"); }
</style></defs><path d="M960 455.401v403.74C960 886.055 942.08 904 910.72 904H113.28C86.4 904 64 881.57 64 859.14V455.401h896z m-156.8 224.3c-35.84 0-67.2 31.402-67.2 67.29 0 35.887 31.36 67.29 67.2 67.29s67.2-31.403 67.2-67.29c0-35.888-31.36-67.29-67.2-67.29z m116.48-403.74c22.4 0 40.32 22.43 40.32 49.347v85.233H64v-85.233c0-26.916 17.92-49.346 49.28-49.346h806.4z" p-id="5138" ></path><path d="M556.8 231.102H198.4l35.84-85.234c8.96-22.43 35.84-31.402 53.76-22.43l268.8 107.664z" p-id="5139" ></path></svg>
