<?xml version="1.0" standalone="no"?><!DOCTYPE svg PUBLIC "-//W3C//DTD SVG 1.1//EN" "http://www.w3.org/Graphics/SVG/1.1/DTD/svg11.dtd"><svg t="1655867855918" class="icon" viewBox="0 0 1024 1024" version="1.1" xmlns="http://www.w3.org/2000/svg" p-id="7259" xmlns:xlink="http://www.w3.org/1999/xlink" width="200" height="200"><defs><style type="text/css">@font-face { font-family: feedback-iconfont; src: url("") format("woff2"), url("") format("woff"), url("") format("truetype"); }
</style></defs><path d="M341.414 543.362c8.949 0 17.897 0 26.844 4.477H502.49c8.953 0 17.901 0 26.849-4.477C694.89 525.439 806.753 471.678 806.753 422.4V283.52c-76.066 58.241-228.198 89.601-371.376 89.601-143.184 0-295.311-31.36-371.377-89.602V422.4c4.477 49.278 116.334 107.52 277.414 120.962z m93.963 223.997c26.844 0 49.216 0 76.065-4.477v-8.96c0-62.72 26.845-120.962 67.113-165.764-8.947 0-17.896 4.483-26.844 4.483h-4.477c-35.792 4.482-76.066 4.482-111.857 4.482-40.27 0-76.066 0-111.864-4.482h-4.47C216.131 579.2 117.692 552.32 64 507.52V641.92c4.477 58.242 156.603 125.439 371.377 125.439z m-366.9-44.797c76.061 62.72 228.192 94.08 371.37 94.08h3.503l3.502-0.003c24.514-0.03 49.024-0.387 73.538-4.48 13.42 53.762 40.269 98.563 85.014 134.4C556.184 955.522 498.017 960 435.377 960c-214.774 0-366.9-67.197-366.9-129.921zM435.377 64c219.244 0 371.376 67.201 371.376 129.921S654.621 323.838 435.377 323.838C216.132 323.838 64 252.16 64 193.921 64 131.201 216.132 64 435.377 64z" p-id="7260" ></path><path d="M927.559 960c-8.948 0-17.896-4.478-22.372-8.959L869.394 915.2c-31.321 26.882-76.066 35.842-116.335 35.842-107.387 0-196.876-89.598-196.876-197.12 0-107.52 89.49-197.121 196.876-197.121 107.387 0 196.873 89.6 196.873 197.122 0 40.319-13.425 80.639-35.798 116.48l35.798 35.838c13.424 13.441 13.424 31.36 0 44.801-4.477 4.481-13.425 8.959-22.373 8.959z m-174.5-358.4c-85.014 0-152.13 67.202-152.13 152.322s67.116 152.318 152.13 152.318c35.793 0 76.062-13.437 102.91-40.319l8.95-8.96c26.848-26.882 40.268-62.72 40.268-103.04 0-85.12-67.114-152.32-152.128-152.32z m0 44.8c-58.17 0-107.387 49.28-107.387 107.522 0 58.238 49.218 107.521 107.387 107.521 26.844 0 53.694-8.963 71.59-26.882l8.948-8.96c17.897-17.919 26.849-44.801 26.849-71.68 0-58.241-49.222-107.52-107.387-107.52z" p-id="7261" ></path></svg>
