<?xml version="1.0" standalone="no"?><!DOCTYPE svg PUBLIC "-//W3C//DTD SVG 1.1//EN" "http://www.w3.org/Graphics/SVG/1.1/DTD/svg11.dtd"><svg t="1655867754822" class="icon" viewBox="0 0 1024 1024" version="1.1" xmlns="http://www.w3.org/2000/svg" p-id="4342" xmlns:xlink="http://www.w3.org/1999/xlink" width="200" height="200"><defs><style type="text/css">@font-face { font-family: feedback-iconfont; src: url("") format("woff2"), url("") format("woff"), url("") format("truetype"); }
</style></defs><path d="M215.028 757.093c24.094 10.816 43.414 30.285 54.006 54.453H945.08c8.206 0 14.919 6.713 14.919 14.919v54.975c0 8.24-6.68 14.918-14.919 14.918H269.034c-19.022 43.63-64.794 69.232-111.928 62.604-47.133-6.629-84.069-43.862-90.318-91.046-6.25-47.185 19.718-92.75 63.5-111.42V196.303a14.919 14.919 0 0 0-4.475-10.443l-57.438-57.586a14.918 14.918 0 0 1 0-21.11l38.864-38.789a14.919 14.919 0 0 1 21.11 0l82.278 82.277a14.919 14.919 0 0 1 4.4 10.592v595.85z" p-id="4343" ></path><path d="M930.162 137.225c16.411 0 29.838 13.427 29.838 29.837v555.122c0 16.478-13.359 29.837-29.838 29.837h-614.73a29.838 29.838 0 0 1-29.838-29.837V167.062c0-16.485 13.352-29.837 29.837-29.837h614.731z m-44.756 375.203H661.623v127.181h223.783V512.428z" p-id="4344" ></path></svg>
