<?xml version="1.0" standalone="no"?><!DOCTYPE svg PUBLIC "-//W3C//DTD SVG 1.1//EN" "http://www.w3.org/Graphics/SVG/1.1/DTD/svg11.dtd"><svg t="1655867909817" class="icon" viewBox="0 0 1024 1024" version="1.1" xmlns="http://www.w3.org/2000/svg" p-id="7791" xmlns:xlink="http://www.w3.org/1999/xlink" width="200" height="200"><defs><style type="text/css">@font-face { font-family: feedback-iconfont; src: url("") format("woff2"), url("") format("woff"), url("") format("truetype"); }
</style></defs><path d="M281.182 793.345c-45.027 0-81.455 37.264-81.455 83.327 0 46.058 36.518 83.328 81.455 83.328 45.023 0 81.45-37.27 81.45-83.328 0.095-46.063-36.427-83.327-81.45-83.327z m488.726 0c-45.028 0-81.456 37.264-81.456 83.327 0 46.058 36.523 83.328 81.456 83.328 45.027 0 81.454-37.27 81.454-83.328 0-46.063-36.427-83.327-81.454-83.327z m103.828-507.15a1 1 0 0 1 0.911 0.59l85.263 188.946a1 1 0 0 1 0.089 0.411v400.03a0.5 0.5 0 0 1-0.5 0.5h-80.954c0-61.29-48.635-111.042-108.637-111.042-60.007 0-108.637 49.753-108.637 111.042H389.819c0-61.29-48.635-111.042-108.637-111.042-60.006 0-108.636 49.753-108.636 111.042H64.499a0.5 0.5 0 0 1-0.5-0.5V624.638a0.5 0.5 0 0 1 0.5-0.5h672.7a0.5 0.5 0 0 0 0.5-0.5V286.695a0.5 0.5 0 0 1 0.5-0.5zM399.542 64a0.5 0.5 0 0 1 0.5 0.5v503a0.5 0.5 0 0 1-0.5 0.5H64.569a0.5 0.5 0 0 1-0.5-0.5V64.5a0.5 0.5 0 0 1 0.5-0.5h334.974z m279.979 336a0.5 0.5 0 0 1 0.5 0.5v167a0.5 0.5 0 0 1-0.5 0.5H456.538a0.5 0.5 0 0 1-0.5-0.5v-167a0.5 0.5 0 0 1 0.5-0.5h222.983z" p-id="7792" ></path><path d="M456.038 64m0.5 0l222.983 0q0.5 0 0.5 0.5l0 279q0 0.5-0.5 0.5l-222.983 0q-0.5 0-0.5-0.5l0-279q0-0.5 0.5-0.5Z" p-id="7793" ></path></svg>
