<?xml version="1.0" standalone="no"?><!DOCTYPE svg PUBLIC "-//W3C//DTD SVG 1.1//EN" "http://www.w3.org/Graphics/SVG/1.1/DTD/svg11.dtd"><svg t="1655867847016" class="icon" viewBox="0 0 1024 1024" version="1.1" xmlns="http://www.w3.org/2000/svg" p-id="6990" xmlns:xlink="http://www.w3.org/1999/xlink" width="200" height="200"><defs><style type="text/css">@font-face { font-family: feedback-iconfont; src: url("") format("woff2"), url("") format("woff"), url("") format("truetype"); }
</style></defs><path d="M960 627.55v141.758c0 29.64-27.004 53.834-60.247 53.834l-125.95-3.798c-18.528 51.13-67.164 85.098-121.5 84.656-54.167-0.125-102.677-33.806-121.753-84.656H407.582c-18.533 51.13-67.164 85.098-121.5 84.656-54.041-0.286-102.26-34.048-121.336-84.816h-45.193C88.86 819.184 64 794.265 64 763.49V458.722a88.45 88.45 0 0 1 13.793-47.374L205.5 253.96c10.438-16.923 29.328-27.333 49.763-27.421h136.262v-50.97c0-49.433 25.029-55.569 55.72-55.569h101.437c-18.133 316.649 67.083 457.03 170.21 520.831 54.91 46.829 191.465 23.188 241.107-13.28zM282.46 822.451c27.722-0.166 50.158-22.487 50.421-50.273-0.565-27.787-22.829-50.11-50.422-50.527-27.68 0.125-50.12 22.488-50.378 50.232 0.565 27.786 22.828 50.111 50.378 50.568z m71.52-514.057c0-6.109-4.565-11.058-10.347-10.894h-79.458c-3.722-0.093-7.206 1.843-9.125 5.073l-87.685 99.897a11.762 11.762 0 0 0-1.628 5.821c0 6.064 4.601 11.059 10.342 11.059h167.554c5.834-0.135 10.458-5.025 10.346-10.935V308.394zM657.597 721.65c-27.835 0-50.398 22.553-50.398 50.377 0 27.867 22.563 50.423 50.398 50.423 27.705 0 50.272-22.556 50.402-50.423-0.569-27.7-22.827-49.96-50.402-50.377z" p-id="6991" ></path><path d="M787.886 120C882.945 120 960 201.288 960 301.554c0 122.182-96.524 237.758-144.99 288.017-7.077 7.454-16.851 11.671-27.062 11.671-10.213 0-19.984-4.217-27.064-11.67-48.18-49.848-144.053-164.27-145.115-285.912-0.525-96.264 69.69-176.565 160.838-183.66h11.28z m-0.122 108.769c-37.998 0-68.871 32.557-68.871 72.62 0 40.233 30.711 72.664 68.871 72.664v0.127h0.122c37.998-0.127 68.709-32.721 68.709-72.79 0-40.064-30.873-72.621-68.83-72.621z" p-id="6992" ></path></svg>
