<?xml version="1.0" standalone="no"?><!DOCTYPE svg PUBLIC "-//W3C//DTD SVG 1.1//EN" "http://www.w3.org/Graphics/SVG/1.1/DTD/svg11.dtd"><svg t="1655868930218" class="icon" viewBox="0 0 1024 1024" version="1.1" xmlns="http://www.w3.org/2000/svg" p-id="29803" xmlns:xlink="http://www.w3.org/1999/xlink" width="200" height="200"><defs><style type="text/css">@font-face { font-family: feedback-iconfont; src: url("") format("woff2"), url("") format("woff"), url("") format("truetype"); }
</style></defs><path d="M563.029333 96.768l138.666667 240.213333a42.666667 42.666667 0 0 1-15.616 58.24l-55.466667 32 42.709334 73.898667-73.898667 42.666667-42.666667-73.941334-55.424 32.042667a42.666667 42.666667 0 0 1-58.282666-15.616L364.629333 350.506667a213.418667 213.418667 0 0 0-137.472 279.936A212.309333 212.309333 0 0 1 341.333333 597.333333c71.850667 0 135.424 35.541333 174.08 89.984l328.021334-189.397333 42.666666 73.898667-336.128 194.090666A214.954667 214.954667 0 0 1 550.4 853.333333H896v85.333334l-725.333333 0.042666A212.437333 212.437333 0 0 1 128 810.666667c0-42.965333 12.714667-82.986667 34.56-116.48a298.709333 298.709333 0 0 1 158.592-418.986667l-16.768-29.098667a85.333333 85.333333 0 0 1 31.232-116.565333l110.848-64a85.333333 85.333333 0 0 1 116.565333 31.232z" p-id="29804" ></path></svg>
