<?xml version="1.0" standalone="no"?><!DOCTYPE svg PUBLIC "-//W3C//DTD SVG 1.1//EN" "http://www.w3.org/Graphics/SVG/1.1/DTD/svg11.dtd"><svg t="1655867798256" class="icon" viewBox="0 0 1024 1024" version="1.1" xmlns="http://www.w3.org/2000/svg" p-id="5669" xmlns:xlink="http://www.w3.org/1999/xlink" width="200" height="200"><defs><style type="text/css">@font-face { font-family: feedback-iconfont; src: url("") format("woff2"), url("") format("woff"), url("") format("truetype"); }
</style></defs><path d="M512.002 64c217 0 392 179.2 392 401.408 0 155.307-84 286.72-210 353.621 9.333-33.45 14-62.122 14-81.237v-11.947c74.666-59.733 123.666-155.306 123.666-260.437 0-181.59-144.666-329.728-322-329.728-177.333 0-322 148.139-322 329.728 0 107.52 51.334 203.093 128.334 262.827v9.557c0 19.115 4.666 50.176 14 83.627-123.667-66.902-210-200.704-210-356.011 0-222.208 175-401.408 392-401.408z m2.333 150.528c135.333 0 245 112.299 245 250.88 0 69.29-28 133.803-74.667 176.81-11.666-21.503-28-40.618-46.666-57.343 28-31.062 46.666-74.07 46.666-119.467 0-97.963-77-176.81-172.666-176.81-95.667 0-172.667 78.847-172.667 176.81 0 47.787 18.667 90.795 46.667 121.856-18.667 14.336-35 35.84-46.667 57.344-44.333-45.397-72.333-109.91-72.333-179.2 0-138.581 109.666-250.88 247.333-250.88z m0 160.085c49 0 91 40.619 91 93.184 0 33.451-18.667 62.123-39.667 78.848-14 9.558-30.333 14.336-49 14.336-18.666 0-35-4.778-49-14.336-28-16.725-44.333-45.397-44.333-78.848 0-50.176 39.667-93.184 91-93.184z" p-id="5670" ></path><path d="M449.002 960h130.666c28-71.68 60.667-188.757 60.667-222.208 0-69.29-56-126.635-123.667-126.635h-2.333-2.333c-67.667 0-123.667 57.344-123.667 126.635 0 33.45 32.667 150.528 60.667 222.208z" p-id="5671" ></path></svg>
