<?xml version="1.0" standalone="no"?><!DOCTYPE svg PUBLIC "-//W3C//DTD SVG 1.1//EN" "http://www.w3.org/Graphics/SVG/1.1/DTD/svg11.dtd"><svg t="1655867957644" class="icon" viewBox="0 0 1024 1024" version="1.1" xmlns="http://www.w3.org/2000/svg" p-id="9387" xmlns:xlink="http://www.w3.org/1999/xlink" width="200" height="200"><defs><style type="text/css">@font-face { font-family: feedback-iconfont; src: url("") format("woff2"), url("") format("woff"), url("") format("truetype"); }
</style></defs><path d="M628.226 639.461s-36.491-10.1-46.22-15.148c-19.46-12.62-31.624-37.857-31.624-63.1 0-27.76 21.893-50.475 36.488-68.146 36.492-45.428 55.951-106.004 55.951-174.15C642.821 177.58 545.518 64 426.317 64S209.811 180.1 209.811 321.44c0 68.147 21.893 128.723 55.952 174.15 21.893 12.625 36.488 40.386 36.488 68.148 0 25.243-12.163 47.956-31.622 63.098v2.525c-2.432 0-4.866 2.523-4.866 2.523-12.167 7.572-24.33 12.618-38.925 12.618C121.504 678.692 64 773.266 64 848.943 64 909.52 112.649 960 173.472 960H687.69c63.25 0 111.904-47.957 111.904-111.057 0-68.985-76.112-176.835-171.368-209.482z" p-id="9388" ></path><path d="M837.435 614.218c-17.033-12.62-26.762-32.808-26.762-55.528 0-25.238 19.459-45.428 31.627-58.046 31.622-40.386 51.081-93.391 51.081-153.96 0-123.676-85.142-227.161-192.174-227.161-17.027 0-34.061 2.529-48.655 7.577 36.492 55.523 55.952 121.146 55.952 194.34 0 78.241-26.758 153.96-72.98 217.06l-4.864 5.047v2.523c-4.866 5.048-12.163 12.62-14.6 20.197 0 2.523 0 2.523 2.437 2.523 4.86 2.523 12.163 5.048 19.46 5.048h2.432l9.73 5.047c96.967 35.333 124.21 84.032 178.481 146.536 28.08 37.588 49.135 103.51 29.378 189.147h92.784c6.159-15.877 9.238-47.814 9.238-95.81-7.4-84.469-79.962-164.896-122.565-204.54z" p-id="9389" ></path></svg>
