<?xml version="1.0" standalone="no"?><!DOCTYPE svg PUBLIC "-//W3C//DTD SVG 1.1//EN" "http://www.w3.org/Graphics/SVG/1.1/DTD/svg11.dtd"><svg t="1655867938128" class="icon" viewBox="0 0 1024 1024" version="1.1" xmlns="http://www.w3.org/2000/svg" p-id="8849" xmlns:xlink="http://www.w3.org/1999/xlink" width="200" height="200"><defs><style type="text/css">@font-face { font-family: feedback-iconfont; src: url("") format("woff2"), url("") format("woff"), url("") format("truetype"); }
</style></defs><path d="M112.698 349.395c8.088 0 20.151 3.596 28.352 7.155l283.748 130.09c32.511 14.386 60.906 46.935 60.906 72.296v354.055c0 28.842-24.386 46.937-48.731 46.937v0.034l0.034 0.038c-12.174 0-20.302-3.596-32.437-7.266L124.906 822.828C92.32 808.22 64 775.67 64 750.46V392.734c0-25.284 20.264-43.34 48.698-43.34zM505.858 64c20.301 0 40.565 3.635 56.747 10.939L878.83 212.072c20.302 10.936 32.477 25.323 32.477 43.451 0 18.056-12.175 32.439-32.477 43.3L558.524 443.3c-12.101 7.305-36.446 10.94-56.748 10.94v-0.038h0.034c-20.264 0-40.454-3.597-56.748-10.786L128.842 302.42c-24.35-7.154-36.485-21.648-36.485-39.742 0-17.944 12.135-32.515 32.477-43.34L445.14 74.901C461.284 67.596 485.628 64 505.857 64z" p-id="8850" ></path><path d="M586.954 960c-28.32 0-48.621-18.09-48.621-43.339V562.643c0-28.918 24.388-57.798 60.834-72.295L882.91 356.661c8.205-3.558 20.264-7.154 28.396-7.154 28.39 0 48.693 17.978 48.693 43.338v354.018c0 28.846-24.35 57.687-60.834 72.257L615.423 952.696a64.03 64.03 0 0 1-28.47 7.232V960z m39.219-325.213a24.874 24.874 0 0 0-14.609 22.663v8.878a16.04 16.04 0 0 0 7.36 13.461 16.043 16.043 0 0 0 15.304 1.11l236.547-107.503a24.884 24.884 0 0 0 14.61-22.664v-8.879a16.04 16.04 0 0 0-7.36-13.46 16.042 16.042 0 0 0-15.305-1.11L626.173 634.787z m-0.823 144.14a24.87 24.87 0 0 0-13.786 22.25v9.478a15.37 15.37 0 0 0 7.28 13.142 15.361 15.361 0 0 0 15.007 0.643l163.094-81.586a24.87 24.87 0 0 0 13.747-22.247v-9.479a15.358 15.358 0 0 0-22.252-13.785l-163.09 81.584z" p-id="8851" ></path></svg>
