<?xml version="1.0" standalone="no"?><!DOCTYPE svg PUBLIC "-//W3C//DTD SVG 1.1//EN" "http://www.w3.org/Graphics/SVG/1.1/DTD/svg11.dtd"><svg t="1655867878008" class="icon" viewBox="0 0 1024 1024" version="1.1" xmlns="http://www.w3.org/2000/svg" p-id="7528" xmlns:xlink="http://www.w3.org/1999/xlink" width="200" height="200"><defs><style type="text/css">@font-face { font-family: feedback-iconfont; src: url("") format("woff2"), url("") format("woff"), url("") format("truetype"); }
</style></defs><path d="M275.575 772.977c0-25.448-20.323-46.077-45.394-46.077H109.46c-25.07 0-45.394 20.63-45.394 46.077s20.323 46.077 45.394 46.077h120.853c25 0 45.394-20.635 45.394-46.077h-0.132zM109.46 296.584h120.787c25.089 0 45.427-20.644 45.427-46.11s-20.338-46.11-45.427-46.11H109.394C84.324 204.364 64 224.993 64 250.44c0 25.448 20.324 46.077 45.394 46.077l0.066 0.067zM64.066 511.742c0 25.51 20.394 46.077 45.394 46.077h120.787c25.089 0 45.427-20.645 45.427-46.11 0-25.466-20.338-46.11-45.427-46.11H109.46c-25.02 0.073-45.263 20.68-45.263 46.076l-0.131 0.067z" p-id="7529" ></path><path d="M960 911.34V112.077C960 86.634 931.974 66 897.501 66H199.985c-25.02 0.074-45.263 20.681-45.263 46.077v46.076h75.525c50.065 0 90.657 41.403 90.657 92.287 0.036 50.87-40.542 92.147-90.657 92.22h-75.525v76.862h75.525c50.09 0.073 90.657 41.31 90.657 92.153 0 50.952-40.592 92.154-90.657 92.154h-75.525v76.928h75.525c50.115 0.073 90.693 41.35 90.657 92.22 0 50.843-40.567 92.08-90.657 92.153h-75.525v46.077c0 25.509 20.263 46.079 45.328 46.079h697.451c34.473 0.131 62.499-20.503 62.499-45.946zM709.055 447.902v63.84h-91.709v68.38h91.775v55.493h-91.775v102.904h-82.762V635.682h-94.998v-55.426h94.932v-68.514h-94.932v-63.906H515.9l-93.156-164.942h79.867l75.262 149.583 77.762-149.583h75.196L634.78 447.836h74.34l-0.065 0.066z" p-id="7530" ></path></svg>
