<?xml version="1.0" standalone="no"?><!DOCTYPE svg PUBLIC "-//W3C//DTD SVG 1.1//EN" "http://www.w3.org/Graphics/SVG/1.1/DTD/svg11.dtd"><svg t="1655869112214" class="icon" viewBox="0 0 1024 1024" version="1.1" xmlns="http://www.w3.org/2000/svg" p-id="31457" xmlns:xlink="http://www.w3.org/1999/xlink" width="200" height="200"><defs><style type="text/css">@font-face { font-family: feedback-iconfont; src: url("") format("woff2"), url("") format("woff"), url("") format("truetype"); }
</style></defs><path d="M161.408 120.576L512 42.666667l350.592 77.909333a42.666667 42.666667 0 0 1 33.408 41.642667v426.112a256 256 0 0 1-114.005333 212.992L512 981.333333l-269.994667-180.010666A256 256 0 0 1 128 588.373333V162.218667a42.666667 42.666667 0 0 1 33.408-41.642667zM512 469.333333a106.666667 106.666667 0 1 0 0-213.333333 106.666667 106.666667 0 0 0 0 213.333333z m-190.848 213.333334h381.696a192 192 0 0 0-381.696 0z" p-id="31458" ></path></svg>
