<?xml version="1.0" standalone="no"?><!DOCTYPE svg PUBLIC "-//W3C//DTD SVG 1.1//EN" "http://www.w3.org/Graphics/SVG/1.1/DTD/svg11.dtd"><svg t="1655867917161" class="icon" viewBox="0 0 1024 1024" version="1.1" xmlns="http://www.w3.org/2000/svg" p-id="8054" xmlns:xlink="http://www.w3.org/1999/xlink" width="200" height="200"><defs><style type="text/css">@font-face { font-family: feedback-iconfont; src: url("") format("woff2"), url("") format("woff"), url("") format("truetype"); }
</style></defs><path d="M503.957 942.803l-0.295 0.446C496.864 953.272 486.356 960 473.863 960H327.204c-21.585 0-39.672-20.503-39.206-45.618 0.35-24.434 17.502-43.982 38.505-43.982l107.319 0.003a313.545 313.545 0 0 0 70.135 72.4zM888.141 64c39.668 0 71.816 30.761 71.816 68.726l0.004 396.851C905.089 438.508 805.241 377.6 691.171 377.6c-173.187 0-313.586 140.394-313.586 313.575-0.007 47.492 10.7 93.234 30.248 134.428l-272.02-0.003C96.142 825.6 64 794.834 64 756.87V132.726C64 94.761 96.142 64 135.812 64zM287.989 198.4h-63.183l-71.21 112.001 71.21 111.999h63.183l-71.015-111.999L287.99 198.4z m134.394 0h-47.654l-41.942 224h47.654l41.942-224z" p-id="8055" ></path><path d="M691.17 422.4c148.446 0 268.787 120.338 268.787 268.775a268.826 268.826 0 0 1-78.721 190.062c-76.865 76.892-192.487 99.904-292.935 58.297-100.45-41.605-165.934-139.636-165.918-248.359 0-148.437 120.34-268.775 268.787-268.775z m143.35 179.2H588.128s-41.009 6.528-40.327 52.888h36.138s6.51-21.361 13.611-21.796c0 0 5.268-0.378 10.894-0.605l0.825-0.032c6.201-0.233 12.546-0.253 12.546 0.637 0 1.741-37.007 144.916-37.007 144.916h50.865l36.89-144.093h60.758s-23.475 68.662-25.547 92.162c0 0-13.907 51.642 30.775 55.123h50.303s14.5-3.48 13.613-29.883l-20.418 0.872-7.989-0.291-10.948-0.58s-5.623-2.322-5.92-11.315c-0.135-4.137 5.49-26.937 11.604-50.354l0.8-3.057c6.68-25.475 13.67-50.752 14.197-52.659l0.032-0.115 44.188-0.678 6.51-31.14z" p-id="8056" ></path></svg>
