<?xml version="1.0" standalone="no"?><!DOCTYPE svg PUBLIC "-//W3C//DTD SVG 1.1//EN" "http://www.w3.org/Graphics/SVG/1.1/DTD/svg11.dtd"><svg t="1655867968649" class="icon" viewBox="0 0 1024 1024" version="1.1" xmlns="http://www.w3.org/2000/svg" p-id="9925" xmlns:xlink="http://www.w3.org/1999/xlink" width="200" height="200"><defs><style type="text/css">@font-face { font-family: feedback-iconfont; src: url("") format("woff2"), url("") format("woff"), url("") format("truetype"); }
</style></defs><path d="M763.317 544.78c15.647 0 30.857 1.748 45.5 5.092l6.883 25.612a59.988 59.988 0 0 0 73.341 42.702l25.394-6.774A207.806 207.806 0 0 1 960 690.849l-18.576 18.816c-23.302 23.7-23.302 61.705 0 85.404L960 813.885a207.806 207.806 0 0 1-45.565 79.482l-25.394-6.775a59.988 59.988 0 0 0-73.34 42.68l-6.885 25.612a204.9 204.9 0 0 1-90.998 0l-6.884-25.612a59.988 59.988 0 0 0-73.341-42.702l-25.394 6.775a207.806 207.806 0 0 1-45.565-79.416l18.576-18.816c23.302-23.7 23.302-61.705 0-85.404l-18.576-18.816a207.806 207.806 0 0 1 45.565-79.481l25.394 6.774a59.988 59.988 0 0 0 73.34-42.68l6.885-25.612a204.936 204.936 0 0 1 45.5-5.114z m0 121.113c-47.379 0-85.776 38.724-85.776 86.496s38.397 86.497 85.776 86.497 85.776-38.725 85.776-86.497-38.397-86.496-85.776-86.496z" p-id="9926" ></path><path d="M537.787 563.793l-2.207 2.688a295.154 295.154 0 0 0-49.608 89.752l-2.906 8.96-1.333 4.874-1.05 4.917a88.114 88.114 0 0 0 20.28 73.8l3.432 3.736-3.431 3.715a87.414 87.414 0 0 0-17.898 83.35 295.089 295.089 0 0 0 52.383 98.56H223.816C135.552 938.145 64 866.593 64 778.329c0.016-92.44 66.33-171.556 157.346-187.722l50.264-8.96c79.132-14.052 173.846-19.996 266.177-17.854zM501.073 64C621.76 64 719.61 161.85 719.61 282.536c0 120.687-97.85 218.537-218.537 218.537-120.687 0-218.537-97.85-218.537-218.537C282.536 161.85 380.386 64 501.073 64z" p-id="9927" ></path></svg>
