<?xml version="1.0" standalone="no"?><!DOCTYPE svg PUBLIC "-//W3C//DTD SVG 1.1//EN" "http://www.w3.org/Graphics/SVG/1.1/DTD/svg11.dtd"><svg t="1655867977145" class="icon" viewBox="0 0 1024 1024" version="1.1" xmlns="http://www.w3.org/2000/svg" p-id="10457" xmlns:xlink="http://www.w3.org/1999/xlink" width="200" height="200"><defs><style type="text/css">@font-face { font-family: feedback-iconfont; src: url("") format("woff2"), url("") format("woff"), url("") format("truetype"); }
</style></defs><path d="M95.322 316.8l388.594 220.7V960c-2.914-0.8-5.326-2.1-8.34-3.7l-323.98-183.6c-38.487-21.9-59.59-44.1-59.59-103.8V348.1c-0.1-10.5 1.005-21 3.316-31.3z m201.583-151.1l391.81 222.8-176.662 99.6-389.8-220.2c6.231-6.2 13.667-11.2 22.812-16.1l151.84-86.1zM512.053 64c24.821 0 49.642 7.8 75.368 22.3l291.721 165.4c9.044 5 16.48 9.9 22.711 16.1l-155.558 88.1-393.518-222.4 84.01-47.3C462.41 71.8 487.232 64 512.053 64z" p-id="10458" ></path><path d="M928.684 316.8c2.11 9.1 3.316 18.9 3.316 31.3v320.7c0 59.7-21.103 82-59.59 103.8L548.43 956.3c-2.914 1.6-5.325 2.9-8.24 3.7V537.5z m-75.788 244.765c-7.418-13.569-24.43-18.555-38-11.138L628.243 652.465c-13.569 7.417-18.555 24.43-11.138 37.999 7.418 13.569 24.43 18.555 38 11.138l186.654-102.037c13.569-7.418 18.555-24.43 11.138-38z" p-id="10459" ></path></svg>
