<?xml version="1.0" standalone="no"?><!DOCTYPE svg PUBLIC "-//W3C//DTD SVG 1.1//EN" "http://www.w3.org/Graphics/SVG/1.1/DTD/svg11.dtd"><svg t="1655867963250" class="icon" viewBox="0 0 1024 1024" version="1.1" xmlns="http://www.w3.org/2000/svg" p-id="9656" xmlns:xlink="http://www.w3.org/1999/xlink" width="200" height="200"><defs><style type="text/css">@font-face { font-family: feedback-iconfont; src: url("") format("woff2"), url("") format("woff"), url("") format("truetype"); }
</style></defs><path d="M520.307 490.776c119.835-0.28 216.71-95.648 217.046-213.36C737.13 159.592 640.03 64.28 520.307 64c-119.835 0.28-216.711 95.648-217.047 213.36 0.392 117.88 97.436 213.136 217.047 213.416z m1.232 399.28v-196c0-58.184 48.046-105.392 107.18-105.392l152.089-0.504a344.15 344.15 0 0 0-161.945-46.648s-100.572 0.112-100.572 0.224h-96.484c-186.472 4.928-342.034 170.8-357.265 339.472-2.016 25.424 2.24 36.064 2.24 36.064C75.63 942.864 99.485 960 127.539 960l394.784-0.224h19.99A137.82 137.82 0 0 1 521.54 890v0.056z" p-id="9657" ></path><path d="M893.699 661.352l-218.39 0.728c-40.655 0-73.694 32.816-73.694 73.36v136.528c0 40.432 32.927 88.032 73.693 88.032h211C926.96 960 960 931.776 960 882.328v-153.72c0-34.888-25.143-67.256-66.301-67.256z m-202.264 60.592h110.54a29.342 29.342 0 0 1 26.916 44.48 29.342 29.342 0 0 1-26.916 14.096h-110.54a29.342 29.342 0 0 1-26.916-44.48 29.342 29.342 0 0 1 26.916-14.096z m178.857 174.944H691.435a29.342 29.342 0 0 1-26.476-44.357 29.342 29.342 0 0 1 26.476-14.275h178.857a29.342 29.342 0 0 1 26.477 44.357 29.342 29.342 0 0 1-26.477 14.275z" p-id="9658" ></path></svg>
