<?xml version="1.0" standalone="no"?><!DOCTYPE svg PUBLIC "-//W3C//DTD SVG 1.1//EN" "http://www.w3.org/Graphics/SVG/1.1/DTD/svg11.dtd"><svg t="1655867934015" class="icon" viewBox="0 0 1024 1024" version="1.1" xmlns="http://www.w3.org/2000/svg" p-id="8586" xmlns:xlink="http://www.w3.org/1999/xlink" width="200" height="200"><defs><style type="text/css">@font-face { font-family: feedback-iconfont; src: url("") format("woff2"), url("") format("woff"), url("") format("truetype"); }
</style></defs><path d="M737.268 564.865a46.13 46.13 0 0 1 12.94-33.827 46.138 46.138 0 0 1 33.366-14.069h0.163c24.522 0 45.251 19.056 46.347 43.578 0.245 5.535 0.367 11.117 0.367 16.698 0 220.37-186.487 397.249-410.407 381.816C231.069 946.027 77.976 793.135 64.943 604.406c-15.48-223.634 161.645-409.833 382.268-409.833 8.96 0 17.798 0.285 26.59 0.937 24.3 1.748 43.113 21.982 43.089 46.347 0 27.043-23.048 47.978-50.093 46.142a294.246 294.246 0 0 0-60.072 2.12c-134.885 18.732-240.088 131.547-249.17 267.248-11.729 175.655 133.219 320.608 308.997 309.2 140.305-9.042 255.528-120.43 269.533-260.162a294.545 294.545 0 0 0 1.225-41.54h-0.042zM661.15 486.87a11.235 11.235 0 0 1 10.394-2.977 11.251 11.251 0 0 1 8.098 7.173c32.702 87.966 13.844 190.597-57.02 261.304a248.828 248.828 0 0 1-182.514 72.428A248.828 248.828 0 0 1 261.9 742.35c-86.63-96.275-82.923-246.681 8.104-338.93 64.442-65.246 159.582-89.699 247.497-63.614 8.145 2.44 10.797 12.624 4.807 18.654L411.245 469.236c-35.76 35.637-39.506 97.417-4.805 134.156a94.834 94.834 0 0 0 67.483 29.673 94.825 94.825 0 0 0 68.346-27.64L661.19 486.871h-0.04z" p-id="8587" ></path><path d="M948.93 245.48l0.244 0.122a18.014 18.014 0 0 1 9.328 9.328l0.117 0.244a18.047 18.047 0 0 1 0 13.85l-0.117 0.239a18.028 18.028 0 0 1-3.75 5.58l-187.02 186.778a17.912 17.912 0 0 1-5.58 3.746l-0.245 0.122a18.084 18.084 0 0 1-6.922 1.381H619.61L511.192 575.206c-18.777 18.736-49.242 18.736-68.014 0a47.977 47.977 0 0 1 0-67.932L556.6 394.01V268.778c0-2.364 0.45-4.725 1.388-6.926l0.122-0.245a17.51 17.51 0 0 1 3.787-5.575L748.915 69.254c1.63-1.632 3.548-2.849 5.54-3.747l0.245-0.122a18.104 18.104 0 0 1 13.889 0l0.245 0.122a18.013 18.013 0 0 1 9.327 9.288c0 0.122 0.082 0.162 0.123 0.284a17.973 17.973 0 0 1 1.38 6.922v162.093h162.34c2.365 0 4.724 0.49 6.926 1.386z" p-id="8588" ></path></svg>
