<?xml version="1.0" standalone="no"?><!DOCTYPE svg PUBLIC "-//W3C//DTD SVG 1.1//EN" "http://www.w3.org/Graphics/SVG/1.1/DTD/svg11.dtd"><svg t="1655869147428" class="icon" viewBox="0 0 1024 1024" version="1.1" xmlns="http://www.w3.org/2000/svg" p-id="31707" xmlns:xlink="http://www.w3.org/1999/xlink" width="200" height="200"><defs><style type="text/css">@font-face { font-family: feedback-iconfont; src: url("") format("woff2"), url("") format("woff"), url("") format("truetype"); }
</style></defs><path d="M512 469.333333a213.333333 213.333333 0 0 1 213.333333 213.333334v256H298.666667v-256a213.333333 213.333333 0 0 1 213.333333-213.333334z m-286.378667 128.256a297.941333 297.941333 0 0 0-11.946666 70.4L213.333333 682.666667v256H85.333333v-192a149.333333 149.333333 0 0 1 133.077334-148.48l7.253333-0.597334z m572.757334 0A149.376 149.376 0 0 1 938.666667 746.666667V938.666667h-128v-256c0-29.568-4.266667-58.112-12.288-85.077334zM234.666667 341.333333a106.666667 106.666667 0 1 1 0 213.333334 106.666667 106.666667 0 0 1 0-213.333334z m554.666666 0a106.666667 106.666667 0 1 1 0 213.333334 106.666667 106.666667 0 0 1 0-213.333334zM512 85.333333a170.666667 170.666667 0 1 1 0 341.333334 170.666667 170.666667 0 0 1 0-341.333334z" p-id="31708" ></path></svg>
