<?xml version="1.0" standalone="no"?><!DOCTYPE svg PUBLIC "-//W3C//DTD SVG 1.1//EN" "http://www.w3.org/Graphics/SVG/1.1/DTD/svg11.dtd"><svg t="1655876589581" class="icon" viewBox="0 0 1024 1024" version="1.1" xmlns="http://www.w3.org/2000/svg" p-id="1324" xmlns:xlink="http://www.w3.org/1999/xlink" width="200" height="200"><defs><style type="text/css">@font-face { font-family: feedback-iconfont; src: url("") format("woff2"), url("") format("woff"), url("") format("truetype"); }
</style></defs><path d="M302.54 39.112L64.533 157.164h476.022L302.541 39.112z m176.897 118.046H125.64v212.7h131.548a63.191 63.191 0 0 1-2.893-17.725v-70.897c0.01-29.368 21.622-53.166 48.266-53.15 26.63 0.01 48.215 23.803 48.22 53.15v70.902a63.375 63.375 0 0 1-2.892 17.726h131.548V157.158zM729.22 177.72a132.326 132.326 0 0 0-14.889-61.68c0-55.655-26.946-100.68-58.844-100.68-31.908 0-58.138 45.02-59.203 100.68a132.076 132.076 0 0 0-14.889 61.68A101.018 101.018 0 0 0 640.6 279.107v90.752h29.425v-90.752A101.028 101.028 0 0 0 729.22 177.72z m177.25 0a132.26 132.26 0 0 0-14.884-61.68c0-55.655-26.947-100.68-58.85-100.68s-58.132 45.02-59.202 100.68a132.137 132.137 0 0 0-14.884 61.68 101.018 101.018 0 0 0 59.202 101.387v90.752h29.425v-90.752A101.028 101.028 0 0 0 906.47 177.72zM571.689 1024h168.207l34.873-642.56h-109.63z m346.783-642.56H800.159L783.442 1024H935.06z m-278.723 0H522.056L318.295 1024h209.848z m304.113 0L978.6 1024H1024V381.44zM0 663.895V770.99h327.875l42.342-107.095zM436.178 497.07L481.9 381.44H0v115.63zM0 526.935V634.03h382.029l42.342-107.095zM273.725 907.95l42.343-107.095H0V907.95zM0 937.815V1024h227.84l34.074-86.185z" p-id="1325" ></path></svg>
