<?xml version="1.0" standalone="no"?><!DOCTYPE svg PUBLIC "-//W3C//DTD SVG 1.1//EN" "http://www.w3.org/Graphics/SVG/1.1/DTD/svg11.dtd"><svg t="1655869372712" class="icon" viewBox="0 0 1024 1024" version="1.1" xmlns="http://www.w3.org/2000/svg" p-id="1263" xmlns:xlink="http://www.w3.org/1999/xlink" width="200" height="200"><defs><style type="text/css">@font-face { font-family: feedback-iconfont; src: url("") format("woff2"), url("") format("woff"), url("") format("truetype"); }
</style></defs><path d="M912.115458 77.389016s42.815411-85.566823 67.199076 0c0 0 152.829899 314.747672-106.87853 660.022925-123.518302 161.085785-376.954817 217.149014-551.480417 106.302538-58.1752-36.927492-83.326854-79.614905-83.326854-79.614905s-36.799494 23.99967-78.846916 72.255006c-40.127448 46.143366-61.631153 125.694272-111.358469 123.518302a44.479388 44.479388 0 0 1-32.959547-14.5918c-20.223722-23.359679-16.70377-50.815301-4.863933-75.966955 18.17575-38.591469 64.639111-120.958337 157.501834-197.949278 156.029855-129.278222 326.203515-166.205715 521.976823-170.621654 31.423568-0.639991 30.719578-52.735275-10.687853-53.951258 0 0-273.46824-24.895658-498.809141 145.469999-56.255226-197.245288 140.094074-357.755081 326.907505-376.250826 99.838627-9.919864 180.093524 13.887809 271.99626-24.127668 42.303418-17.47176 101.630603-46.271364 133.630162-114.494426z" p-id="1264" ></path></svg>
