<?xml version="1.0" standalone="no"?><!DOCTYPE svg PUBLIC "-//W3C//DTD SVG 1.1//EN" "http://www.w3.org/Graphics/SVG/1.1/DTD/svg11.dtd"><svg t="1655876414400" class="icon" viewBox="0 0 1024 1024" version="1.1" xmlns="http://www.w3.org/2000/svg" p-id="1123" xmlns:xlink="http://www.w3.org/1999/xlink" width="200" height="200"><defs><style type="text/css">@font-face { font-family: feedback-iconfont; src: url("") format("woff2"), url("") format("woff"), url("") format("truetype"); }
</style></defs><path d="M295.716571 109.933714c-50.614857 0-97.865143 23.259429-133.046857 65.462857-33.792 40.594286-52.443429 94.208-52.443428 150.966858s18.651429 110.372571 52.443428 150.966857c13.458286 16.091429 28.598857 29.476571 45.056 39.789714l-35.84 271.506286v2.048c0 68.169143 55.661714 123.611429 123.830857 123.611428s123.830857-55.442286 123.830858-123.611428v-2.048l-35.84-271.506286c16.457143-10.313143 31.670857-23.698286 45.056-39.789714 33.792-40.594286 52.443429-94.208 52.443428-150.966857s-18.651429-110.372571-52.443428-150.966858c-35.254857-42.203429-82.432-65.462857-133.046858-65.462857zM883.346286 110.226286c-16.822857 0-30.500571 13.677714-30.500572 30.500571v217.161143c0 68.534857-55.734857 124.269714-124.269714 124.269714-68.534857 0-124.269714-55.734857-124.269714-124.269714v-217.234286c0-16.822857-13.677714-30.500571-30.500572-30.500571s-30.500571 13.677714-30.500571 30.500571v217.161143c0 70.290286 39.424 131.584 97.28 162.962286l-35.328 267.849143v2.048c0 68.169143 55.661714 123.611429 123.830857 123.611428s123.830857-55.442286 123.830857-123.611428v-2.048l-35.401143-268.361143c57.344-31.524571 96.329143-92.525714 96.329143-162.523429V140.653714a30.5152 30.5152 0 0 0-30.500571-30.427428z" p-id="1124" ></path><path d="M779.337143 389.266286c17.115429 0 30.939429-13.824 30.939428-30.939429V140.653714c0-17.115429-13.897143-30.939429-30.939428-30.939428-17.115429 0-30.939429 13.824-30.939429 30.939428v217.673143c0 17.115429 13.824 30.939429 30.939429 30.939429zM678.765714 389.266286c17.115429 0 30.939429-13.824 30.939429-30.939429V140.653714c0-17.115429-13.824-30.939429-30.939429-30.939428-17.115429 0-30.939429 13.824-30.939428 30.939428v217.673143c-0.073143 17.115429 13.824 30.939429 30.939428 30.939429z" p-id="1125" ></path></svg>
