<?xml version="1.0" standalone="no"?><!DOCTYPE svg PUBLIC "-//W3C//DTD SVG 1.1//EN" "http://www.w3.org/Graphics/SVG/1.1/DTD/svg11.dtd"><svg t="1655948960636" class="icon" viewBox="0 0 1536 1024" version="1.1" xmlns="http://www.w3.org/2000/svg" p-id="43393" xmlns:xlink="http://www.w3.org/1999/xlink" width="300" height="200"><defs><style type="text/css">@font-face { font-family: feedback-iconfont; src: url("") format("woff2"), url("") format("woff"), url("") format("truetype"); }
</style></defs><path d="M512 102.4V256H409.6V51.2A51.2 51.2 0 0 1 460.8 0h1024A51.2 51.2 0 0 1 1536 51.2v665.6a51.2 51.2 0 0 1-51.2 51.2H768v-102.4h665.6V102.4H512zM51.2 307.2h614.4a51.2 51.2 0 0 1 51.2 51.2v460.8a51.2 51.2 0 0 1-51.2 51.2H51.2A51.2 51.2 0 0 1 0 819.2V358.4a51.2 51.2 0 0 1 51.2-51.2zM256 921.6h204.8a51.2 51.2 0 1 1 0 102.4H256a51.2 51.2 0 1 1 0-102.4z m614.4-102.4h204.8a51.2 51.2 0 1 1 0 102.4h-204.8a51.2 51.2 0 1 1 0-102.4z" p-id="43394"></path></svg>
