<?xml version="1.0" standalone="no"?><!DOCTYPE svg PUBLIC "-//W3C//DTD SVG 1.1//EN" "http://www.w3.org/Graphics/SVG/1.1/DTD/svg11.dtd"><svg t="1655868263999" class="icon" viewBox="0 0 1024 1024" version="1.1" xmlns="http://www.w3.org/2000/svg" p-id="1425" xmlns:xlink="http://www.w3.org/1999/xlink" width="200" height="200"><defs><style type="text/css">@font-face { font-family: feedback-iconfont; src: url("") format("woff2"), url("") format("woff"), url("") format("truetype"); }
</style></defs><path d="M839.68 105.984v-43.52C839.68 27.648 809.472 0 773.632 0H250.368C214.528 0 184.32 27.648 184.32 62.464v43.52C79.36 125.44 0 217.088 0 327.68c0 117.76 90.112 214.016 204.8 224.256 41.984 108.544 143.36 188.416 266.24 203.264V942.08H266.24c-11.264 0-21.504 4.608-29.184 11.776-7.168 7.68-11.776 17.92-11.776 29.184 0 22.528 18.432 40.96 40.96 40.96h491.52c22.528 0 40.96-18.432 40.96-40.96s-18.432-40.96-40.96-40.96h-204.8v-186.88c74.24-8.704 140.8-41.472 190.976-90.112 33.28-31.744 58.88-70.144 75.776-113.152 114.688-10.24 204.8-107.008 204.8-224.256-0.512-110.592-79.872-202.24-184.832-221.696zM81.92 327.68c0-65.024 43.52-119.808 102.4-137.216v251.904c0 7.68 0.512 15.872 1.024 23.552C125.44 448 81.92 392.704 81.92 327.68z m561.664 7.68l-44.032 45.568c-5.12 5.12-7.68 12.8-6.144 20.48l10.24 62.976c3.072 19.456-17.408 33.792-34.304 24.576l-50.688-28.16c-7.168-4.096-15.36-4.096-22.528 0L445.44 488.96c-16.896 9.728-37.376-5.12-34.304-24.576l10.24-62.976c1.024-7.168-1.024-14.848-6.144-20.48l-44.032-45.568c-13.312-13.824-5.632-36.864 13.312-39.936l58.88-9.216c6.656-1.536 13.312-6.656 16.896-13.312l25.6-54.784c8.192-17.92 33.792-17.92 42.496 0l25.6 54.784c3.072 7.168 9.728 12.288 17.408 13.312l58.88 9.216c18.944 3.072 26.624 26.112 13.312 39.936z m195.072 130.048c0.512-7.68 1.024-15.36 1.024-23.552V190.464c58.88 17.92 102.4 72.704 102.4 137.216 0 65.024-43.52 120.32-103.424 137.728z" p-id="1426" ></path></svg>
