<?xml version="1.0" standalone="no"?><!DOCTYPE svg PUBLIC "-//W3C//DTD SVG 1.1//EN" "http://www.w3.org/Graphics/SVG/1.1/DTD/svg11.dtd"><svg t="1655868188729" class="icon" viewBox="0 0 1024 1024" version="1.1" xmlns="http://www.w3.org/2000/svg" p-id="2441" xmlns:xlink="http://www.w3.org/1999/xlink" width="200" height="200"><defs><style type="text/css">@font-face { font-family: feedback-iconfont; src: url("") format("woff2"), url("") format("woff"), url("") format("truetype"); }
</style></defs><path d="M512 85.333333c187.648 0 341.333333 160.64 341.333333 359.978667 0 143.018667-80.213333 264.533333-160.853333 350.464l-16.682667 17.28c-13.866667 13.952-27.562667 26.88-40.704 38.570667l-15.445333 13.525333-14.762667 12.373333-13.909333 11.221334-12.928 10.026666-17.109333 12.714667-17.834667 12.544-10.922667 7.296-2.517333 1.621333c-3.626667 2.858667-9.514667 4.778667-17.664 5.717334a42.538667 42.538667 0 0 1-15.232-4.138667l-15.872-10.496-17.834667-12.544-17.109333-12.714667-12.885333-10.026666-13.952-11.221334-14.762667-12.373333-15.445333-13.525333C294.357333 767.189333 170.666667 622.848 170.666667 445.312 170.666667 247.381333 322.986667 85.333333 512 85.333333z m0 213.333334c-70.272 0-128 56.746667-128 127.36C384 496.64 441.728 554.666667 512 554.666667s128-56.746667 128-127.36C640 356.693333 582.272 298.666667 512 298.666667z" p-id="2442" ></path></svg>
