<?xml version="1.0" standalone="no"?><!DOCTYPE svg PUBLIC "-//W3C//DTD SVG 1.1//EN" "http://www.w3.org/Graphics/SVG/1.1/DTD/svg11.dtd"><svg t="1655948394592" class="icon" viewBox="0 0 1024 1024" version="1.1" xmlns="http://www.w3.org/2000/svg" p-id="11638" xmlns:xlink="http://www.w3.org/1999/xlink" width="200" height="200"><defs><style type="text/css">@font-face { font-family: feedback-iconfont; src: url("") format("woff2"), url("") format("woff"), url("") format("truetype"); }
</style></defs><path d="M576 148.4544V40.6016c2.8928 1.3184 5.7472 2.7264 8.576 4.224l321.2544 171.0336a153.6 153.6 0 0 1 81.4208 135.5776v321.1264a153.6 153.6 0 0 1-81.408 135.5776l-321.28 171.0336c-2.816 1.4976-5.6704 2.9056-8.5632 4.224v-107.8528a127.9232 127.9232 0 0 0 32.4736-11.9808l232.2688-123.648a128 128 0 0 0 67.84-112.9856V397.056a128 128 0 0 0-67.84-112.9856l-232.2688-123.648A127.9232 127.9232 0 0 0 576 148.4544z"  p-id="11639"></path><path d="M448 983.04a153.8944 153.8944 0 0 1-7.7952-3.8656L118.9504 808.1408a153.6 153.6 0 0 1-81.4208-135.5776V351.4368a153.6 153.6 0 0 1 81.408-135.5776l321.28-171.0336c2.56-1.3696 5.1584-2.6624 7.7824-3.8656v942.08z" opacity=".3" p-id="11640"></path><path d="M406.8736 394.496c-34.304 0-63.5904 12.1344-87.8592 36.4032s-36.4032 53.5552-36.4032 87.8592c0 5.4784-1.92 10.1376-5.7472 13.9648-3.84 3.84-8.4864 5.7472-13.952 5.7472-5.4784 0-10.1376-1.92-13.952-5.7472-3.84-3.84-5.76-8.4864-5.76-13.952 0-45.2608 15.9616-83.8528 47.8976-115.7888 31.936-31.936 70.528-47.8976 115.776-47.8976H595.2l-65.7024-65.6896a18.56 18.56 0 0 1-5.4656-13.696c0-5.4656 1.92-10.112 5.7472-13.952 3.84-3.84 8.4864-5.7472 13.952-5.7472 5.4784 0 10.0352 1.8304 13.696 5.4784l100.7232 100.7232c4.0064 4.0192 6.016 8.6656 6.016 13.952 0 5.2992-2.0096 9.9456-6.016 13.9648l-97.9968 97.4464c-3.648 4.0064-8.2048 6.016-13.6832 6.016-5.4656 0-10.1248-1.92-13.952-5.7472-3.84-3.84-5.76-8.4864-5.76-13.952 0-5.4784 2.0096-10.2272 6.0288-14.2336l65.152-65.152H406.8608z m318.6048 73.9072c4.0192 3.648 6.016 8.2048 6.016 13.6832 0 45.248-15.9616 83.84-47.8976 115.776-31.9232 31.936-70.528 47.8976-115.776 47.8976H379.52l65.6896 65.7024c3.648 3.648 5.4784 8.2048 5.4784 13.6832 0 5.4656-1.92 10.1248-5.76 13.952-3.8272 3.84-8.4736 5.76-13.952 5.76a18.56 18.56 0 0 1-13.6832-5.4784l-100.736-100.736a20.1216 20.1216 0 0 1-5.4656-13.952c0-5.2864 1.8304-9.9456 5.4784-13.952l97.984-97.4464c3.648-4.0192 8.2176-6.016 13.696-6.016 5.4656 0 10.112 1.9072 13.952 5.7344 3.84 3.84 5.76 8.4864 5.76 13.952 0 5.4912-1.8432 10.048-5.4912 13.696l-65.6896 65.6896h191.0528c34.304 0 63.5904-12.1344 87.8592-36.4032s36.4032-53.5552 36.4032-87.8592c0-5.4784 1.92-10.1248 5.76-13.952 3.8272-3.84 8.4736-5.76 13.952-5.76 5.4784 0 10.0352 2.0096 13.696 6.016z"  p-id="11641"></path></svg>
