<?xml version="1.0" standalone="no"?><!DOCTYPE svg PUBLIC "-//W3C//DTD SVG 1.1//EN" "http://www.w3.org/Graphics/SVG/1.1/DTD/svg11.dtd"><svg t="1655869358333" class="icon" viewBox="0 0 1024 1024" version="1.1" xmlns="http://www.w3.org/2000/svg" p-id="994" xmlns:xlink="http://www.w3.org/1999/xlink" width="200" height="200"><defs><style type="text/css">@font-face { font-family: feedback-iconfont; src: url("") format("woff2"), url("") format("woff"), url("") format("truetype"); }
</style></defs><path d="M511.99808 512.00192c-12.799952 0-31.99988 0-44.799832-7.231973L57.599784 375.042434C19.199928 360.642488 0 324.610623 0 288.642758s19.199928-72.06373 51.199808-86.527676L467.198248 72.323569c25.599904-7.231973 63.99976-14.399946 89.599664 0l409.598464 129.727513c38.399856 14.463946 57.599784 50.495811 57.599784 86.527676 0 36.031865-19.199928 72.06373-51.199808 86.463676L556.797912 504.769947C543.99796 512.00192 524.798032 512.00192 511.99808 512.00192z" p-id="995" ></path><path d="M723.197288 903.424452H300.798872c-76.799712 0-140.863472-63.99976-140.863472-140.799472v-243.199088c0-12.799952 6.399976-19.199928 12.799952-25.599904 6.399976-6.399976 19.199928-6.399976 25.599904-6.399976l307.198848 89.599664c12.799952 6.399976 25.599904 6.399976 38.399856 0l275.198968-89.599664c12.799952 0 19.199928 0 25.599904 6.399976 6.399976 6.399976 12.799952 12.799952 12.799952 25.599904v243.199088c6.399976 76.799712-57.599784 140.799472-134.399496 140.799472zM959.9964 871.424572c-19.199928 0-31.99988-12.799952-31.99988-31.99988v-383.99856c0-19.199928 12.799952-31.99988 31.99988-31.99988s31.99988 12.799952 31.99988 31.99988v383.99856c0 19.199928-12.799952 31.99988-31.99988 31.99988zM908.796592 948.224284a51.199808 51.199808 0 1 0 102.399616 0 51.199808 51.199808 0 0 0-102.399616 0z" p-id="996" ></path></svg>
