<?xml version="1.0" standalone="no"?><!DOCTYPE svg PUBLIC "-//W3C//DTD SVG 1.1//EN" "http://www.w3.org/Graphics/SVG/1.1/DTD/svg11.dtd"><svg t="1655868114162" class="icon" viewBox="0 0 1024 1024" version="1.1" xmlns="http://www.w3.org/2000/svg" p-id="1487" xmlns:xlink="http://www.w3.org/1999/xlink" width="200" height="200"><defs><style type="text/css">@font-face { font-family: feedback-iconfont; src: url("") format("woff2"), url("") format("woff"), url("") format("truetype"); }
</style></defs><path d="M788.928 138.666667H853.333333a85.333333 85.333333 0 0 1 85.333334 85.333333v586.666667a85.333333 85.333333 0 0 1-85.333334 85.333333H170.666667a85.333333 85.333333 0 0 1-85.333334-85.333333V224a85.333333 85.333333 0 0 1 85.333334-85.333333h64.405333c-0.266667 3.52-0.405333 7.072-0.405333 10.666666 0 76.586667 62.08 138.666667 138.666666 138.666667h277.333334c76.586667 0 138.666667-62.08 138.666666-138.666667 0-3.594667-0.138667-7.146667-0.405333-10.666666zM320 596.266667a53.333333 53.333333 0 0 0-53.333333 53.333333V704a53.333333 53.333333 0 0 0 106.666666 0v-54.4a53.333333 53.333333 0 0 0-53.333333-53.333333zM512 416a53.333333 53.333333 0 0 0-53.333333 53.333333v234.666667a53.333333 53.333333 0 0 0 106.666666 0V469.333333a53.333333 53.333333 0 0 0-53.333333-53.333333z m192 112.448a53.333333 53.333333 0 0 0-53.333333 53.333333V704a53.333333 53.333333 0 0 0 106.666666 0V581.781333a53.333333 53.333333 0 0 0-53.333333-53.333333z m-1.066667-389.792A53.333333 53.333333 0 0 1 650.666667 202.666667H373.333333a53.333333 53.333333 0 0 1-52.266666-64.010667h381.866666z" p-id="1488" ></path><path d="M320 96m53.333333 0l277.333334 0q53.333333 0 53.333333 53.333333l0 0q0 53.333333-53.333333 53.333334l-277.333334 0q-53.333333 0-53.333333-53.333334l0 0q0-53.333333 53.333333-53.333333Z" p-id="1489" ></path></svg>
