<?xml version="1.0" standalone="no"?><!DOCTYPE svg PUBLIC "-//W3C//DTD SVG 1.1//EN" "http://www.w3.org/Graphics/SVG/1.1/DTD/svg11.dtd"><svg t="1655868118373" class="icon" viewBox="0 0 1024 1024" version="1.1" xmlns="http://www.w3.org/2000/svg" p-id="1744" xmlns:xlink="http://www.w3.org/1999/xlink" width="200" height="200"><defs><style type="text/css">@font-face { font-family: feedback-iconfont; src: url("") format("woff2"), url("") format("woff"), url("") format("truetype"); }
</style></defs><path d="M746.666667 800c0 76.586667 62.08 138.666667 138.666666 138.666667H170.666667a85.333333 85.333333 0 0 1-85.333334-85.333334V170.666667a85.333333 85.333333 0 0 1 85.333334-85.333334h490.666666a85.333333 85.333333 0 0 1 85.333334 85.333334v629.333333zM287.104 261.461333c-98.826667 52.544-136.352 175.253333-83.797333 274.090667 44.832 84.32 140.757333 124.010667 229.333333 101.194667 0.682667 1.738667 1.482667 3.445333 2.378667 5.130666l65.098666 122.442667a53.333333 53.333333 0 1 0 94.186667-50.08L529.184 591.786667a53.728 53.728 0 0 0-4.533333-7.114667c62.154667-61.301333 79.616-158.4 36.533333-239.424-52.554667-98.837333-175.264-136.352-274.090667-83.797333z m198.741333 123.850667C516.266667 442.528 494.549333 513.578667 437.333333 544c-57.216 30.421333-128.266667 8.704-158.688-48.512-30.421333-57.216-8.693333-128.266667 48.522667-158.688 57.216-30.421333 128.256-8.704 158.677333 48.512z" p-id="1745" ></path><path d="M832 213.333333m53.333333 0l0 0q53.333333 0 53.333334 53.333334l0 533.333333q0 53.333333-53.333334 53.333333l0 0q-53.333333 0-53.333333-53.333333l0-533.333333q0-53.333333 53.333333-53.333334Z" p-id="1746" ></path></svg>
