<?xml version="1.0" standalone="no"?><!DOCTYPE svg PUBLIC "-//W3C//DTD SVG 1.1//EN" "http://www.w3.org/Graphics/SVG/1.1/DTD/svg11.dtd"><svg t="1655868109981" class="icon" viewBox="0 0 1024 1024" version="1.1" xmlns="http://www.w3.org/2000/svg" p-id="1231" xmlns:xlink="http://www.w3.org/1999/xlink" width="200" height="200"><defs><style type="text/css">@font-face { font-family: feedback-iconfont; src: url("") format("woff2"), url("") format("woff"), url("") format("truetype"); }
</style></defs><path d="M885.333333 128a85.333333 85.333333 0 0 1 85.333334 85.333333v160a85.333333 85.333333 0 0 1-85.333334 85.333334H138.666667a85.333333 85.333333 0 0 1-85.333334-85.333334V213.333333a85.333333 85.333333 0 0 1 85.333334-85.333333h746.666666zM565.333333 245.333333H352a53.333333 53.333333 0 0 0 0 106.666667h213.333333a53.333333 53.333333 0 0 0 0-106.666667z m-373.333333 0a53.333333 53.333333 0 1 0 0 106.666667 53.333333 53.333333 0 0 0 0-106.666667zM885.333333 544a85.333333 85.333333 0 0 1 85.333334 85.333333v160a85.333333 85.333333 0 0 1-85.333334 85.333334H138.666667a85.333333 85.333333 0 0 1-85.333334-85.333334V629.333333a85.333333 85.333333 0 0 1 85.333334-85.333333h746.666666zM565.333333 661.333333H352a53.333333 53.333333 0 0 0 0 106.666667h213.333333a53.333333 53.333333 0 0 0 0-106.666667z m-373.333333 0a53.333333 53.333333 0 1 0 0 106.666667 53.333333 53.333333 0 0 0 0-106.666667z" p-id="1232" ></path></svg>
