<?xml version="1.0" standalone="no"?><!DOCTYPE svg PUBLIC "-//W3C//DTD SVG 1.1//EN" "http://www.w3.org/Graphics/SVG/1.1/DTD/svg11.dtd"><svg t="1655877191785" class="icon" viewBox="0 0 1024 1024" version="1.1" xmlns="http://www.w3.org/2000/svg" p-id="60550" xmlns:xlink="http://www.w3.org/1999/xlink" width="200" height="200"><defs><style type="text/css">@font-face { font-family: feedback-iconfont; src: url("") format("woff2"), url("") format("woff"), url("") format("truetype"); }
</style></defs><path d="M874.5 337.8C830.1 219.1 715.3 134 581.5 134H439.7c-133.7 0-248.5 85.1-293 203.8-0.9 0.3-1.7 0.6-2.6 1l-3.4-141.1c13.4-5.4 22.9-18.6 22.9-33.9V92c0-20.1-16.5-36.6-36.6-36.6-20 0.1-36.5 16.5-36.5 36.6v71.7c0 15.3 9.5 28.5 22.9 33.9l-3.9 160.5c-31.2 24.2-51.4 62.1-51.4 104.5v109.8c0 57.4 37.1 106.6 88.6 124.8C191.2 815.9 306 901 439.7 901h141.8c133.7 0 248.5-85.1 293-203.8C925.9 679 963 629.8 963 572.4V462.6c0-57.5-37.1-106.7-88.5-124.8z m-33 224.9c0 74-60.5 134.5-134.5 134.5H314.2c-74 0-134.5-60.5-134.5-134.5v-90.3c0-74 60.5-134.5 134.5-134.5H707c74 0 134.5 60.5 134.5 134.5v90.3z" p-id="60551" ></path><path d="M605.8 435l-81 133-100.2-196.2-78.4 154.9L226 545.2l142.2 5.2 55.5-93.7 102 191.1L608 502.1l40.3 49.3 121.5-5.9-106.4-17.3z" p-id="60552" ></path></svg>
