<?xml version="1.0" standalone="no"?><!DOCTYPE svg PUBLIC "-//W3C//DTD SVG 1.1//EN" "http://www.w3.org/Graphics/SVG/1.1/DTD/svg11.dtd"><svg t="1655868300513" class="icon" viewBox="0 0 1024 1024" version="1.1" xmlns="http://www.w3.org/2000/svg" p-id="1962" xmlns:xlink="http://www.w3.org/1999/xlink" width="200" height="200"><defs><style type="text/css">@font-face { font-family: feedback-iconfont; src: url("") format("woff2"), url("") format("woff"), url("") format("truetype"); }
</style></defs><path d="M972.8 716.8h-51.712v-204.8-2.56-3.072c0-1.024-0.512-1.536-0.512-2.56s-0.512-1.536-0.512-2.56c0-0.512-0.512-1.024-0.512-2.048 0-0.512-0.512-1.024-0.512-1.536 0-0.512-0.512-1.024-0.512-1.536-0.512-1.024-0.512-1.536-1.024-2.56-1.536-3.072-3.072-5.632-5.12-7.68-1.024-1.024-1.536-2.048-2.56-3.072-1.024-1.024-2.048-1.536-3.072-2.56l-4.096-2.56-2.048-1.024-4.608-2.048c-5.12-2.048-10.24-3.072-15.872-3.072h-327.68V307.2h51.2c28.16 0 51.2-23.04 51.2-51.2V71.68c0-28.16-23.04-51.2-51.2-51.2h-184.32c-28.16 0-51.2 23.04-51.2 51.2v184.32c0 28.16 23.04 51.2 51.2 51.2h51.2v163.84h-327.68c-22.528 0-40.96 18.432-40.96 40.96v204.8H51.2c-28.16 0-51.2 23.04-51.2 51.2v184.32c0 28.16 23.04 51.2 51.2 51.2h184.32c28.16 0 51.2-23.04 51.2-51.2v-184.32c0-28.16-23.04-51.2-51.2-51.2H183.808v-163.84h286.72v163.84H419.84c-28.16 0-51.2 23.04-51.2 51.2v184.32c0 28.16 23.04 51.2 51.2 51.2h184.32c28.16 0 51.2-23.04 51.2-51.2v-184.32c0-28.16-23.04-51.2-51.2-51.2h-51.712v-163.84h286.72v163.84H788.48c-28.16 0-51.2 23.04-51.2 51.2v184.32c0 28.16 23.04 51.2 51.2 51.2h184.32c28.16 0 51.2-23.04 51.2-51.2v-184.32c0-28.16-23.04-51.2-51.2-51.2z" p-id="1963" ></path></svg>
