<?xml version="1.0" standalone="no"?><!DOCTYPE svg PUBLIC "-//W3C//DTD SVG 1.1//EN" "http://www.w3.org/Graphics/SVG/1.1/DTD/svg11.dtd"><svg t="1655868049442" class="icon" viewBox="0 0 1024 1024" version="1.1" xmlns="http://www.w3.org/2000/svg" p-id="1186" xmlns:xlink="http://www.w3.org/1999/xlink" width="200" height="200"><defs><style type="text/css">@font-face { font-family: feedback-iconfont; src: url("") format("woff2"), url("") format("woff"), url("") format("truetype"); }
</style></defs><path d="M800 320v128h64v416H160V448h64V320H32v672h960V320z" p-id="1187" ></path><path d="M294.4 492.8l-76.8 102.4L512 816l294.4-220.8-76.8-102.4L512 656zM512 480c123.7 0 224-100.3 224-224S635.7 32 512 32 288 132.3 288 256s100.3 224 224 224z m-67.9-291.9C462.2 170 486.4 160 512 160s49.8 10 67.9 28.1C598 206.2 608 230.4 608 256s-10 49.8-28.1 67.9C561.8 342 537.6 352 512 352s-49.8-10-67.9-28.1C426 305.8 416 281.6 416 256s10-49.8 28.1-67.9z" p-id="1188" ></path></svg>
