<?xml version="1.0" standalone="no"?><!DOCTYPE svg PUBLIC "-//W3C//DTD SVG 1.1//EN" "http://www.w3.org/Graphics/SVG/1.1/DTD/svg11.dtd"><svg t="1655868139116" class="icon" viewBox="0 0 1024 1024" version="1.1" xmlns="http://www.w3.org/2000/svg" p-id="1489" xmlns:xlink="http://www.w3.org/1999/xlink" width="200" height="200"><defs><style type="text/css">@font-face { font-family: feedback-iconfont; src: url("") format("woff2"), url("") format("woff"), url("") format("truetype"); }
</style></defs><path d="M810.666667 170.666667a128 128 0 0 1 128 128v426.666666a128 128 0 0 1-128 128H213.333333a128 128 0 0 1-128-128V298.666667a128 128 0 0 1 128-128h597.333334z m-170.666667 384h-85.333333l-4.992 0.298666a42.666667 42.666667 0 0 0 0 84.736L554.666667 640h85.333333l47.658667-0.298667a42.666667 42.666667 0 0 0 0-84.736L640 554.666667zM323.029333 384c-45.44 0-82.261333 35.584-82.261333 79.445333 0 21.034667 8.448 40.192 22.314667 54.314667C232.874667 538.88 213.333333 575.530667 213.333333 616.448c0 11.733333 9.173333 21.418667 21.205334 23.253333l4.096 0.298667H407.466667c13.994667 0 25.344-10.538667 25.344-23.552 0-40.96-19.541333-77.568-49.749334-98.602667 13.824-14.208 22.314667-33.365333 22.314667-54.4C405.333333 419.584 368.512 384 323.029333 384zM768 384h-213.333333l-4.992 0.298667a42.666667 42.666667 0 0 0 0 84.736L554.666667 469.333333h213.333333l4.992-0.298666a42.666667 42.666667 0 0 0 0-84.736L768 384z" p-id="1490" ></path></svg>
