<?xml version="1.0" standalone="no"?><!DOCTYPE svg PUBLIC "-//W3C//DTD SVG 1.1//EN" "http://www.w3.org/Graphics/SVG/1.1/DTD/svg11.dtd"><svg t="1655876624370" class="icon" viewBox="0 0 1064 1024" version="1.1" xmlns="http://www.w3.org/2000/svg" p-id="1574" xmlns:xlink="http://www.w3.org/1999/xlink" width="207.8125" height="200"><defs><style type="text/css">@font-face { font-family: feedback-iconfont; src: url("") format("woff2"), url("") format("woff"), url("") format("truetype"); }
</style></defs><path d="M1056.768 729.661v69.223H912.63v138.322l144.138 0.04v69.223H0v-69.222h72.049V798.843H0V729.66h1056.768z m-216.187 69.223H720.486v138.322h120.095V798.843z m-192.143 0H528.343v138.322h120.095V798.843z m-192.144 0H336.241v138.322h120.053V798.843z m-192.143 0H144.097v138.322h120.054V798.843zM512.983 0l267.018 218.89v435.282H251.617V218.89L512.983 0zM226.509 226.468V654.13H0V226.51h226.468z m830.3 0V654.13H830.341V226.51h226.427zM542.925 349.553h-53.576s-23.757 0-23.757 19.046v19.087c0 2.007 1.966 4.014 3.932 4.998 0 0 29.737 9.01 29.737 28.098v59.187c0 22.119-71.393 24.085-71.393 24.085-2.949 0-5.939 3.03-5.939 6.02v24.085c0 3.031 2.007 6.021 5.94 6.021h176.537a5.734 5.734 0 0 0 5.939-6.02v-24.085c0-2.99-2.99-6.021-5.94-6.021 0 0-69.426 0-69.426-24.085v-59.187c0-21.053 28.753-26.091 28.753-26.091 2.008 0 3.974-2.99 3.974-4.998v-20.07c0-20.07-24.781-20.07-24.781-20.07z m-5.448-130.499l-2.457 0.041h-39.732a11.06 11.06 0 0 0-10.608 8.56l-0.287 2.458v6.062h-1.966c-62.464 17.04-107.11 73.237-107.11 137.462 0 32.113 9.912 61.194 29.777 88.269 5.94 8.028 12.862 15.073 20.808 21.094 3.973 2.99 4.956 4.014 4.956 4.014 1.598 1.639 4.424 1.27 6.554 0.041l1.392-1.065 18.842-23.06a5.898 5.898 0 0 0 0.041-6.718l-1.065-1.31-2.949-2.99c-5.94-5.038-10.895-11.06-15.893-17.08-14.868-19.047-22.773-40.141-22.773-61.195 0-53.002 42.025-97.649 93.634-101.99l6.513-0.369h0.983c55.542 0 101.171 46.162 101.171 101.335 0 22.119-7.946 42.189-22.815 61.235a193.74 193.74 0 0 1-10.24 11.715l-5.652 5.325-2.95 2.007c-1.638 1.638-2.539 4.505-1.842 6.594l0.819 1.434 17.858 23.06c2.007 2.048 5.94 3.031 7.947 1.024 0 0 2.99-2.048 4.956-4.014 6.963-7.045 13.885-14.049 20.807-22.077 19.866-25.068 30.72-54.19 30.72-86.303a141.066 141.066 0 0 0-100.638-134.43l-7.414-2.049h-1.966v-4.997c0-5.243-2.826-9.953-7.127-11.55l-2.294-0.533z" p-id="1575" ></path></svg>
