<?xml version="1.0" standalone="no"?><!DOCTYPE svg PUBLIC "-//W3C//DTD SVG 1.1//EN" "http://www.w3.org/Graphics/SVG/1.1/DTD/svg11.dtd"><svg t="1655869191663" class="icon" viewBox="0 0 1177 1024" version="1.1" xmlns="http://www.w3.org/2000/svg" p-id="1236" xmlns:xlink="http://www.w3.org/1999/xlink" width="229.8828125" height="200"><defs><style type="text/css">@font-face { font-family: feedback-iconfont; src: url("") format("woff2"), url("") format("woff"), url("") format("truetype"); }
</style></defs><path d="M1024.8704 652.6976h-294.0416c-16.0256 0-30.208 9.216-34.6112 22.6304-14.0288 43.1616-59.3408 72.9088-110.8992 72.9088s-96.8704-29.7472-110.8992-72.9088c-4.4544-13.4144-18.5856-22.6304-34.6112-22.6304H152.7296c-39.2704 0-71.0656 27.648-71.0656 61.8496v182.6304c0 34.1504 31.7952 61.7984 71.0656 61.7984h872.1408c39.2704 0 71.0656-27.648 71.0656-61.7984v-182.6304c0-34.1504-31.7952-61.8496-71.0656-61.8496z m-280.064-510.464v3.328c-4.9664-2.048-4.9664-2.6624 0-3.328-4.9664-1.3312 0-2.048 0-3.328v3.328z" p-id="1237" ></path><path d="M973.568 65.024H388.7104a38.8608 38.8608 0 0 0-39.1168 37.888v501.248h155.4944a77.824 77.824 0 0 0 78.08 77.2608 77.312 77.312 0 0 0 78.08-77.2096h351.3856V102.912a38.4 38.4 0 0 0-39.0656-37.9392z m-458.8032 168.3456h332.9024c15.9232 0 27.6992 11.264 28.416 24.6784 0.6656 13.4144-13.568 24.7296-28.416 24.7296h-332.9024c-15.9232 0-27.7504-11.264-28.416-24.7296-0.7168-13.3632 13.568-24.6784 28.416-24.6784z m333.2096 222.1056h-332.8512c-15.9744 0-27.7504-11.264-28.4672-24.6784-0.6656-13.4144 13.568-24.7296 28.4672-24.7296h332.8512c15.9744 0 27.7504 11.3152 28.4672 24.7296 0.6656 13.3632-13.568 24.6784-28.4672 24.6784zM223.488 142.2336h48.128V604.16H154.4704V202.1888c0-33.1264 30.9248-59.9552 69.0176-59.9552z" p-id="1238" ></path></svg>
