<?xml version="1.0" standalone="no"?><!DOCTYPE svg PUBLIC "-//W3C//DTD SVG 1.1//EN" "http://www.w3.org/Graphics/SVG/1.1/DTD/svg11.dtd"><svg t="1655868482527" class="icon" viewBox="0 0 1024 1024" version="1.1" xmlns="http://www.w3.org/2000/svg" p-id="5657" xmlns:xlink="http://www.w3.org/1999/xlink" width="200" height="200"><defs><style type="text/css">@font-face { font-family: feedback-iconfont; src: url("") format("woff2"), url("") format("woff"), url("") format("truetype"); }
</style></defs><path d="M915.82 142.44L97.84 458.18c-46.13 17.76-44.89 43.66 2.47 57.72l197.59 58.71 80.42 239.03c10.61 31.33 37.99 37.99 61.42 14.55l103.6-102.62 204.74 149.98c26.64 19.49 54.02 9.13 61.18-23.19L958.5 179.43c7.15-32.31-11.85-48.83-42.68-36.99zM791.49 294.63l-348.8 310.81c-6.17 5.67-11.84 16.78-12.83 24.91l-15.29 144.8c-1.73 16.28-7.4 17.02-12.58 1.23L334.4 572.89c-2.71-7.89 0.99-17.76 8.14-21.95l442.54-265.42c27.87-16.78 30.83-12.84 6.41 9.11z" p-id="5658" ></path></svg>
