<?xml version="1.0" standalone="no"?><!DOCTYPE svg PUBLIC "-//W3C//DTD SVG 1.1//EN" "http://www.w3.org/Graphics/SVG/1.1/DTD/svg11.dtd"><svg t="1655868402685" class="icon" viewBox="0 0 1024 1024" version="1.1" xmlns="http://www.w3.org/2000/svg" p-id="4448" xmlns:xlink="http://www.w3.org/1999/xlink" width="200" height="200"><defs><style type="text/css">@font-face { font-family: feedback-iconfont; src: url("") format("woff2"), url("") format("woff"), url("") format("truetype"); }
</style></defs><path d="M511.75 152.42c-64.6 0-124.53 16.21-179.79 48.39s-99.23 76.14-131.4 131.41C168.39 387.47 152.18 447.4 152.18 512c0 51.83 10.56 100.95 31.44 147.12 21.12 46.17 50.35 86.21 88.42 119.86l-33.65 88.42c-54.77-40.77-97.51-92.11-128.21-154.49C79.23 650.52 64 583.72 64 512c0-58.95 11.3-115.93 33.65-171.44 22.35-55.26 54.77-104.14 96.77-146.14s90.88-74.18 146.14-96.77C395.82 75.3 453.05 64 512 64s115.93 11.3 171.44 33.65c55.26 22.35 104.14 54.77 146.14 96.77s74.18 90.88 96.77 146.14C948.7 395.82 960 453.05 960 512c0 71.47-15.47 138.52-46.18 200.91-30.95 62.39-73.68 113.96-128.21 154.49l-33.65-88.42c37.82-33.65 67.3-73.68 88.42-119.86 21.12-46.17 31.44-95.3 31.44-147.12 0-64.59-16.21-124.28-48.39-179.79-32.18-55.26-76.14-99.23-131.4-131.41-55.75-32.17-115.68-48.38-180.28-48.38z m0 180.77c-49.12 0-91.12 17.44-126.25 52.56s-52.56 77.12-52.56 126.24c0 22.35 4.18 44.21 12.53 65.09l-40.04 107.34c-42-50.35-63.12-107.82-63.12-172.42 0-49.12 12.04-94.32 35.86-135.58 23.82-41.26 56.49-73.93 97.75-97.75s86.46-35.86 135.58-35.86 94.32 12.03 135.58 35.86c41.26 23.82 73.93 56.49 97.75 97.75 23.82 41.26 35.86 86.46 35.86 135.58 0 64.59-21.12 122.07-63.12 172.42l-40.04-107.34c8.35-21.13 12.53-42.74 12.53-65.09 0-49.12-17.44-91.12-52.56-126.24-34.62-34.88-76.62-52.56-125.75-52.56z m0 88.42c25.3 0 46.67 8.84 64.11 26.28 17.44 17.44 26.28 38.81 26.28 64.11 0 21.13-7.12 40.77-21.12 58.95L722 960h-94.56L511.75 644.63 396.07 960h-94.56l140.98-389.05c-14-18.18-21.12-37.83-21.12-58.95 0-25.3 8.84-46.66 26.28-64.11 17.44-17.44 38.81-26.28 64.1-26.28z" p-id="4449" ></path></svg>
