<?xml version="1.0" standalone="no"?><!DOCTYPE svg PUBLIC "-//W3C//DTD SVG 1.1//EN" "http://www.w3.org/Graphics/SVG/1.1/DTD/svg11.dtd"><svg t="1655867714461" class="icon" viewBox="0 0 1024 1024" version="1.1" xmlns="http://www.w3.org/2000/svg" p-id="2758" xmlns:xlink="http://www.w3.org/1999/xlink" width="200" height="200"><defs><style type="text/css">@font-face { font-family: feedback-iconfont; src: url("") format("woff2"), url("") format("woff"), url("") format("truetype"); }
</style></defs><path d="M275.575 774.716c0-25.582-20.323-46.32-45.394-46.32H109.46c-25.07 0-45.394 20.738-45.394 46.32s20.323 46.32 45.394 46.32h120.853c25 0 45.394-20.743 45.394-46.32h-0.132zM109.46 295.803h120.787c25.089 0 45.427-20.753 45.427-46.354 0-25.6-20.338-46.354-45.427-46.354H109.394c-25.07 0-45.394 20.739-45.394 46.32 0 25.583 20.324 46.321 45.394 46.321l0.066 0.067zM64.066 512.1c0 25.644 20.394 46.32 45.394 46.32h120.787c25.089 0 45.427-20.753 45.427-46.353s-20.338-46.354-45.427-46.354H109.46c-25.02 0.074-45.263 20.79-45.263 46.32l-0.131 0.067z" p-id="2759" ></path><path d="M897.501 64C931.974 64 960 84.743 960 110.32v803.491c0 25.577-28.026 46.32-62.499 46.188h-697.45c-25.066 0-45.329-20.678-45.329-46.322v-46.32h75.525c50.09-0.074 90.657-41.53 90.657-92.641 0.036-51.138-40.542-92.634-90.657-92.708h-75.525v-77.335h75.525c50.065 0 90.657-41.42 90.657-92.64 0-51.112-40.567-92.567-90.657-92.641h-75.525v-77.268h75.525c50.115-0.074 90.693-41.57 90.657-92.708 0-51.154-40.592-92.775-90.657-92.775h-75.525v-46.32c0-25.53 20.244-46.247 45.263-46.321zM491.474 355.974c-44.093 58.37-47.381 139.176-8.186 201.151L608.96 729.943c2.846 5.889 8.677 9.611 15.057 9.611 6.38 0 12.211-3.722 15.057-9.611l125.907-172.818C781.94 529.849 792 497.437 792 462.457c0-73.994-45.564-139.82-113.415-163.861-67.851-24.041-143.017-0.991-187.11 57.378zM624 383.44c42.295 0 76.58 35.362 76.58 78.982 0 43.621-34.285 78.983-76.58 78.983-42.294 0-76.58-35.362-76.58-78.983 0-43.62 34.286-78.982 76.58-78.982z" p-id="2760" ></path></svg>
