<svg width="19" height="18" viewBox="0 0 19 18" fill="none" xmlns="http://www.w3.org/2000/svg">
<mask id="mask0_1_283" style="mask-type:alpha" maskUnits="userSpaceOnUse" x="0" y="0" width="19" height="18">
<path d="M18.0026 0H0V18H18.0026V0Z" fill="white"/>
</mask>
<g mask="url(#mask0_1_283)">
<path d="M9.85591 3.46535C10.4526 3.60917 10.7406 4.30787 10.6069 4.90402C10.4629 5.50017 9.90735 6.00365 9.31069 5.85961C8.71403 5.71579 8.48759 5.0272 8.62148 4.43149C8.76526 3.83534 9.25925 3.32153 9.85591 3.46535ZM7.29428 7.87357C7.29428 7.87357 9.09458 6.3014 9.79413 6.60969C10.2675 6.73287 10.0102 8.86013 9.93813 9.14777C9.91746 9.40468 9.50591 12.6415 9.60902 12.7853C9.75302 13.3197 9.91768 12.8984 10.4218 12.477C10.4218 12.477 11.605 11.6755 10.3396 13.3399C9.29025 14.46 8.27171 14.3162 8.11738 13.4736C7.99382 12.8367 8.49793 8.98331 8.62148 8.12015C8.66259 7.83251 8.30248 8.12015 8.30248 8.12015C8.30248 8.12015 7.32506 8.7264 7.0885 8.31536C7.02673 8.20227 7.11928 8.02771 7.29428 7.87357Z" fill="#333333"/>
</g>
<mask id="mask1_1_283" style="mask-type:alpha" maskUnits="userSpaceOnUse" x="0" y="0" width="19" height="18">
<path d="M18.0026 0H0V18H18.0026V0Z" fill="white"/>
</mask>
<g mask="url(#mask1_1_283)">
<path d="M9.00198 -0.00396729C4.05086 -0.00396729 0 4.04195 0 8.98703C0 13.9321 4.05086 17.978 9.00198 17.978C13.9531 17.978 18.004 13.9321 18.004 8.98703C18.004 4.04195 13.9531 -0.00396729 9.00198 -0.00396729ZM9.00198 16.5732C4.80712 16.5732 1.40657 13.1768 1.40657 8.98703C1.40657 4.79729 4.80712 1.40088 9.00198 1.40088C13.1968 1.40088 16.5974 4.79729 16.5974 8.98703C16.5974 13.1768 13.1968 16.5732 9.00198 16.5732Z" fill="#333333"/>
</g>
</svg>
