<?xml version="1.0" standalone="no"?><!DOCTYPE svg PUBLIC "-//W3C//DTD SVG 1.1//EN" "http://www.w3.org/Graphics/SVG/1.1/DTD/svg11.dtd"><svg t="1655867665036" class="icon" viewBox="0 0 1024 1024" version="1.1" xmlns="http://www.w3.org/2000/svg" p-id="1736" xmlns:xlink="http://www.w3.org/1999/xlink" width="200" height="200"><defs><style type="text/css">@font-face { font-family: feedback-iconfont; src: url("") format("woff2"), url("") format("woff"), url("") format("truetype"); }
</style></defs><path d="M760.886 64c79.912 0 135.27 59.733 135.27 125.43v191.124l-461.057 459.98V960H199.27c-74.443-0.65-134.6-59.191-135.27-131.5v-633c0.67-72.309 60.827-130.85 135.27-131.5h561.616zM342.687 518.342h-137.39l-0.548 0.004c-18.051 0.285-32.6 14.592-32.6 32.193 0 17.78 14.844 32.198 33.148 32.198h137.39l0.548-0.004c18.052-0.285 32.6-14.592 32.6-32.194 0-17.779-14.844-32.197-33.148-32.197zM525.28 385.758c-6.25-10.19-17.745-16.262-29.8-15.72H205.298l-0.48-0.013c-11.984-0.263-23.152 5.676-29.32 15.733-6.25 10.19-6.25 22.766 0 32.848 6.25 10.19 17.634 16.153 29.8 15.719H495.48l0.48 0.014c11.984 0.262 23.152-5.677 29.32-15.733 6.25-10.19 6.25-22.766 0-32.848z m72.1-164.131H205.297l-0.486 0.003c-11.643 0.167-22.363 6.311-28.198 16.041-5.915 9.974-5.915 22.224 0 32.198 5.916 9.973 16.853 16.044 28.684 16.044h391.97l0.548-0.004c18.051-0.285 32.6-14.592 32.6-32.193 0-17.671-14.844-32.09-33.036-32.09z" p-id="1737" ></path><path d="M781.757 589.675l98.439 95.617L597.267 960h-98.439v-95.617l282.929-274.708z m93.193-77.728l0.67 0.003c5.58 0.045 11.16 0.538 16.741 5.958l61.497 53.771c5.357 5.204 6.039 10.49 6.125 15.643l0.008 0.643c0.003 0.321 0.004 0.642 0.005 0.962v4.217a18.884 18.884 0 0 1-6.138 14.31l-42.97 47.917-98.327-95.617 42.97-41.737c5.803-5.74 11.606-6.053 17.41-6.07h2.009z" p-id="1738" ></path></svg>
