<?xml version="1.0" standalone="no"?><!DOCTYPE svg PUBLIC "-//W3C//DTD SVG 1.1//EN" "http://www.w3.org/Graphics/SVG/1.1/DTD/svg11.dtd"><svg t="1655867749576" class="icon" viewBox="0 0 1024 1024" version="1.1" xmlns="http://www.w3.org/2000/svg" p-id="4079" xmlns:xlink="http://www.w3.org/1999/xlink" width="200" height="200"><defs><style type="text/css">@font-face { font-family: feedback-iconfont; src: url("") format("woff2"), url("") format("woff"), url("") format("truetype"); }
</style></defs><path d="M957.553 770.04l-130.47-221.67c22.304-44.272 31.883-94.928 31.883-142.443C858.966 215.967 703.033 64 512.065 64c-190.968 0-346.9 151.967-346.9 341.927 0 50.656 9.572 98.17 31.778 142.444L66.368 770.04c-3.157 3.14-3.157 9.522 0 15.804 3.159 6.382 6.316 9.524 12.731 9.524 0 0 82.703 15.804 165.506 34.85l111.424 123.498c3.157 3.141 9.572 6.283 12.73 6.283 6.317 0 9.573-3.142 12.732-6.283l117.738-202.623h25.463l117.74 202.623c3.156 3.141 6.315 6.283 12.73 6.283 3.158 0 9.573-3.142 12.732-6.283L779.316 830.22c85.96-15.805 165.506-34.85 165.506-34.85 6.315 0 9.573-3.142 12.73-9.524 3.264-6.381 3.264-12.664 0-15.804zM511.96 149.508c140.044 0 254.625 113.976 254.625 253.28 0 139.303-114.581 253.278-254.625 253.278-140.043 0-254.624-113.975-254.624-253.279 0-139.303 114.581-253.279 254.624-253.279z" p-id="4080" ></path><path d="M319 402c0 106.574 86.353 193 192.849 193C618.344 595 704.896 508.673 705 402.104v-0.203C705 295.327 618.647 209 512.051 209 405.451 209 319 295.43 319 402c0-0.1 0 0 0 0z" p-id="4081" ></path></svg>
