<?xml version="1.0" standalone="no"?><!DOCTYPE svg PUBLIC "-//W3C//DTD SVG 1.1//EN" "http://www.w3.org/Graphics/SVG/1.1/DTD/svg11.dtd"><svg t="1655867696497" class="icon" viewBox="0 0 1024 1024" version="1.1" xmlns="http://www.w3.org/2000/svg" p-id="1951" xmlns:xlink="http://www.w3.org/1999/xlink" width="200" height="200"><defs><style type="text/css">@font-face { font-family: feedback-iconfont; src: url("") format("woff2"), url("") format("woff"), url("") format("truetype"); }
</style></defs><path d="M627.284 64c65.602 0 118.781 55.447 118.781 123.836v83.85H865.68c52.054 0 94.32 44.067 94.32 98.339v86.102H64v-86.102c0-54.272 42.272-98.339 94.325-98.339h119.614v-83.85c0-32.844 12.517-64.338 34.79-87.566C335 77.05 365.213 64 396.716 64h230.568z m0 72.847H396.716c-27.01 0-48.906 22.828-48.906 50.99v84.091h328.386v-84.092c0-13.525-5.158-26.491-14.326-36.052-9.17-9.565-21.615-14.937-34.586-14.937z" p-id="1952" ></path><path d="M64 529.848h895.934v331.815c0 54.309-42.23 98.337-94.326 98.337H158.39c-52.088 0-94.319-44.028-94.319-98.337V529.848H64z m330.064 110.58c-12.634 0-24.305 7.028-30.62 18.432-6.314 11.405-6.314 25.453 0 36.858 6.315 11.404 17.986 18.432 30.62 18.432H629.87c12.628 0 24.305-7.028 30.62-18.432 6.314-11.405 6.314-25.453 0-36.858-6.315-11.404-17.992-18.432-30.62-18.432H394.064z" p-id="1953" ></path></svg>
