<?xml version="1.0" standalone="no"?><!DOCTYPE svg PUBLIC "-//W3C//DTD SVG 1.1//EN" "http://www.w3.org/Graphics/SVG/1.1/DTD/svg11.dtd"><svg t="1655867702479" class="icon" viewBox="0 0 1024 1024" version="1.1" xmlns="http://www.w3.org/2000/svg" p-id="2220" xmlns:xlink="http://www.w3.org/1999/xlink" width="200" height="200"><defs><style type="text/css">@font-face { font-family: feedback-iconfont; src: url("") format("woff2"), url("") format("woff"), url("") format("truetype"); }
</style></defs><path d="M942.325 252.65C953.7 263.937 960 279.338 960 295.35c0 16.013-6.388 31.412-17.675 42.7L771.437 509.025C760.15 520.4 744.75 526.7 728.737 526.7c-16.012 0-31.412-6.387-42.7-17.675L515.063 338.138c-11.375-11.288-17.675-26.688-17.675-42.7 0-16.013 6.388-31.413 17.675-42.7L685.95 81.763C697.325 70.388 712.638 64 728.65 64c16.013 0 31.413 6.388 42.7 17.675L942.325 252.65z" p-id="2221" ></path><path d="M408.837 615.163c11.375 11.287 17.675 26.687 17.675 42.7v241.762c0 16.013-6.387 31.413-17.675 42.7C397.462 953.7 382.15 960 366.137 960H124.463c-16.013 0-31.413-6.388-42.7-17.675C70.386 931.037 64 915.637 64 899.625V657.95c0-16.013 6.388-31.413 17.675-42.7 11.287-11.288 26.687-17.676 42.7-17.676H366.05a60.08 60.08 0 0 1 42.787 17.589z m440.738-17.676c33.337 0 60.375 27.038 60.375 60.375v241.763c0 16.013-6.388 31.413-17.675 42.7C880.9 953.7 865.587 960 849.575 960H607.812c-16.012 0-31.412-6.388-42.7-17.675-11.287-11.375-17.675-26.688-17.675-42.7V657.95c0-16.013 6.388-31.413 17.675-42.7 11.375-11.375 26.688-17.675 42.7-17.675l241.763-0.088zM366.137 114.05c16.013 0 31.413 6.388 42.7 17.675 11.375 11.375 17.675 26.688 17.675 42.7V416.1c0 16.012-6.387 31.412-17.675 42.7-11.375 11.375-26.687 17.675-42.7 17.675H124.463c-16.013 0-31.413-6.388-42.7-17.675C70.386 447.6 64 432.288 64 416.187V174.512c0-16.012 6.388-31.412 17.675-42.7 11.375-11.375 26.687-17.675 42.7-17.675l241.762-0.087z" p-id="2222" ></path></svg>
