<?xml version="1.0" standalone="no"?><!DOCTYPE svg PUBLIC "-//W3C//DTD SVG 1.1//EN" "http://www.w3.org/Graphics/SVG/1.1/DTD/svg11.dtd"><svg t="1655868722308" class="icon" viewBox="0 0 1024 1024" version="1.1" xmlns="http://www.w3.org/2000/svg" p-id="27351" xmlns:xlink="http://www.w3.org/1999/xlink" width="200" height="200"><defs><style type="text/css">@font-face { font-family: feedback-iconfont; src: url("") format("woff2"), url("") format("woff"), url("") format("truetype"); }
</style></defs><path d="M128 128h768a42.666667 42.666667 0 0 1 42.666667 42.666667v682.666666a42.666667 42.666667 0 0 1-42.666667 42.666667H128a42.666667 42.666667 0 0 1-42.666667-42.666667V170.666667a42.666667 42.666667 0 0 1 42.666667-42.666667z m574.464 534.869333L853.333333 512l-150.869333-150.869333L642.133333 421.546667 732.672 512l-90.538667 90.496 60.330667 60.373333zM291.328 512L381.866667 421.504 321.536 361.130667 170.666667 512l150.869333 150.869333L381.866667 602.453333 291.328 512z m188.416 213.333333l155.306667-426.666666h-90.794667l-155.306667 426.666666h90.794667z" p-id="27352" ></path></svg>
