<?xml version="1.0" standalone="no"?><!DOCTYPE svg PUBLIC "-//W3C//DTD SVG 1.1//EN" "http://www.w3.org/Graphics/SVG/1.1/DTD/svg11.dtd"><svg t="1655867769211" class="icon" viewBox="0 0 1024 1024" version="1.1" xmlns="http://www.w3.org/2000/svg" p-id="4874" xmlns:xlink="http://www.w3.org/1999/xlink" width="200" height="200"><defs><style type="text/css">@font-face { font-family: feedback-iconfont; src: url("") format("woff2"), url("") format("woff"), url("") format("truetype"); }
</style></defs><path d="M554.667 64c21.333 0 36.571 18.602 36.571 40.304v812.291c0 21.703-15.238 37.204-36.571 37.204H100.57C79.238 953.8 64 938.298 64 916.595v-815.39C64 79.501 79.238 64 100.571 64zM283.429 597.26H149.333c-6.095 0-12.19 6.2-12.19 12.4v74.41c0 6.2 6.095 12.4 12.19 12.4H283.43c6.095 0 12.19-6.2 12.19-12.4v-74.41c0-6.2-6.095-12.4-12.19-12.4z m222.476 0H371.81c-6.096 0-12.191 6.2-12.191 12.4v74.41c0 6.2 6.095 12.4 12.19 12.4h134.096c6.095 0 12.19-6.2 12.19-12.4v-74.41c0-6.2-6.095-12.4-12.19-12.4zM283.429 401.938H149.333c-6.095 0-12.19 6.2-12.19 12.401v74.408c0 6.201 6.095 12.402 12.19 12.402H283.43c6.095 0 12.19-6.2 12.19-12.402V414.34c0-6.2-6.095-12.401-12.19-12.401z m222.476 0H371.81c-6.096 0-12.191 6.2-12.191 12.401v74.408c0 6.201 6.095 12.402 12.19 12.402h134.096c6.095 0 12.19-6.2 12.19-12.402V414.34c0-6.2-6.095-12.401-12.19-12.401zM286.476 206.616H152.381c-6.095 0-12.19 6.2-12.19 12.401v74.409c0 6.2 3.047 12.401 9.142 12.401H283.43c6.095 0 12.19-6.2 12.19-12.401h3.048v-74.409c0-6.2-6.096-12.401-12.19-12.401z m219.429 0H371.81c-6.096 0-12.191 6.2-12.191 12.401v74.409c0 6.2 6.095 12.401 12.19 12.401h134.096c6.095 0 12.19-6.2 12.19-12.401v-74.409c0-6.2-6.095-12.401-12.19-12.401z" p-id="4875" ></path><path d="M935.619 485.647c15.238 0 24.381 9.301 21.333 24.803v424.747c0 15.502-12.19 24.803-24.38 24.803h-85.334V783.28c0-6.2-6.095-12.401-12.19-12.401h-97.524c-6.095 0-12.19 6.2-12.19 12.401V960h-88.382c-15.238 0-24.38-12.401-24.38-24.803V510.45c0-15.502 12.19-24.803 24.38-24.803z m12.19-99.211c6.096 0 12.191 6.2 12.191 12.401v34.104c0 6.2-6.095 12.402-12.19 12.402H630.857c-6.095 0-12.19-6.201-12.19-12.402v-34.104c0-6.2 6.095-12.401 12.19-12.401z" p-id="4876" ></path></svg>
