<svg width="18" height="18" viewBox="0 0 18 18"  xmlns="http://www.w3.org/2000/svg">
<mask id="mask0_22_177" style="mask-type:alpha" maskUnits="userSpaceOnUse" x="0" y="0" width="18" height="18">
<path d="M18 0H0V18H18V0Z" />
</mask>
<g mask="url(#mask0_22_177)">
<path d="M15.9842 0.00341797C17.0835 0.00341797 17.9828 0.812123 17.9828 1.80063V16.1775C17.9828 17.166 17.0835 17.9747 15.9842 17.9747H3.99361C2.89437 17.9747 1.99507 17.166 1.99507 16.1775V13.4818H2.99419C4.09343 13.4818 4.99273 12.6731 4.99273 11.6846C4.99273 10.6961 4.09343 9.88741 2.99419 9.88741H1.99536V8.09047H2.99448C4.09372 8.09047 4.99302 7.28176 4.99302 6.29326C4.99302 5.30475 4.09372 4.49605 2.99448 4.49605H1.99536V1.80063C1.99536 0.812123 2.89466 0.00341797 3.9939 0.00341797H15.9842ZM14.9851 4.49631C14.4854 4.49631 14.0858 4.85565 13.986 5.30502V12.5834C13.986 13.1225 14.3856 13.4818 14.9851 13.4818C15.4848 13.4818 15.8844 13.1225 15.9842 12.6731V5.39478C15.9842 4.85565 15.5847 4.49631 14.9851 4.49631ZM2.99448 10.7864C3.59402 10.7864 3.9939 11.1457 3.9939 11.6849C3.9939 12.224 3.59402 12.5834 2.99448 12.5834H0.995948C0.396416 12.5834 -0.00317383 12.224 -0.00317383 11.6849C-0.00317383 11.1457 0.396416 10.7864 0.995948 10.7864H2.99448ZM2.99448 5.39478C3.59402 5.39478 3.9939 5.75412 3.9939 6.29326C3.9939 6.83239 3.59402 7.19173 2.99448 7.19173H0.995948C0.396416 7.19199 -0.00317383 6.83266 -0.00317383 6.29352C-0.00317383 5.75438 0.396416 5.39505 0.995948 5.39505H2.99448V5.39478Z" />
</g>
</svg>
