<?xml version="1.0" standalone="no"?><!DOCTYPE svg PUBLIC "-//W3C//DTD SVG 1.1//EN" "http://www.w3.org/Graphics/SVG/1.1/DTD/svg11.dtd"><svg t="1655867760749" class="icon" viewBox="0 0 1024 1024" version="1.1" xmlns="http://www.w3.org/2000/svg" p-id="4611" xmlns:xlink="http://www.w3.org/1999/xlink" width="200" height="200"><defs><style type="text/css">@font-face { font-family: feedback-iconfont; src: url("") format("woff2"), url("") format("woff"), url("") format("truetype"); }
</style></defs><path d="M696.47 64c58.266 0 105.414 47.148 105.414 105.414v369.763c-8.65-0.617-17.396-0.823-26.353-0.823-130.944 0-237.176 58.984-237.176 131.762v131.767h-368.94C111.147 801.883 64 754.736 64 696.47V169.414C64 111.148 111.148 64 169.414 64z m-52.706 214.117L498.826 423.06l-65.887-65.883-52.702-52.707-210.823 210.823L222.116 568 367.06 423.058l118.588 118.589 210.824-210.823-52.707-52.707z" p-id="4612" ></path><path d="M954.647 861.895c3.498 6.077 5.353 12.46 5.353 19.045 0 43.65-82.559 79.06-184.47 79.06-101.91 0-184.468-35.41-184.468-79.06 0-6.584 1.85-12.968 5.353-19.045 43.543 27.796 107.57 45.398 179.116 45.398 71.541 0 135.673-17.602 179.116-45.398z m0-105.41c3.498 6.072 5.353 12.455 5.353 19.045 0 43.645-82.559 79.055-184.47 79.055-101.91 0-184.468-35.41-184.468-79.055 0-6.589 1.85-12.973 5.353-19.045 43.543 27.796 107.57 45.398 179.116 45.398 71.541 0 135.673-17.602 179.116-45.398zM775.53 591.06c101.91 0 184.469 35.41 184.469 79.055 0 43.65-82.559 79.06-184.47 79.06-101.91 0-184.468-35.41-184.468-79.06 0-43.645 82.558-79.055 184.469-79.055z" p-id="4613" ></path></svg>
