<?xml version="1.0" standalone="no"?><!DOCTYPE svg PUBLIC "-//W3C//DTD SVG 1.1//EN" "http://www.w3.org/Graphics/SVG/1.1/DTD/svg11.dtd"><svg t="1655868783282" class="icon" viewBox="0 0 1024 1024" version="1.1" xmlns="http://www.w3.org/2000/svg" p-id="28053" xmlns:xlink="http://www.w3.org/1999/xlink" width="200" height="200"><defs><style type="text/css">@font-face { font-family: feedback-iconfont; src: url("") format("woff2"), url("") format("woff"), url("") format("truetype"); }
</style></defs><path d="M256 768h512V256H256v512z m341.333333 85.333333h-170.666666v85.333334H341.333333v-85.333334H213.333333a42.666667 42.666667 0 0 1-42.666666-42.666666v-128H85.333333v-85.333334h85.333334v-170.666666H85.333333V341.333333h85.333334V213.333333a42.666667 42.666667 0 0 1 42.666666-42.666666h128V85.333333h85.333334v85.333334h170.666666V85.333333h85.333334v85.333334h128a42.666667 42.666667 0 0 1 42.666666 42.666666v128h85.333334v85.333334h-85.333334v170.666666h85.333334v85.333334h-85.333334v128a42.666667 42.666667 0 0 1-42.666666 42.666666h-128v85.333334h-85.333334v-85.333334zM341.333333 341.333333h341.333334v341.333334H341.333333V341.333333z" p-id="28054" ></path></svg>
