<svg width="61" height="56" viewBox="0 0 61 56" fill="none" xmlns="http://www.w3.org/2000/svg">
<path d="M38.9696 37.2875V40.6763H44.3534C45.3432 40.6763 46.147 41.4357 46.147 42.3737V45.7626C46.147 46.6988 45.3438 47.4576 44.3534 47.4576H26.4108C25.4204 47.4576 24.6172 46.6988 24.6172 45.7626V42.3737C24.6172 41.4357 25.421 40.6763 26.4108 40.6763H31.7946V37.2875H13.852C11.8724 37.2875 10.2648 35.7687 10.2648 33.8986V3.38887C10.2648 1.51879 11.8724 0 13.852 0H56.9123C58.8924 0 60.5001 1.51879 60.5001 3.38887V33.8986C60.5001 35.7693 58.8924 37.2875 56.9123 37.2875H38.9696ZM30.0041 16.9478C29.5273 16.9467 29.0702 17.1258 28.7327 17.4441C28.3952 17.7629 28.2068 18.1948 28.2074 18.6452V27.118H31.7977V18.6481C31.7983 18.1982 31.6099 17.7664 31.273 17.4481C30.9368 17.1299 30.4796 16.9507 30.0035 16.9507V16.9478H30.0041ZM19.2358 20.3396C18.2454 20.3396 17.4422 21.0984 17.4422 22.0341V27.1174H21.0294V22.0341C21.0294 21.5848 20.8404 21.1535 20.5041 20.8358C20.1685 20.5182 19.712 20.3396 19.2358 20.3396ZM40.7632 13.559C39.7728 13.559 38.9696 14.3178 38.9696 15.2534V27.118H42.5598V15.2534C42.5598 14.8036 42.3702 14.3723 42.0334 14.0546C41.6965 13.7364 41.2394 13.5584 40.7632 13.559ZM51.5284 6.78065C50.5374 6.78065 49.7348 7.53946 49.7348 8.47508V27.118H53.322V8.47508C53.3214 7.53946 52.5188 6.78065 51.5284 6.78065ZM15.6455 30.5097C15.0049 30.5097 14.4122 30.8326 14.0919 31.3567C13.7716 31.8813 13.7716 32.5271 14.0919 33.0511C14.4122 33.5757 15.0049 33.8986 15.6455 33.898H55.1211C55.7623 33.898 56.3545 33.5751 56.6748 33.0511C56.9951 32.5271 56.9951 31.8807 56.6748 31.3567C56.3545 30.8326 55.7617 30.5097 55.1211 30.5097H15.6425H15.6455Z" fill="url(#paint0_linear_217_252)"/>
<rect x="13.2784" y="6.64426" width="46.2165" height="28.4749" fill="url(#paint1_linear_217_252)"/>
<g filter="url(#filter0_b_217_252)">
<path d="M28.9226 45.83V49.2189H34.3064C35.2962 49.2189 36.1 49.9783 36.1 50.9162V54.3051C36.1 55.2413 35.2968 56.0001 34.3064 56.0001H16.3638C15.3734 56.0001 14.5702 55.2413 14.5702 54.3051V50.9162C14.5702 49.9783 15.374 49.2189 16.3638 49.2189H21.7476V45.83H3.80496C1.82544 45.83 0.217773 44.3112 0.217773 42.4411V11.9314C0.217773 10.0613 1.82544 8.54251 3.80496 8.54251H46.8653C48.8454 8.54251 50.4531 10.0613 50.4531 11.9314V42.4411C50.4531 44.3118 48.8454 45.83 46.8653 45.83H28.9226ZM19.9571 25.4904C19.4803 25.4892 19.0232 25.6683 18.6857 25.9866C18.3482 26.3054 18.1598 26.7373 18.1604 27.1877V35.6605H21.7507V27.1906C21.7513 26.7408 21.5629 26.3089 21.226 25.9906C20.8898 25.6724 20.4326 25.4933 19.9565 25.4933V25.4904H19.9571ZM9.1888 28.8821C8.19843 28.8821 7.39521 29.6409 7.39521 30.5766V35.6599H10.9824V30.5766C10.9824 30.1273 10.7934 29.696 10.4571 29.3783C10.1215 29.0607 9.66496 28.8821 9.1888 28.8821ZM30.7162 22.1015C29.7258 22.1015 28.9226 22.8603 28.9226 23.7959V35.6605H32.5128V23.7959C32.5128 23.3461 32.3232 22.9148 31.9864 22.5971C31.6495 22.2789 31.1924 22.1009 30.7162 22.1015ZM41.4814 15.3232C40.4904 15.3232 39.6878 16.082 39.6878 17.0176V35.6605H43.275V17.0176C43.2744 16.082 42.4718 15.3232 41.4814 15.3232ZM5.59855 39.0522C4.95794 39.0522 4.36518 39.3751 4.04488 39.8992C3.72457 40.4238 3.72457 41.0696 4.04488 41.5936C4.36518 42.1182 4.95794 42.4411 5.59855 42.4405H45.0741C45.7154 42.4405 46.3075 42.1176 46.6278 41.5936C46.9481 41.0696 46.9481 40.4232 46.6278 39.8992C46.3075 39.3751 45.7147 39.0522 45.0741 39.0522H5.59548H5.59855Z" fill="url(#paint2_linear_217_252)"/>
<path d="M3.87418 39.7949L3.87423 39.7949C4.23226 39.2091 4.89009 38.8533 5.59548 38.8522L3.87418 39.7949ZM3.87418 39.7949C3.51484 40.3835 3.51477 41.1097 3.87418 41.6978V39.7949ZM5.59873 42.6405C4.89206 42.6412 4.23278 42.2851 3.87423 41.6979L5.59873 42.6405ZM5.59873 42.6405H5.59855V42.4405L5.59873 42.6405ZM5.59873 42.6405H45.0741M5.59873 42.6405H45.0741M45.0741 42.6405C45.7813 42.6405 46.4399 42.2845 46.7984 41.6979M45.0741 42.6405L46.7984 41.6979M46.7984 41.6979C47.1579 41.1098 47.1579 40.3829 46.7984 39.7949M46.7984 41.6979V39.7949M46.7984 39.7949C46.4399 39.2083 45.7807 38.8522 45.0741 38.8522M46.7984 39.7949L45.0741 38.8522M45.0741 38.8522H5.59855H45.0741ZM28.9226 45.63H28.7226V45.83V49.2189V49.4189H28.9226H34.3064C35.1964 49.4189 35.9 50.0991 35.9 50.9162V54.3051C35.9 55.1203 35.1972 55.8001 34.3064 55.8001H16.3638C15.473 55.8001 14.7702 55.1203 14.7702 54.3051V50.9162C14.7702 50.0991 15.4738 49.4189 16.3638 49.4189H21.7476H21.9476V49.2189V45.83V45.63H21.7476H3.80496C1.92503 45.63 0.417773 44.1902 0.417773 42.4411V11.9314C0.417773 10.1823 1.92503 8.74251 3.80496 8.74251H46.8653C48.7458 8.74251 50.2531 10.1823 50.2531 11.9314V42.4411C50.2531 44.1907 48.7458 45.63 46.8653 45.63H28.9226ZM18.5483 25.8412C18.172 26.1967 17.9597 26.6808 17.9604 27.188L19.9567 25.2904C19.9539 25.2904 19.9511 25.2904 19.9483 25.2904H19.7565V25.2996C19.3033 25.3423 18.876 25.5322 18.5485 25.8411L18.5483 25.8412ZM21.3635 25.8454C20.9892 25.4911 20.4829 25.2935 19.9576 25.2933L19.9576 25.2904C19.9574 25.2904 19.9573 25.2904 19.9571 25.2904L21.3635 25.8454ZM7.19521 35.6599V35.8599H7.39521H10.9824H11.1824V35.6599V30.5766C11.1824 30.0706 10.9695 29.5873 10.5946 29.2331C10.2206 28.8791 9.71435 28.6821 9.1888 28.6821C8.09884 28.6821 7.19521 29.5199 7.19521 30.5766V35.6599ZM32.7128 23.7959C32.7128 23.2892 32.4992 22.8059 32.1237 22.4517L30.7162 22.1015V21.9015C30.7161 21.9015 30.716 21.9015 30.7159 21.9015C29.6261 21.9016 28.7226 22.7394 28.7226 23.7959V35.6605V35.8605H28.9226H32.5128H32.7128V35.6605V23.7959ZM39.4878 35.6605V35.8605H39.6878H43.275H43.475V35.6605V17.0176V17.0175C43.4743 15.961 42.5715 15.1232 41.4814 15.1232C40.3908 15.1232 39.4878 15.961 39.4878 17.0176V35.6605Z" stroke="url(#paint3_linear_217_252)" stroke-width="0.4"/>
</g>
<defs>
<filter id="filter0_b_217_252" x="-9.78223" y="-1.45749" width="70.2352" height="67.4576" filterUnits="userSpaceOnUse" color-interpolation-filters="sRGB">
<feFlood flood-opacity="0" result="BackgroundImageFix"/>
<feGaussianBlur in="BackgroundImageFix" stdDeviation="5"/>
<feComposite in2="SourceAlpha" operator="in" result="effect1_backgroundBlur_217_252"/>
<feBlend mode="normal" in="SourceGraphic" in2="effect1_backgroundBlur_217_252" result="shape"/>
</filter>
<linearGradient id="paint0_linear_217_252" x1="35.3824" y1="0" x2="35.3824" y2="47.4576" gradientUnits="userSpaceOnUse">
<stop stop-color="#59A5FF"/>
<stop offset="1" stop-color="#2774FE"/>
</linearGradient>
<linearGradient id="paint1_linear_217_252" x1="36.3867" y1="6.64426" x2="36.3867" y2="35.1191" gradientUnits="userSpaceOnUse">
<stop stop-color="#529EFF"/>
<stop offset="1" stop-color="#3481FF"/>
</linearGradient>
<linearGradient id="paint2_linear_217_252" x1="25.3354" y1="8.54251" x2="25.3354" y2="56.0001" gradientUnits="userSpaceOnUse">
<stop stop-color="white" stop-opacity="0.1"/>
<stop offset="1" stop-color="white" stop-opacity="0.4"/>
</linearGradient>
<linearGradient id="paint3_linear_217_252" x1="25.3354" y1="8.54251" x2="25.3354" y2="56.0001" gradientUnits="userSpaceOnUse">
<stop stop-color="#E0EEFF" stop-opacity="0.4"/>
<stop offset="1" stop-color="#A0CDFF" stop-opacity="0.8"/>
</linearGradient>
</defs>
</svg>
