<svg width="60" height="51" viewBox="0 0 60 51" fill="none" xmlns="http://www.w3.org/2000/svg">
<path d="M0 39.7142C0 37.5051 1.79086 35.7142 4 35.7142H56C58.2091 35.7142 60 37.5051 60 39.7142V45.9999C60 48.2091 58.2091 49.9999 56 49.9999H4C1.79086 49.9999 0 48.2091 0 45.9999V39.7142Z" fill="#FFA800"/>
<g filter="url(#filter0_d_217_230)">
<g filter="url(#filter1_b_217_230)">
<mask id="mask0_217_230" style="mask-type:alpha" maskUnits="userSpaceOnUse" x="8" y="0" width="44" height="43">
<path d="M51.0443 0H8.95471V42.8571H51.0443V0Z" fill="white"/>
</mask>
<g mask="url(#mask0_217_230)">
<path d="M47.7296 15.3528C49.5392 15.3528 51.0078 16.7719 51.0078 18.5206V39.6291C51.0078 41.3778 49.5392 42.7969 47.7296 42.7969H43.3622C41.5526 42.7969 40.0834 41.3778 40.0834 39.6291V18.5169C40.0834 16.7682 41.552 15.3484 43.3622 15.3484H47.7296V15.3528ZM17.1465 19.5726C18.9561 19.5726 20.4247 20.9918 20.4247 22.7404V39.6247C20.4247 41.3734 18.9561 42.7932 17.1465 42.7932H12.7797C10.9701 42.7932 9.50154 41.374 9.50154 39.6247V22.7367C9.50154 20.988 10.9701 19.5682 12.7797 19.5682H17.1465V19.5726ZM32.4377 23.7924C34.2473 23.7924 35.7159 25.2116 35.7159 26.9602V39.6247C35.7159 41.3734 34.2473 42.7932 32.4377 42.7932H28.071C26.2607 42.7932 24.7921 41.374 24.7921 39.6247V26.9609C24.7921 25.2122 26.2607 23.793 28.071 23.793H32.4377V23.7924ZM43.7467 3.23943L41.1674 3.25575C40.2646 3.26077 39.5261 2.55904 39.5176 1.68219C39.5085 0.814126 40.2393 0.100468 41.1421 0.0916807L47.716 0.0452333C48.1395 0.0414673 48.563 0.195873 48.8865 0.50908C49.0462 0.663486 49.167 0.842999 49.245 1.03067C49.3184 1.19763 49.3658 1.40602 49.3658 1.62821V7.98962C49.3658 8.86208 48.6318 9.57197 47.729 9.57197C46.8261 9.57197 46.0915 8.86271 46.0915 7.98962V5.45196L31.4141 19.6347C30.9347 20.098 30.2092 20.2279 29.5915 19.9599L9.92893 11.5203C9.10403 11.165 8.72795 10.2304 9.09558 9.42886C9.46257 8.63173 10.4304 8.2683 11.2598 8.62356L29.8896 16.6251L43.7467 3.23943Z" fill="url(#paint0_linear_217_230)"/>
</g>
</g>
<g filter="url(#filter2_b_217_230)">
<path d="M40.6634 2.99111L40.3041 3.33811L26.4471 16.7238L26.3514 16.8162L26.2292 16.7637L7.59953 8.76225L40.6634 2.99111ZM40.6634 2.99111L40.1639 2.99427M40.6634 2.99111L40.1639 2.99427M40.1639 2.99427L37.5848 3.01059M40.1639 2.99427L37.5848 3.01059M37.5848 3.01059C36.7858 3.01503 36.1434 2.39561 36.1361 1.6351L36.1361 1.63493M37.5848 3.01059L36.1361 1.63493M36.1361 1.63493C36.1282 0.885313 36.762 0.254431 37.5622 0.246508C37.5623 0.246507 37.5624 0.246506 37.5625 0.246505L44.1359 0.200063L44.1362 0.200059M36.1361 1.63493L44.1362 0.200059M44.1362 0.200059C44.5102 0.196734 44.8821 0.332956 45.1658 0.607596L45.1659 0.607734M44.1362 0.200059L45.1659 0.607734M45.1659 0.607734C45.3064 0.743442 45.4115 0.900213 45.4787 1.06221L45.4787 1.06223M45.1659 0.607734L45.4787 1.06223M45.4787 1.06223L45.4804 1.06599M45.4787 1.06223L45.4804 1.06599M45.4804 1.06599C45.5425 1.20726 45.5843 1.3882 45.5843 1.58304V7.94446C45.5843 8.70016 44.9462 9.32681 44.1474 9.32681C43.3485 9.32681 42.71 8.70063 42.71 7.94446V5.4068V4.93542M45.4804 1.06599L42.71 4.93542M42.71 4.93542L42.371 5.26297M42.71 4.93542L42.371 5.26297M42.371 5.26297L27.6936 19.4457C27.273 19.8522 26.6339 19.9674 26.0896 19.7312L26.0888 19.7309M42.371 5.26297L26.0888 19.7309M26.0888 19.7309L6.42649 11.2914M26.0888 19.7309L6.42649 11.2914M6.42649 11.2914C5.70014 10.9786 5.37715 10.1622 5.69573 9.46728C6.01581 8.7721 6.86607 8.44821 7.59934 8.76217L6.42649 11.2914ZM43.9481 15.5032V15.5076H44.1481C45.8537 15.5076 47.2263 16.8436 47.2263 18.4755V39.5839C47.2263 41.2157 45.8537 42.5518 44.1481 42.5518H39.7807C38.075 42.5518 36.7018 41.2157 36.7018 39.5839V18.4717C36.7018 16.8398 38.0744 15.5032 39.7807 15.5032H43.9481ZM13.365 19.723V19.7274H13.565C15.2706 19.7274 16.6431 21.0634 16.6431 22.6953V39.5795C16.6431 41.2114 15.2706 42.548 13.565 42.548H9.19817C7.49256 42.548 6.11999 41.212 6.11999 39.5795V22.6915C6.11999 21.0596 7.49258 19.723 9.19817 19.723H13.365ZM28.8562 23.9479H28.9202C30.596 23.9808 31.9344 25.3037 31.9344 26.9151V39.5795C31.9344 41.2114 30.5618 42.548 28.8562 42.548H24.4894C22.7831 42.548 21.4106 41.212 21.4106 39.5795V26.9157C21.4106 25.2839 22.7831 23.9479 24.4894 23.9479H28.8562Z" fill="url(#paint1_linear_217_230)" stroke="url(#paint2_linear_217_230)" stroke-width="0.4"/>
</g>
</g>
<defs>
<filter id="filter0_d_217_230" x="1.37292" y="0" width="53.6349" height="50.7969" filterUnits="userSpaceOnUse" color-interpolation-filters="sRGB">
<feFlood flood-opacity="0" result="BackgroundImageFix"/>
<feColorMatrix in="SourceAlpha" type="matrix" values="0 0 0 0 0 0 0 0 0 0 0 0 0 0 0 0 0 0 127 0" result="hardAlpha"/>
<feOffset dy="4"/>
<feGaussianBlur stdDeviation="2"/>
<feComposite in2="hardAlpha" operator="out"/>
<feColorMatrix type="matrix" values="0 0 0 0 0.716667 0 0 0 0 0.43 0 0 0 0 0 0 0 0 0.16 0"/>
<feBlend mode="normal" in2="BackgroundImageFix" result="effect1_dropShadow_217_230"/>
<feBlend mode="normal" in="SourceGraphic" in2="effect1_dropShadow_217_230" result="shape"/>
</filter>
<filter id="filter1_b_217_230" x="-1.04529" y="-9.95483" width="62.0531" height="62.7518" filterUnits="userSpaceOnUse" color-interpolation-filters="sRGB">
<feFlood flood-opacity="0" result="BackgroundImageFix"/>
<feGaussianBlur in="BackgroundImageFix" stdDeviation="5"/>
<feComposite in2="SourceAlpha" operator="in" result="effect1_backgroundBlur_217_230"/>
<feBlend mode="normal" in="SourceGraphic" in2="effect1_backgroundBlur_217_230" result="shape"/>
</filter>
<filter id="filter2_b_217_230" x="-4.62708" y="-10" width="62.0533" height="62.7518" filterUnits="userSpaceOnUse" color-interpolation-filters="sRGB">
<feFlood flood-opacity="0" result="BackgroundImageFix"/>
<feGaussianBlur in="BackgroundImageFix" stdDeviation="5"/>
<feComposite in2="SourceAlpha" operator="in" result="effect1_backgroundBlur_217_230"/>
<feBlend mode="normal" in="SourceGraphic" in2="effect1_backgroundBlur_217_230" result="shape"/>
</filter>
<linearGradient id="paint0_linear_217_230" x1="29.9811" y1="0.045166" x2="29.9811" y2="42.7969" gradientUnits="userSpaceOnUse">
<stop stop-color="#FFBA79"/>
<stop offset="0.0001" stop-color="#FFD18F"/>
<stop offset="1" stop-color="#FF9046"/>
</linearGradient>
<linearGradient id="paint1_linear_217_230" x1="26.3996" y1="0" x2="26.3996" y2="42.7518" gradientUnits="userSpaceOnUse">
<stop stop-color="white" stop-opacity="0.1"/>
<stop offset="1" stop-color="white" stop-opacity="0.4"/>
</linearGradient>
<linearGradient id="paint2_linear_217_230" x1="26.3996" y1="0" x2="26.3996" y2="42.7518" gradientUnits="userSpaceOnUse">
<stop stop-color="#FFE8C7" stop-opacity="0.4"/>
<stop offset="1" stop-color="#FFC773" stop-opacity="0.8"/>
</linearGradient>
</defs>
</svg>
