<svg xmlns:xlink="http://www.w3.org/1999/xlink" xmlns="http://www.w3.org/2000/svg" version="1.1" viewBox="0 0 600 600" height="600px" width="600px">
    <title>暂无记录</title>
    <defs>
        <linearGradient id="linearGradient-1" y2="100%" x2="40.7922325%" y1="98.8%" x1="92.5182204%">
            <stop offset="0%" stop-opacity="0" stop-color="#E0E5EF"></stop>
            <stop offset="100%" stop-color="#E0E5EF"></stop>
        </linearGradient>
        <linearGradient id="linearGradient-2" y2="100%" x2="40.8959812%" y1="98.8%" x1="92.0391457%">
            <stop offset="0%" stop-opacity="0" stop-color="#E0E5EF"></stop>
            <stop offset="100%" stop-color="#E0E5EF"></stop>
        </linearGradient>
        <linearGradient id="linearGradient-3" y2="67.4197726%" x2="29.5159577%" y1="67.001698%" x1="144.588078%">
            <stop offset="0%" stop-opacity="0" stop-color="#E0E5EF"></stop>
            <stop offset="100%" stop-color="#E0E5EF"></stop>
        </linearGradient>
        <linearGradient id="linearGradient-4" y2="-28.9579615%" x2="95.9201389%" y1="100%" x1="50%">
            <stop offset="0%" stop-color="#A2ABB9"></stop>
            <stop offset="100%" stop-color="#E7EAF0"></stop>
        </linearGradient>
        <linearGradient id="linearGradient-5" y2="100%" x2="62.8223603%" y1="-7.52001321%" x1="62.8223603%">
            <stop offset="0%" stop-color="#A2ABB9"></stop>
            <stop offset="100%" stop-color="#D1D6E2"></stop>
            <stop offset="100%" stop-color="#E7EAF0"></stop>
        </linearGradient>
        <linearGradient id="linearGradient-6" y2="50%" x2="35.0945476%" y1="50%" x1="100%">
            <stop offset="0%" stop-color="#A2ABB9"></stop>
            <stop offset="100%" stop-color="#E7EAF0"></stop>
            <stop offset="100%" stop-color="#E7EAF0"></stop>
        </linearGradient>
    </defs>
    <g fill-rule="evenodd" fill="none" stroke-width="1" stroke="none" id="暂无记录">
        <path opacity="0.60159418" fill="#F3F3FA" id="背景" d="M314.367308,66 C365.402047,66 412.459601,82.7621592 450.168202,110.998683 L435,111 C427.820298,111 422,116.820298 422,124 L422,124 L422,125 C422,132.179702 427.820298,138 435,138 L435,138 L480.178198,137.999242 C488.748983,147.235916 496.533899,157.191223 503.428804,167.762649 L524.876923,167.762791 C532.60891,167.762791 538.876923,174.030804 538.876923,181.762791 L538.876923,182.544186 C538.876923,188.932 534.59881,194.320607 528.751467,196.001125 L509,196 C500.163444,196 493,203.163444 493,212 L493,212 L493,217 C493,225.836556 500.163444,233 509,233 L509,233 L576.901402,232.999959 C583.852284,234.741603 589,241.03011 589,248.52093 L589,249.413953 C589,258.250509 581.836556,265.413953 573,265.413953 L537.819517,265.412835 C538.518998,272.515523 538.876923,279.716616 538.876923,287 C538.876923,409.05493 438.360544,508 314.367308,508 C215.189346,508 131.031537,444.696384 101.318282,356.897256 L92.8924419,356.897674 C89.4862578,356.897674 86.725,354.136417 86.725,350.730233 C86.725,348.131567 88.3322058,345.908285 90.6068281,345.000174 L101,345 C108.179702,345 114,339.179702 114,332 L114,332 L114,331 C114,323.820298 108.179702,318 101,318 L101,318 L92.0490717,318.000249 C92.0414555,317.94684 92.0338587,317.893426 92.0262812,317.840005 L69.8540698,317.837209 C64.1770963,317.837209 59.575,313.235113 59.575,307.55814 C59.575,301.881166 64.1770963,297.27907 69.8540698,297.27907 L90.0963108,297.280676 C89.9378097,293.873341 89.8576923,290.445881 89.8576923,287 C89.8576923,254.369974 97.0416047,223.391611 109.937457,195.513874 L74,195.516279 C58.536027,195.516279 46,182.980252 46,167.516279 L46,165.953488 C46,151.030754 57.6738617,138.834597 72.387455,137.999146 L199,138 C204.522847,138 209,133.522847 209,128 C209,122.477153 204.522847,118 199,118 L199,118 L169.69142,117.999011 C169.935414,117.796407 170.179853,117.594307 170.424735,117.392711 L155.848077,117.395349 C145.354667,117.395349 136.848077,108.888759 136.848077,98.3953488 L136.848077,97.3348837 C136.848077,86.8414735 145.354667,78.3348837 155.848077,78.3348837 L240.230522,78.3331487 C263.439795,70.3435511 288.388251,66 314.367308,66 Z"></path>
        <g fill-rule="nonzero" transform="translate(122.000000, 350.000000)" id="树">
            <path fill="url(#linearGradient-1)" id="路径" d="M58.0342261,43.3864542 C58.1512897,43.8539178 58.297619,44.3505977 58.4732143,44.876494 L58.8244047,46.2788845 C58.9414682,46.746348 59,47.1261621 59,47.4183267 C59,49.0544489 58.5610119,50.500664 57.6830357,51.7569721 C56.8050595,53.0132802 55.6636905,53.933599 54.2589286,54.5179283 C53.7321429,54.5763612 53.1760913,54.6055777 52.5907738,54.6055777 C52.1225198,54.6640106 51.5957341,54.693227 51.0104167,54.693227 L49.3422619,54.693227 L35.6458333,54.8685259 L35.6458333,69.505976 C35.6458333,71.6679947 35.6897321,73.8446215 35.7775297,76.0358565 C35.8653273,78.2270916 35.9677579,80.1992032 36.0848214,81.9521912 C36.2018849,84.0557769 36.3482143,86.0717131 36.5238095,88 L23.8809524,88 L24.1443452,84.5816733 C24.202877,83.2377159 24.2614087,81.4116866 24.3199405,79.1035857 C24.3784723,76.7954847 24.4077382,73.7131474 24.4077381,69.8565737 L24.4077381,56.4462151 C23.4126984,57.3227092 22.3005953,57.7609562 21.0714286,57.7609562 C20.0763889,57.7609562 19.2130457,57.5272244 18.4813989,57.0597609 C17.749752,56.5922974 17.1498016,55.9495352 16.6815476,55.1314741 L6.7604167,54.6055777 C4.82886905,54.1381142 3.21924603,53.1593625 1.93154762,51.6693227 C0.643849205,50.1792828 0,48.4116866 0,46.3665339 C0,46.0159362 0.0292658638,45.6945551 0.0877975915,45.4023904 C0.146329319,45.1102257 0.234126939,44.818061 0.351190452,44.5258964 L2.54613093,39.4422311 C2.66319444,38.1567065 3.02901785,36.9588314 3.64360117,35.8486056 C4.25818448,34.7383798 5.0337301,33.7742364 5.97023803,32.9561753 L19.7544642,7.45019919 L19.8422618,7.45019919 C20.954365,5.40504648 22.2713292,3.65205843 23.7931546,2.19123506 C25.31498,0.730411687 27.2757935,0 29.6755951,0 C31.7827379,0 33.6703867,0.55511288 35.3385415,1.66533864 C37.0066963,2.7755644 38.2504959,4.23638777 39.0699404,6.04780876 L50.1324403,27.6972112 C52.1225197,28.3984064 53.7614086,29.625498 55.049107,31.378486 C56.3368054,33.131474 56.9806546,35.1474103 56.9806546,37.4262948 C56.9806546,38.3612217 56.8343252,39.3545816 56.5416665,40.4063745 L58.0342261,43.3864542 Z"></path>
            <path fill="url(#linearGradient-1)" id="路径" d="M368.034226,43.3864542 C368.15129,43.8539178 368.297619,44.3505977 368.473214,44.876494 L368.824405,46.2788845 C368.941468,46.746348 369,47.1261621 369,47.4183267 C369,49.0544489 368.561012,50.500664 367.683036,51.7569721 C366.805059,53.0132802 365.66369,53.933599 364.258929,54.5179283 C363.732143,54.5763612 363.176091,54.6055777 362.590774,54.6055777 C362.12252,54.6640106 361.595734,54.693227 361.010417,54.693227 L359.342262,54.693227 L345.645833,54.8685259 L345.645833,69.505976 C345.645833,71.6679947 345.689732,73.8446215 345.77753,76.0358565 C345.865327,78.2270916 345.967758,80.1992032 346.084821,81.9521912 C346.201885,84.0557769 346.348214,86.0717131 346.52381,88 L333.880952,88 L334.144345,84.5816733 C334.202877,83.2377159 334.261409,81.4116866 334.319941,79.1035857 C334.378472,76.7954847 334.407738,73.7131474 334.407738,69.8565737 L334.407738,56.4462151 C333.412698,57.3227092 332.300595,57.7609562 331.071429,57.7609562 C330.076389,57.7609562 329.213046,57.5272244 328.481399,57.0597609 C327.749752,56.5922974 327.149802,55.9495352 326.681548,55.1314741 L316.760417,54.6055777 C314.828869,54.1381142 313.219246,53.1593625 311.931548,51.6693227 C310.643849,50.1792828 310,48.4116866 310,46.3665339 C310,46.0159362 310.029266,45.6945551 310.087798,45.4023904 C310.146329,45.1102257 310.234127,44.818061 310.35119,44.5258964 L312.546131,39.4422311 C312.663194,38.1567065 313.029018,36.9588314 313.643601,35.8486056 C314.258184,34.7383798 315.03373,33.7742364 315.970238,32.9561753 L329.754464,7.45019919 L329.842262,7.45019919 C330.954365,5.40504648 332.271329,3.65205843 333.793155,2.19123506 C335.31498,0.730411687 337.275793,0 339.675595,0 C341.782738,0 343.670387,0.55511288 345.338542,1.66533864 C347.006696,2.7755644 348.250496,4.23638777 349.06994,6.04780876 L360.13244,27.6972112 C362.12252,28.3984064 363.761409,29.625498 365.049107,31.378486 C366.336805,33.131474 366.980655,35.1474103 366.980655,37.4262948 C366.980655,38.3612217 366.834325,39.3545816 366.541666,40.4063745 L368.034226,43.3864542 Z"></path>
            <path fill="url(#linearGradient-2)" id="路径" d="M331.247024,53.0189244 C331.338294,53.3854582 331.452381,53.7749005 331.589286,54.187251 L331.863095,55.2868526 C331.954365,55.6533865 332,55.9511952 332,56.1802789 C332,57.4631474 331.657738,58.5971116 330.973214,59.5821713 C330.28869,60.5672311 329.39881,61.2888446 328.303571,61.747012 C327.892857,61.7928287 327.459325,61.815737 327.002976,61.815737 C326.637897,61.8615538 326.227183,61.8844621 325.770833,61.8844621 L324.470238,61.8844621 L313.791667,62.0219123 L313.791667,73.4990039 C313.791667,75.1942231 313.825893,76.9008964 313.894345,78.6190239 C313.962798,80.3371514 314.042659,81.8834661 314.133929,83.2579681 C314.225198,84.9073705 314.339286,86.4880478 314.47619,88 L304.619048,88 L304.824405,85.3197211 C304.87004,84.2659363 304.915675,82.8341634 304.96131,81.0244024 C305.006945,79.2146414 305.029762,76.7978088 305.029762,73.7739044 L305.029762,63.2589642 C304.253968,63.9462152 303.386905,64.2898407 302.428571,64.2898407 C301.652778,64.2898407 300.979663,64.1065737 300.409226,63.7400398 C299.83879,63.3735059 299.371032,62.8695219 299.005952,62.2280876 L291.270833,61.815737 C289.764881,61.4492032 288.509921,60.6817729 287.505952,59.5134462 C286.501984,58.3451195 286,56.9591633 286,55.3555777 C286,55.0806773 286.022817,54.8286852 286.068452,54.5996016 C286.114087,54.3705179 286.18254,54.1414342 286.27381,53.9123506 L287.985119,49.9262948 C288.076389,48.9183267 288.361607,47.9790837 288.840774,47.1085658 C289.31994,46.2380478 289.924603,45.4820717 290.654762,44.8406374 L301.401786,24.8416335 L301.470238,24.8416335 C302.337301,23.2380478 303.364087,21.8635458 304.550595,20.7181275 C305.737103,19.5727092 307.265873,19 309.136905,19 C310.779762,19 312.251488,19.435259 313.552083,20.3057769 C314.852678,21.1762948 315.822421,22.3217131 316.461309,23.7420319 L325.086309,40.7171315 C326.637897,41.2669323 327.915674,42.2290837 328.919643,43.6035856 C329.923611,44.9780876 330.425595,46.5587649 330.425595,48.3456175 C330.425595,49.0786852 330.311508,49.8575697 330.083333,50.6822709 L331.247024,53.0189244 Z"></path>
        </g>
        <path fill="#E7EAF0" id="形状结合" d="M284.5,415 C345.879626,415 401.152405,420.00678 439.78802,428.003897 C477.575063,428.25539 508,439.574053 508,453.5 C508,464.536605 488.890416,473.935603 462.149089,477.485699 C455.766823,479.373982 448.582636,481.153843 440.691453,482.807922 C440.896873,483.861698 441,484.926358 441,486 C441,510.300529 388.1696,530 323,530 C264.367989,530 215.723701,514.054651 206.554085,493.159086 C128.319357,487.218328 73,472.596236 73,455.5 C73,433.132468 167.691775,415 284.5,415 Z"></path>
        <ellipse ry="6.5" rx="81.5" cy="464.294395" cx="299.5" fill-rule="nonzero" fill="#D1D6E2" id="椭圆形"></ellipse>
        <path fill-rule="nonzero" fill="url(#linearGradient-3)" id="路径" d="M445.379464,162.3125 C445.379464,168.25 439.81942,173 432.796205,173 L393.875893,173 C386.852679,172.525 381,168.0125 381,161.8375 C381,157.8 383.633705,154.2375 387.437946,152.3375 C387.145313,151.625 386.852679,150.9125 386.852679,150.2 C386.852679,146.1625 390.65692,142.6 395.631696,142.6 C397.680134,142.6 399.435938,143.3125 400.899107,144.2625 C404.410714,138.8 410.848661,135 418.457143,135 C428.991964,135 437.478348,142.3625 437.478348,151.3875 L437.478348,152.3375 C442.160491,154 445.379464,157.8 445.379464,162.3125 Z"></path>
        <path fill-rule="nonzero" stroke-dasharray="4" stroke="#D1D6E2" id="路径-13" d="M238,191.103975 C276.163308,184.335567 304.41742,188.634053 322.748852,204.022036 L323.124524,204.338095 L323.86957,204.969192 L324.607798,205.600278 L325.341094,206.232973 L326.071351,206.868899 C326.192911,206.975246 326.314424,207.081795 326.435929,207.18858 L327.165166,207.832389 L328.262769,208.812262 L328.999757,209.477313 L329.743152,210.153696 L330.874391,211.193065 L332.030673,212.267048 L333.218377,213.381113 L334.030784,214.148792 L335.285028,215.341815 L342.545035,222.328654 L343.463815,223.204846 L344.617567,224.29608 L345.437718,225.064175 L346.226274,225.795503 L346.989638,226.495799 L347.487716,226.948256 L348.223329,227.60958 C355.189826,233.83231 361.106961,237.86962 368.059486,240.779946 C375.949642,244.082764 385.120862,245.815125 396.693016,246.017747 L397.264079,246.026478 C415.564945,246.265979 433.054151,251.092267 447.699951,259.03389 C449.888796,260.220782 451.977318,261.463195 453.942821,262.73704 L454.593401,263.162786 L455.234682,263.590662 C455.765157,263.948058 456.285749,264.307466 456.795975,264.668371 L457.403237,265.102141 C457.603978,265.246949 457.80303,265.391963 458.00036,265.53715 L458.587156,265.973198 C458.974869,266.264199 459.355574,266.555762 459.729021,266.847621 L460.283716,267.285599 C461.199032,268.015823 462.068207,268.747075 462.88735,269.475225 L463.3728,269.91171 C464.011979,270.493105 464.61864,271.071986 465.190789,271.646239 L465.613399,272.076028 C468.248552,274.792107 470.093806,277.391827 470.935629,279.648555 L471,279.826001 L470.507103,280 C469.839388,278.105256 468.414567,275.939898 466.371749,273.653916 L465.993548,273.236987 C465.672758,272.888494 465.337974,272.537441 464.98968,272.184349 L464.565274,271.759694 C463.919031,271.121343 463.229642,270.477063 462.499931,269.829896 L462.007514,269.398057 C461.093911,268.605691 460.12101,267.810023 459.093962,267.016607 L458.528415,266.584092 C458.33813,266.440017 458.146086,266.29605 457.952314,266.152224 L457.365846,265.721204 L456.769194,265.291231 C456.468354,265.07654 456.163765,264.862318 455.855532,264.648676 L455.234237,264.222199 L454.603411,263.797472 L453.963239,263.374694 L453.313906,262.954066 L452.655598,262.535788 L451.988501,262.120061 C451.764692,261.981932 451.539448,261.844262 451.312802,261.707084 L450.628685,261.297059 C449.940422,260.888575 449.239811,260.484819 448.52769,260.086692 L447.811762,259.690474 C447.691812,259.624762 447.571549,259.559214 447.450979,259.493835 C433.035894,251.677316 415.848861,246.892692 397.850877,246.558932 L397.257246,246.549543 C385.351433,246.393733 375.942888,244.646956 367.857818,241.262547 C360.844828,238.32691 354.881684,234.258207 347.875316,227.999863 L347.384772,227.5598 L346.638143,226.882946 L345.872829,226.180869 L345.349068,225.695966 L344.538344,224.939075 L343.978365,224.412306 L343.104394,223.584632 L340.686579,221.267479 L336.225756,216.966885 L334.925017,215.721041 L333.672719,214.529863 L332.86162,213.763415 L331.675906,212.651205 L330.521651,211.579091 L329.76648,210.883928 L329.020574,210.20254 C328.896923,210.090033 328.77358,209.978032 328.650505,209.866505 L327.549007,208.874612 L326.819574,208.224836 L326.091857,207.58236 L325.36397,206.945567 L324.634027,206.312836 L323.90014,205.68255 L323.160422,205.053091 L322.412987,204.422839 C304.401334,189.303288 276.677693,184.961713 239.228981,191.420047 L238.091195,191.61906 L238,191.103975 Z"></path>
        <g fill-rule="nonzero" fill="url(#linearGradient-4)" transform="translate(213.000000, 178.000000) scale(-1, 1) rotate(28.000000) translate(-213.000000, -178.000000) translate(190.000000, 154.000000)" id="plane">
            <polygon points="25.9010884 38.0781059 39.421289 43.9481835 46 0 0 27.1166734 12.0699878 32.8314214 41.2343864 6.23387888 17.8195436 35.5326679 17.5086966 48" id="路径"></polygon>
        </g>
        <g transform="translate(181.000000, 209.000000)">
            <path fill-rule="nonzero" fill="url(#linearGradient-5)" id="路径" d="M185.982177,229 L56.0178226,229 C46.0653278,229 38,220.965229 38,211.05044 L38,33.94956 C38,24.0347713 46.0653278,16 56.0178226,16 L185.982177,16 C195.934672,16 204,24.0347713 204,33.94956 L204,211.05044 C204,220.965229 195.934672,229 185.982177,229 Z"></path>
            <path fill-rule="nonzero" fill="#D1D6E2" id="路径" d="M178.047009,234 L53.9529906,234 C44.036307,234 36,225.932737 36,215.977854 L36,41.022146 C36,31.0672631 44.036307,23 53.9529906,23 L178.047009,23 C187.963693,23 196,31.0672631 196,41.022146 L196,215.983294 C196,225.932737 187.963693,234 178.047009,234 Z"></path>
            <path fill-rule="nonzero" fill="#E7EAF0" id="路径" d="M176.4614,212 L57.5385998,212 C56.1361185,212 55,210.866454 55,209.467148 L55,39.5328519 C55,38.1335461 56.1361185,37 57.5385998,37 L176.4614,37 C177.863881,37 179,38.1335461 179,39.5328519 L179,209.467148 C178.994564,210.866454 177.858445,212 176.4614,212 Z"></path>
            <path fill-rule="nonzero" fill="#FFFFFF" id="路径" d="M110.732568,211 C99.655969,210.247146 38.7319638,205.625553 1.00755079,175.081666 C-0.857525098,173.568353 0.0153737937,170.460073 2.40635771,170.24233 C60.9556443,164.94029 53.8260663,60.1515149 54.238118,40.0592879 C54.2706484,38.3554496 55.3549948,37 57.051997,37 L175.272869,37 C176.78011,37 178,38.2248039 178,39.7381171 L171.808382,152.267653 C171.580669,152.88822 171.14693,154.09125 170.718614,154.592058 L125.853779,208.810043 C125.295341,209.463272 111.589202,211.058239 110.732568,211 Z"></path>
            <path fill-rule="nonzero" fill="url(#linearGradient-6)" id="路径" d="M127.565795,171.956757 C134.3599,172.383784 154.60191,172.540541 172,153 C167.877127,173.556757 141.402242,210.745946 107,211 C126.767123,200.805405 126.011623,181.92973 125.385637,173.464865 C125.315484,172.47027 126.578248,171.891892 127.565795,171.956757 Z"></path>
            <g fill="#D8D8D8" transform="translate(60.828192, 63.000000)" id="编组-2">
                <rect rx="3" height="6" width="80" y="0" x="20.171808" id="矩形"></rect>
                <rect rx="3" height="6" width="80" y="20" x="18.171808" id="矩形备份"></rect>
                <rect rx="3" height="6" width="40" y="40" x="16.171808" id="矩形备份-2"></rect>
                <rect rx="3" height="6" width="6" y="40" x="62.171808" id="矩形备份-3"></rect>
                <rect rx="3" height="6" width="80" y="60" x="13.171808" transform="translate(53.171808, 63.000000) rotate(2.000000) translate(-53.171808, -63.000000)" id="矩形备份-7"></rect>
                <rect rx="3" height="6" width="80" y="80" x="7.17180797" transform="translate(47.171808, 83.000000) rotate(4.000000) translate(-47.171808, -83.000000)" id="矩形备份-6"></rect>
                <rect rx="3" height="6" width="40" y="99.2687839" x="0.216531063" transform="translate(20.216531, 102.268784) rotate(7.000000) translate(-20.216531, -102.268784)" id="矩形备份-5"></rect>
                <rect rx="3" height="6" width="6" y="102.802995" x="46.0003695" transform="translate(49.000369, 105.802995) rotate(7.000000) translate(-49.000369, -105.802995)" id="矩形备份-4"></rect>
            </g>
            <g transform="translate(92.000000, 0.000000)" id="编组">
                <rect height="18" width="52" y="23" x="1" fill="#ACB4C2" id="矩形"></rect>
                <polygon points="4 16 56 16 52 23 0 23" fill="#909AA9" id="矩形"></polygon>
                <path fill="#A2ABB9" id="形状结合" d="M28,0 C32.9705627,0 37,4.02943725 37,9 C37,13.9705627 32.9705627,18 28,18 C23.0294373,18 19,13.9705627 19,9 C19,4.02943725 23.0294373,0 28,0 Z M28,4 C25.2385763,4 23,6.23857625 23,9 C23,11.7614237 25.2385763,14 28,14 C30.7614237,14 33,11.7614237 33,9 C33,6.23857625 30.7614237,4 28,4 Z"></path>
            </g>
        </g>
    </g>
</svg>