<svg width="24" height="24" viewBox="0 0 24 24" fill="none" xmlns="http://www.w3.org/2000/svg">
<circle cx="12" cy="12" r="12" fill="#0380FE"/>
<path d="M16.2717 8.81333L13.545 11.625H15.5908C15.5908 13.9514 13.7569 15.8425 11.5008 15.8425C10.8119 15.8425 10.1569 15.6674 9.59245 15.3505L8.59461 16.3778C9.43396 16.9265 10.4286 17.25 11.4992 17.25C14.5121 17.25 16.9542 14.7335 16.9542 11.625H19L16.2717 8.81333ZM7.40916 11.625C7.40916 9.29862 9.24313 7.4075 11.4992 7.4075C12.1881 7.4075 12.8431 7.5826 13.4075 7.89946L14.4038 6.87218C13.5644 6.32353 12.5698 6 11.4992 6C8.48625 6 6.0442 8.51649 6.0442 11.625H4L6.72668 14.4367L9.45337 11.625H7.40916Z" fill="white"/>
</svg>
