<?xml version="1.0" standalone="no"?><!DOCTYPE svg PUBLIC "-//W3C//DTD SVG 1.1//EN" "http://www.w3.org/Graphics/SVG/1.1/DTD/svg11.dtd"><svg t="1655867804711" class="icon" viewBox="0 0 1024 1024" version="1.1" xmlns="http://www.w3.org/2000/svg" p-id="5932" xmlns:xlink="http://www.w3.org/1999/xlink" width="200" height="200"><defs><style type="text/css">@font-face { font-family: feedback-iconfont; src: url("") format("woff2"), url("") format("woff"), url("") format("truetype"); }
</style></defs><path d="M861.454 759.649c-1.484-3.901-5.872-5.908-9.855-4.507l-58.994 21.078V266.045c0.018-17.107-6.873-33.52-19.155-45.616-12.283-12.097-28.946-18.885-46.316-18.866H226.743c-17.37-0.019-34.034 6.77-46.316 18.866-12.282 12.097-19.174 28.509-19.155 45.616V776.22l-58.923-21.078a8.348 8.348 0 0 0-2.605-0.485c-4.277 0-7.744 3.415-7.744 7.627v56.44c0.018 3.208 2.072 6.062 5.14 7.141l369.309 132.293a30.993 30.993 0 0 0 21.05 0l369.38-132.224c3.067-1.079 5.121-3.933 5.139-7.141v-56.51a8.14 8.14 0 0 0-0.493-2.634h-0.07zM626.817 402.291L526.92 583.95h55.404c4.224 0 7.744 3.398 7.744 7.558v25.654c0 4.16-3.52 7.627-7.744 7.627H508.97v36.956h73.425c4.224 0 7.744 3.467 7.744 7.627v25.655c0 4.16-3.52 7.627-7.744 7.627H508.97v60.114c0 4.16-3.45 7.627-7.744 7.627h-47.941c-4.277 0-7.744-3.415-7.744-7.627v-60.045h-73.144c-4.277 0-7.744-3.415-7.744-7.627v-25.654c0-4.16 3.52-7.627 7.744-7.627h73.214V624.86h-73.214a7.804 7.804 0 0 1-5.476-2.234 7.57 7.57 0 0 1-2.268-5.393v-25.655c0-4.16 3.52-7.627 7.744-7.627h54.91L327.272 402.43c-1.981-3.659-0.599-8.207 3.098-10.192a7.265 7.265 0 0 1 3.66-0.97h53.574c2.885 0.025 5.517 1.628 6.828 4.16l81.522 159.958h3.168l81.591-160.028c1.298-2.576 3.98-4.193 6.9-4.16h52.446c4.224 0 7.674 3.467 7.744 7.488a8.083 8.083 0 0 1-0.915 3.606h-0.07z" p-id="5933" ></path><path d="M859.81 64C899.68 64 932 95.834 932 135.103v445.678c0 26.18-21.547 47.403-48.126 47.403h-43.148l0.005-409.541c0.019-17.107-6.873-33.52-19.155-45.616-12.283-12.097-28.946-18.885-46.316-18.867H380.737l0.02-42.758c0-26.18 21.546-47.402 48.126-47.402H859.81z" p-id="5934" ></path></svg>
