<?xml version="1.0" standalone="no"?><!DOCTYPE svg PUBLIC "-//W3C//DTD SVG 1.1//EN" "http://www.w3.org/Graphics/SVG/1.1/DTD/svg11.dtd"><svg t="1655867822641" class="icon" viewBox="0 0 1024 1024" version="1.1" xmlns="http://www.w3.org/2000/svg" p-id="6464" xmlns:xlink="http://www.w3.org/1999/xlink" width="200" height="200"><defs><style type="text/css">@font-face { font-family: feedback-iconfont; src: url("") format("woff2"), url("") format("woff"), url("") format("truetype"); }
</style></defs><path d="M665.235 256c42.517 0 70.767 29.918 70.767 74.693v410.614c0 44.876-28.345 74.693-70.767 74.693H134.768c-42.517 0-70.766-29.918-70.766-78.408V330.693c0-48.49 28.25-74.693 70.766-74.693zM298.123 480c-23.587 0-124.35 138.721-178.121 224h504S540.047 565.279 516.55 565.374c-26.303 0-72.048 64.824-73.867 67.417l-0.056 0.08C405.665 593.769 321.62 480 298.123 480z m269.879-168c-31.14 0-56 24.861-56 56s24.86 56 56 56c31.139 0 56-24.861 56-56s-24.861-56-56-56z" p-id="6465" ></path><path d="M792.817 246.95l120.6 26.927c48.328 9.334 51.643 20.915 42.609 66.668l-110.631 491.63c-9.168 49.57-20.546 52.994-65.057 43.794l-100.269-18.794 23.83 1.96c22.389 0.782 48.493 1.695 67.836-16.841 19.344-18.537 20.28-45.36 21.082-68.366l-1.339-488.6 1.339-38.379zM253 201.893c7.434-26.943 14.868-61.422 48.522-57.602l212.598 57.602z" p-id="6466" ></path></svg>
