<svg width="375" height="163" viewBox="0 0 375 163" fill="none" xmlns="http://www.w3.org/2000/svg">
<path d="M137.797 154.781C99.6585 161.684 29.0455 153.63 1.1652 125.859L0 101.573L370.32 83.867L372.499 129.287C372.856 129.323 372.83 129.498 372.523 129.799L372.499 129.287C370.438 129.081 355.599 133.523 308 145.248C240.466 161.884 192.075 131.197 193.624 123.06C190.307 131.208 175.007 148.045 137.797 154.781Z" fill="#8AD0FF" fill-opacity="0.5"/>
<path d="M93.75 143.43C62.5 129.365 31.25 129.365 0 143.43V0H375V143.43C341.518 155.206 310.268 155.206 281.25 143.43C250 129.692 218.75 129.692 187.5 143.43C155.887 157.168 124.637 157.168 93.75 143.43Z" fill="url(#paint0_linear_36_183)"/>
<ellipse cx="362" cy="90" rx="49" ry="49" transform="rotate(90 362 90)" fill="url(#paint1_linear_36_183)" fill-opacity="0.7"/>
<circle cx="51" cy="68" r="24" fill="url(#paint2_linear_36_183)" fill-opacity="0.7"/>
<circle cx="29" cy="91" r="29" fill="url(#paint3_linear_36_183)" fill-opacity="0.4"/>
<defs>
<linearGradient id="paint0_linear_36_183" x1="187.5" y1="0" x2="187.5" y2="153.734" gradientUnits="userSpaceOnUse">
<stop stop-color="#30B5FF"/>
<stop offset="1" stop-color="#0380FE"/>
</linearGradient>
<linearGradient id="paint1_linear_36_183" x1="330.15" y1="52.025" x2="403.65" y2="118.175" gradientUnits="userSpaceOnUse">
<stop stop-color="#2FA5FF"/>
<stop offset="1" stop-color="#3FACFF"/>
</linearGradient>
<linearGradient id="paint2_linear_36_183" x1="75" y1="84.5" x2="27" y2="48.5" gradientUnits="userSpaceOnUse">
<stop stop-color="#3FA6FB"/>
<stop offset="1" stop-color="#20A2FF"/>
</linearGradient>
<linearGradient id="paint3_linear_36_183" x1="58" y1="110.937" x2="-2.75485e-06" y2="67.4375" gradientUnits="userSpaceOnUse">
<stop stop-color="#73BDF9"/>
<stop offset="1" stop-color="#3BABFC"/>
</linearGradient>
</defs>
</svg>
