<?xml version="1.0" standalone="no"?><!DOCTYPE svg PUBLIC "-//W3C//DTD SVG 1.1//EN" "http://www.w3.org/Graphics/SVG/1.1/DTD/svg11.dtd"><svg t="1655867811875" class="icon" viewBox="0 0 1024 1024" version="1.1" xmlns="http://www.w3.org/2000/svg" p-id="6195" xmlns:xlink="http://www.w3.org/1999/xlink" width="200" height="200"><defs><style type="text/css">@font-face { font-family: feedback-iconfont; src: url("") format("woff2"), url("") format("woff"), url("") format("truetype"); }
</style></defs><path d="M814.168 111.783c-43.329-54.984-141.836-27.405-186.95-10.88-29.732-25.345-68.151-38.493-107.381-36.75-38.77 1.492-76.34 13.696-108.44 35.228-64.966-25.23-166.6-41.222-204.688 34.106-30.556 60.325 28.035 96.14 66.783 119.845 11.243 6.876 22.728 13.936 32.131 20.986l0.066 0.065a1166.923 1166.923 0 0 0 217.484 20.074c79.7 0 144.457-7.704 193.678-16.995 14.468-16.232 33.694-29.232 52.435-41.754 29.345-19.757 57.083-38.404 62.027-69.453 2.852-18.016-2.918-36.358-17.145-54.472z" p-id="6196" ></path><path d="M728.28 335.241c52.678 31.343 237.073 158.727 231.6 400.648C955.885 911.37 849.405 959.293 787.148 960H264.32C87.908 960 71.116 806.723 64.872 749.064a9.3 9.3 0 0 1-0.12-1.35c-14.525-228.06 185.584-372.949 247.6-412.212a1237.658 1237.658 0 0 0 210.821 17.7c83.807 0 152.374-8.017 205.107-17.96z m-98.347 169.427c-10.682-12.341-29.467-13.79-41.958-3.236l-76.97 65.003-74.986-63.328c-8.09-6.813-19.245-8.845-29.262-5.33-10.018 3.516-17.376 12.044-19.303 22.373-1.927 10.33 1.87 20.89 9.96 27.703l53.878 45.519h-31.57c-16.42 0-29.73 13.15-29.73 29.373s13.31 29.374 29.73 29.374h62.544v23.358h-58.602c-16.438 0-29.763 13.165-29.763 29.406 0 16.24 13.325 29.407 29.763 29.407h58.602v58.54c0 16.223 13.311 29.374 29.73 29.374 16.42 0 29.731-13.15 29.731-29.374v-58.54h58.57c16.437 0 29.763-13.166 29.763-29.407 0-16.24-13.326-29.406-29.764-29.406h-58.569v-23.358l62.61-0.054c16.42 0 29.73-13.151 29.73-29.374s-13.31-29.374-29.73-29.374h-33.551l55.871-47.194c12.491-10.553 13.958-29.114 3.276-41.455z" p-id="6197" ></path></svg>
