<svg width="18" height="18" viewBox="0 0 18 18"  xmlns="http://www.w3.org/2000/svg">
<path d="M6.64267 17.9975H2.19794C1.43445 17.9975 1.15681 17.9215 0.876607 17.7792C0.596401 17.6369 0.377892 17.4283 0.228792 17.1609C0.0796915 16.8934 0 16.6309 0 15.8997V7.36096L9 0L18 7.36341V15.9021C18 16.6309 17.9203 16.8959 17.7712 17.1633C17.6221 17.4308 17.4036 17.6393 17.1234 17.7816C16.8432 17.9239 16.5681 18 15.8021 18H11.3599V13.3184C11.3599 12.9528 11.3213 12.8203 11.2442 12.6878C11.1697 12.5553 11.0591 12.4498 10.9203 12.3787C10.7815 12.3075 10.6427 12.2683 10.2596 12.2683H7.74293C7.3599 12.2683 7.22108 12.3051 7.08226 12.3787C6.94344 12.4498 6.83291 12.5553 6.75836 12.6878C6.6838 12.8203 6.64267 12.9528 6.64267 13.3184V17.9975Z" />
</svg>
