<svg width="16" height="16" viewBox="0 0 16 16" fill="none" xmlns="http://www.w3.org/2000/svg">
<path d="M13.3724 4.75777H13.1472C13.0534 3.53783 12.5279 2.40235 11.6457 1.52023C10.6604 0.544281 9.3654 0 7.99531 0C5.28328 0 3.05924 2.10205 2.85279 4.74839H2.62757C1.1824 4.74839 0 5.93079 0 7.37595V13.3724C0 14.8176 1.1824 16 2.62757 16H13.3724C14.8176 16 16 14.8176 16 13.3724V7.38534C16 5.93079 14.8176 4.75777 13.3724 4.75777V4.75777ZM7.99531 1.50147C8.97126 1.50147 9.88152 1.88622 10.576 2.58065C11.1765 3.18123 11.5425 3.94135 11.627 4.75777H4.35425C4.5607 2.92786 6.11847 1.50147 7.99531 1.50147ZM14.4985 13.3724C14.4985 13.9918 13.9918 14.4985 13.3724 14.4985H2.62757C2.00821 14.4985 1.50147 13.9918 1.50147 13.3724V7.38534C1.50147 6.76598 2.00821 6.25924 2.62757 6.25924H13.3818C14.0012 6.25924 14.5079 6.76598 14.5079 7.38534V13.3724H14.4985Z" fill="#666666"/>
<path d="M8 7C7.45 7 7 7.38298 7 7.85106V11.1489C7 11.617 7.45 12 8 12C8.55 12 9 11.617 9 11.1489V7.85106C9 7.38298 8.55 7 8 7V7Z" fill="#666666"/>
</svg>
