<svg width="18" height="18" viewBox="0 0 18 18" fill="none" xmlns="http://www.w3.org/2000/svg">
<mask id="mask0_1_291" style="mask-type:alpha" maskUnits="userSpaceOnUse" x="0" y="0" width="18" height="18">
<path d="M18 0H0V18H18V0Z" fill="white"/>
</mask>
<g mask="url(#mask0_1_291)">
<path d="M8.99047 1.3589C10.853 1.3589 12.3628 2.86716 12.3628 4.72765C12.3628 6.58814 10.853 8.0964 8.99047 8.0964C7.12799 8.0964 5.61811 6.58814 5.61811 4.72765C5.61811 2.86716 7.12799 1.3589 8.99047 1.3589ZM8.99047 0.0113983C6.36438 0.0113983 4.23535 2.13814 4.23535 4.7612C4.23535 7.38449 6.36438 9.51123 8.99047 9.51123C11.6166 9.51123 13.7454 7.38471 13.7454 4.7612C13.7456 2.13814 11.6166 0.0113983 8.99047 0.0113983Z" fill="#333333"/>
</g>
<mask id="mask1_1_291" style="mask-type:alpha" maskUnits="userSpaceOnUse" x="0" y="0" width="18" height="18">
<path d="M18 0H0V18H18V0Z" fill="white"/>
</mask>
<g mask="url(#mask1_1_291)">
<path d="M8.99029 17.9781H3.36968C1.50719 17.9781 -0.00268555 16.4698 -0.00268555 14.6093C0.00346199 11.0519 2.88885 8.16987 6.44982 8.16373H11.531C13.2683 8.16767 14.9301 8.87213 16.1399 10.1176C16.4007 10.3843 16.3957 10.8116 16.1287 11.0721C15.8617 11.3327 15.434 11.3276 15.1732 11.0609C14.2135 10.0762 12.8957 9.52131 11.5198 9.52241H6.44982C3.6382 9.52877 1.35856 11.8007 1.34626 14.6093C1.34626 15.1453 1.55945 15.6594 1.93884 16.0384C2.31823 16.4176 2.83287 16.6306 3.36968 16.6306H8.99029C9.23114 16.6306 9.45377 16.7589 9.5743 16.9674C9.69484 17.1758 9.69484 17.4328 9.5743 17.6412C9.45377 17.8495 9.23114 17.9781 8.99029 17.9781ZM17.3088 17.9781H11.4634C11.091 17.9781 10.7889 17.6765 10.7889 17.3043C10.7889 16.9323 11.0908 16.6306 11.4634 16.6306H17.3088C17.6814 16.6306 17.9833 16.9321 17.9833 17.3043C17.9833 17.6765 17.6814 17.9781 17.3088 17.9781Z" fill="#333333"/>
</g>
<path d="M17.309 14.89H11.4635C11.0912 14.89 10.7891 14.5885 10.7891 14.2163C10.7891 13.8443 11.091 13.5425 11.4635 13.5425H17.309C17.6816 13.5425 17.9834 13.8441 17.9834 14.2163C17.9834 14.5885 17.6816 14.89 17.309 14.89Z" fill="#333333"/>
</svg>
