<?xml version="1.0" standalone="no"?><!DOCTYPE svg PUBLIC "-//W3C//DTD SVG 1.1//EN" "http://www.w3.org/Graphics/SVG/1.1/DTD/svg11.dtd"><svg t="1655867971844" class="icon" viewBox="0 0 1024 1024" version="1.1" xmlns="http://www.w3.org/2000/svg" p-id="10194" xmlns:xlink="http://www.w3.org/1999/xlink" width="200" height="200"><defs><style type="text/css">@font-face { font-family: feedback-iconfont; src: url("") format("woff2"), url("") format("woff"), url("") format("truetype"); }
</style></defs><path d="M218.374 618.58c85.257 0 154.372 69.169 154.372 154.497 0 85.324-69.115 154.497-154.372 154.497C133.114 927.574 64 858.401 64 773.077c0-85.328 69.114-154.497 154.374-154.497z m386.58 125.069l0.704 0.005c16.22 0.283 29.325 13.487 29.413 29.805 0.092 16.557-13.243 30.05-29.785 30.142l-197.476 1.096-0.71-0.004c-16.212-0.284-29.318-13.488-29.411-29.805-0.089-16.557 13.247-30.05 29.788-30.143l197.477-1.096z m-2.667-351.803c14.417-8.12 32.68-3.01 40.794 11.417l104.354 185.571 0.362 0.66c7.596 14.32 2.428 32.17-11.774 40.165-14.417 8.12-32.68 3.006-40.795-11.422l-104.353-185.57-0.362-0.655c-7.595-14.32-2.423-32.17 11.774-40.166zM422.672 378.01c14.197 7.997 19.37 25.846 11.769 40.166l-0.357 0.66-104.36 185.57c-8.112 14.424-26.376 19.538-40.793 11.418-14.197-7.996-19.364-25.845-11.77-40.165l0.358-0.66 104.358-185.571c8.115-14.422 26.378-19.537 40.795-11.418zM515.6 79c85.258 0 154.372 69.168 154.372 154.497 0 85.324-69.114 154.492-154.372 154.492-85.26 0-154.374-69.168-154.374-154.497C361.226 148.168 430.341 79 515.6 79z" p-id="10195" ></path><path d="M806.684 618.732c23.23-25.332 62.58-27.026 87.892-3.774l45.276 41.581c24.792 22.766 27 61.141 4.983 86.606L810.252 898.817l-86.13 40.317a62.15 62.15 0 0 1-47.26 2.246c-32.357-11.55-49.235-47.169-37.696-79.553l32.123-90.14 134.66-152.143 0.735-0.812z" p-id="10196" ></path></svg>
