<?xml version="1.0" standalone="no"?><!DOCTYPE svg PUBLIC "-//W3C//DTD SVG 1.1//EN" "http://www.w3.org/Graphics/SVG/1.1/DTD/svg11.dtd"><svg t="1655868614941" class="icon" viewBox="0 0 1024 1024" version="1.1" xmlns="http://www.w3.org/2000/svg" p-id="26851" xmlns:xlink="http://www.w3.org/1999/xlink" width="200" height="200"><defs><style type="text/css">@font-face { font-family: feedback-iconfont; src: url("") format("woff2"), url("") format("woff"), url("") format("truetype"); }
</style></defs><path d="M602.496 447.146667a42.666667 42.666667 0 0 0-60.330667 0l-30.165333 30.122666a85.333333 85.333333 0 1 1-120.661333-120.661333l240.213333-240.298667a277.333333 277.333333 0 0 1 272.085333 450.901334l-89.941333 91.093333-211.2-211.2zM134.869333 190.634667a277.461333 277.461333 0 0 1 341.717334-40.021334L330.965333 296.277333a170.666667 170.666667 0 0 0 235.221334 247.210667l6.144-5.845333 181.034666 180.992-181.034666 181.034666a85.333333 85.333333 0 0 1-120.661334 0L134.826667 582.826667a277.333333 277.333333 0 0 1 0-392.192z" p-id="26852" ></path></svg>
