<?xml version="1.0" standalone="no"?><!DOCTYPE svg PUBLIC "-//W3C//DTD SVG 1.1//EN" "http://www.w3.org/Graphics/SVG/1.1/DTD/svg11.dtd"><svg t="1655869020514" class="icon" viewBox="0 0 1024 1024" version="1.1" xmlns="http://www.w3.org/2000/svg" p-id="30553" xmlns:xlink="http://www.w3.org/1999/xlink" width="200" height="200"><defs><style type="text/css">@font-face { font-family: feedback-iconfont; src: url("") format("woff2"), url("") format("woff"), url("") format("truetype"); }
</style></defs><path d="M170.666667 443.733333V170.666667a42.666667 42.666667 0 0 1 42.666666-42.666667h213.333334V42.666667h170.666666v85.333333h213.333334a42.666667 42.666667 0 0 1 42.666666 42.666667v273.066666l46.336 13.909334a42.666667 42.666667 0 0 1 29.098667 51.2l-64.682667 258.901333A212.992 212.992 0 0 1 682.666667 682.666667a212.992 212.992 0 0 1-170.666667 85.333333 212.992 212.992 0 0 1-170.666667-85.333333 212.992 212.992 0 0 1-181.418666 85.077333l-64.682667-258.901333a42.666667 42.666667 0 0 1 29.098667-51.2L170.666667 443.733333z m85.333333-25.6L512 341.333333l117.504 35.242667 77.184 23.168L768 418.133333V213.333333H256v204.8zM170.666667 853.333333a255.061333 255.061333 0 0 0 170.666666-65.194666A255.061333 255.061333 0 0 0 512 853.333333a255.061333 255.061333 0 0 0 170.666667-65.194666A255.061333 255.061333 0 0 0 853.333333 853.333333h85.333334v85.333334h-85.333334a339.754667 339.754667 0 0 1-170.666666-45.653334A339.754667 339.754667 0 0 1 512 938.666667a339.754667 339.754667 0 0 1-170.666667-45.653334A339.754667 339.754667 0 0 1 170.666667 938.666667H85.333333v-85.333334h85.333334z" p-id="30554" ></path></svg>
