<?xml version="1.0" standalone="no"?><!DOCTYPE svg PUBLIC "-//W3C//DTD SVG 1.1//EN" "http://www.w3.org/Graphics/SVG/1.1/DTD/svg11.dtd"><svg t="1655867925763" class="icon" viewBox="0 0 1024 1024" version="1.1" xmlns="http://www.w3.org/2000/svg" p-id="8323" xmlns:xlink="http://www.w3.org/1999/xlink" width="200" height="200"><defs><style type="text/css">@font-face { font-family: feedback-iconfont; src: url("") format("woff2"), url("") format("woff"), url("") format("truetype"); }
</style></defs><path d="M742.461 789.762c11.53 0 22.58 2.129 33.149 6.446 10.629 4.257 19.697 10.278 27.263 17.94 7.567 7.663 13.632 16.724 18.136 27.123 4.564 10.4 6.846 21.468 6.846 33.083 0 11.676-2.282 22.745-6.846 33.144-4.504 10.399-10.57 19.46-18.136 27.123a85.808 85.808 0 0 1-27.263 18.426c-31.673 13.895-68.527 6.566-92.66-18.426a88.489 88.489 0 0 1-18.135-27.123 82.032 82.032 0 0 1-6.787-33.144c0-11.615 2.223-22.683 6.787-33.083 4.564-10.399 10.569-19.46 18.135-27.122a80.994 80.994 0 0 1 26.843-17.94c10.27-4.258 21.139-6.447 32.668-6.447z m-377.783-1.824c11.47 0 22.399 2.128 32.668 6.446 10.268 4.257 19.216 10.278 26.783 17.94 7.566 7.663 13.631 16.663 18.195 27.123 4.504 10.4 6.786 21.467 6.786 33.083 0 11.676-2.282 22.683-6.786 33.143-4.564 10.4-10.629 19.46-18.195 27.123a87.268 87.268 0 0 1-26.783 18.366 79.252 79.252 0 0 1-32.668 6.933 81.384 81.384 0 0 1-33.63-6.933 87.268 87.268 0 0 1-26.782-18.366 88.484 88.484 0 0 1-18.196-27.123 82.032 82.032 0 0 1-6.787-33.143c0-11.616 2.283-22.684 6.787-33.083 4.564-10.46 10.63-19.46 18.196-27.123a80.997 80.997 0 0 1 26.783-17.94c10.269-4.257 21.498-6.446 33.629-6.446z m-163.58-655.756c12.13 0 21.798 1.824 29.064 5.473 12.82 6.123 22.423 17.53 26.363 31.32l4.504 15.629c1.2 4.865 2.402 11.797 3.603 20.676 1.261 8.88 2.462 17.94 3.663 27.123 1.802 11.068 3.603 22.684 5.465 34.968h621.292c16.935 0 30.086 2.311 39.514 6.872 8.16 3.557 15.098 9.483 19.937 17.028 3.964 6.69 5.765 13.987 5.465 21.589a72.84 72.84 0 0 1-3.183 19.825c-1.801 5.473-5.765 16.846-11.77 34.056a3346.184 3346.184 0 0 0-19.517 56.557L904.6 484.416c-6.966 20.25-12.61 36.184-16.814 47.8-7.867 24.568-17.715 63.55-29.545 72.976-12.598 9.779-28.154 14.83-44.018 14.291H337.414l12.731 60.814h458.613c29.065 0 43.598 12.589 43.598 37.705a57.097 57.097 0 0 1-8.648 31.745c-5.705 8.878-17.054 13.379-34.049 13.379H333.751a53.177 53.177 0 0 1-30.386-8.332c-8.167-5.473-15.013-12.71-20.417-21.589a132.143 132.143 0 0 1-13.212-28.947 267.485 267.485 0 0 1-7.686-29.434 1365.398 1365.398 0 0 0-5.045-26.697l-9.968-52.908a447607.72 447607.72 0 0 1-27.684-149.42 40997.02 40997.02 0 0 0-39.033-206.95H112.1a36.426 36.426 0 0 1-22.7-6.871 59.75 59.75 0 0 1-15.012-16.603 64.2 64.2 0 0 1-8.167-20.676A101.072 101.072 0 0 1 64 174.448c0-12.224 4.083-22.38 12.25-30.346 8.167-7.906 19.217-11.92 33.149-11.92h91.698z" p-id="8324" ></path><path d="M826.954 207.044H494.509L614.432 85.659c13.872-14.108 29.185-21.284 45.819-21.65 16.694-0.303 31.947 6.569 45.88 20.677l120.823 122.358z" p-id="8325" ></path></svg>
