<svg width="60" height="54" viewBox="0 0 60 54" fill="none" xmlns="http://www.w3.org/2000/svg">
<path d="M24.0451 30.3159H7.5V17.6841H24.0451V30.3159ZM42.9542 32.842V48H56.5452C58.176 47.9978 59.4979 46.5849 59.5 44.8418V32.842H42.9542ZM42.9542 30.3159H59.4993V17.6841H42.9542V30.3159ZM59.4993 15.158V3.15816C59.4972 1.4144 58.176 0.00222041 56.5446 0H10.4547C8.8233 0.00148027 7.50208 1.4144 7.5 3.15816V15.158H59.4993ZM24.0451 32.842H7.5V44.8418C7.50208 46.5849 8.8233 47.9978 10.4547 48H24.0458L24.0451 32.842ZM26.4092 48H40.5908V32.842H26.4092V48ZM26.4092 30.3159H40.5908V17.6841H26.4092V30.3159Z" fill="url(#paint0_linear_217_261)"/>
<rect x="7.5" y="11" width="52" height="37" rx="4" fill="url(#paint1_linear_217_261)"/>
<g filter="url(#filter0_b_217_261)">
<path d="M17.0451 36.3159H0.5V23.6841H17.0451V36.3159ZM35.9542 38.842V54H49.5452C51.176 53.9978 52.4979 52.5849 52.5 50.8418V38.842H35.9542ZM35.9542 36.3159H52.4993V23.6841H35.9542V36.3159ZM52.4993 21.158V9.15816C52.4972 7.4144 51.176 6.00222 49.5446 6H3.45475C1.8233 6.00148 0.502077 7.4144 0.5 9.15816V21.158H52.4993ZM17.0451 38.842H0.5V50.8418C0.502077 52.5849 1.8233 53.9978 3.45475 54H17.0458L17.0451 38.842ZM19.4092 54H33.5908V38.842H19.4092V54ZM19.4092 36.3159H33.5908V23.6841H19.4092V36.3159Z" fill="url(#paint2_linear_217_261)"/>
<path d="M16.8451 36.1159H0.7V23.8841H16.8451V36.1159ZM49.545 53.8H36.1542V39.042H52.3V50.8416C52.298 52.4871 51.0532 53.798 49.545 53.8ZM52.2993 23.8841V36.1159H36.1542V23.8841H52.2993ZM49.5444 6.2C51.0533 6.20213 52.2973 7.51224 52.2993 9.1584V20.958H0.7V9.15827C0.702023 7.51204 1.94621 6.20137 3.45493 6.2L49.5444 6.2ZM16.8458 53.8H3.45502C1.94618 53.798 0.702023 52.4872 0.7 50.8417V39.042H16.8451L16.8458 53.8ZM33.3908 39.042V53.8H19.6092V39.042H33.3908ZM33.3908 23.8841V36.1159H19.6092V23.8841H33.3908Z" stroke="url(#paint3_linear_217_261)" stroke-width="0.4"/>
</g>
<defs>
<filter id="filter0_b_217_261" x="-9.5" y="-4" width="72" height="68" filterUnits="userSpaceOnUse" color-interpolation-filters="sRGB">
<feFlood flood-opacity="0" result="BackgroundImageFix"/>
<feGaussianBlur in="BackgroundImageFix" stdDeviation="5"/>
<feComposite in2="SourceAlpha" operator="in" result="effect1_backgroundBlur_217_261"/>
<feBlend mode="normal" in="SourceGraphic" in2="effect1_backgroundBlur_217_261" result="shape"/>
</filter>
<linearGradient id="paint0_linear_217_261" x1="33.5" y1="0" x2="33.5" y2="48" gradientUnits="userSpaceOnUse">
<stop stop-color="#B47FFC"/>
<stop offset="1" stop-color="#9B7EFA"/>
</linearGradient>
<linearGradient id="paint1_linear_217_261" x1="33.5" y1="11" x2="33.5" y2="48" gradientUnits="userSpaceOnUse">
<stop stop-color="#AE7FFC"/>
<stop offset="1" stop-color="#9C7EFA"/>
</linearGradient>
<linearGradient id="paint2_linear_217_261" x1="26.5" y1="6" x2="26.5" y2="54" gradientUnits="userSpaceOnUse">
<stop stop-color="white" stop-opacity="0.1"/>
<stop offset="1" stop-color="white" stop-opacity="0.4"/>
</linearGradient>
<linearGradient id="paint3_linear_217_261" x1="26.5" y1="6" x2="26.5" y2="54" gradientUnits="userSpaceOnUse">
<stop stop-color="#F3DBFF" stop-opacity="0.4"/>
<stop offset="1" stop-color="#D2BDFF" stop-opacity="0.8"/>
</linearGradient>
</defs>
</svg>
