<svg width="18" height="18" viewBox="0 0 18 18"  xmlns="http://www.w3.org/2000/svg">
<path d="M2.25 0H3.375V2.25C3.375 2.87139 3.87861 3.375 4.5 3.375H13.5C14.1214 3.375 14.625 2.87117 14.625 2.25V0H15.75C16.9926 0 18 1.00745 18 2.25V15.75C18 16.9926 16.9928 18 15.75 18H2.25C1.00745 18 0 16.9928 0 15.75V2.25C0 1.00745 1.00745 0 2.25 0ZM13.5202 6.25386L8.17756 11.5965L5.08623 7.9897L3.80479 9.08767L8.08198 14.0781L14.7127 7.44741L13.5202 6.25386ZM13.5 0V1.125C13.5 1.74639 12.9964 2.25 12.375 2.25H5.625C5.00361 2.25 4.5 1.74639 4.5 1.125V0H13.5Z" />
</svg>
