<?xml version="1.0" standalone="no"?><!DOCTYPE svg PUBLIC "-//W3C//DTD SVG 1.1//EN" "http://www.w3.org/Graphics/SVG/1.1/DTD/svg11.dtd"><svg t="1655867942815" class="icon" viewBox="0 0 1024 1024" version="1.1" xmlns="http://www.w3.org/2000/svg" p-id="9118" xmlns:xlink="http://www.w3.org/1999/xlink" width="200" height="200"><defs><style type="text/css">@font-face { font-family: feedback-iconfont; src: url("") format("woff2"), url("") format("woff"), url("") format("truetype"); }
</style></defs><path d="M924.19 520.691a35.762 35.762 0 0 1 35.812 35.813v367.684A35.812 35.812 0 0 1 924.189 960H440.103a35.812 35.812 0 0 1-35.862-35.812V556.504a35.812 35.812 0 0 1 35.862-35.813z" p-id="9119" ></path><path d="M297.353 520.691c19.712 0.083 35.64 16.1 35.613 35.813v367.684c0.028 19.712-15.9 35.73-35.613 35.812H99.813a35.812 35.812 0 0 1-35.811-35.812V556.504a35.762 35.762 0 0 1 35.812-35.813zM924.19 64a35.812 35.812 0 0 1 35.812 35.812v313.393a35.812 35.812 0 0 1-35.812 35.812H557.103c-19.779 0-35.812-16.033-35.812-35.812V99.812C521.29 80.034 537.324 64 557.103 64z m-510.982 0c19.778 0 35.812 16.034 35.812 35.812v313.393c0 19.779-16.034 35.812-35.812 35.812H99.814c-19.779 0-35.812-16.033-35.812-35.812V99.812C64.002 80.034 80.035 64 99.814 64z" p-id="9120" ></path></svg>
