<?xml version="1.0" standalone="no"?><!DOCTYPE svg PUBLIC "-//W3C//DTD SVG 1.1//EN" "http://www.w3.org/Graphics/SVG/1.1/DTD/svg11.dtd"><svg t="1655868913486" class="icon" viewBox="0 0 1024 1024" version="1.1" xmlns="http://www.w3.org/2000/svg" p-id="29303" xmlns:xlink="http://www.w3.org/1999/xlink" width="200" height="200"><defs><style type="text/css">@font-face { font-family: feedback-iconfont; src: url("") format("woff2"), url("") format("woff"), url("") format("truetype"); }
</style></defs><path d="M585.258667 83.072l159.317333 61.184-30.592 79.658667-39.850667-15.317334-31.829333 82.986667a257.792 257.792 0 0 1 82.986667 78.762667l81.194666-36.138667-17.365333-38.997333 77.952-34.688 69.418667 155.904-77.952 34.688-17.365334-38.954667-81.152 36.138667a256.981333 256.981333 0 0 1 2.986667 114.346666l82.944 31.829334 15.274667-39.808 79.701333 30.592-61.184 159.317333-79.658667-30.592 15.274667-39.808-82.944-31.872a257.792 257.792 0 0 1-78.762667 82.986667l36.138667 81.194666 38.997333-17.365333 34.688 77.952-155.904 69.418667-34.688-77.952 38.954667-17.365334-36.138667-81.152a256.981333 256.981333 0 0 1-114.389333 2.944l-31.829333 82.986667 39.850666 15.274667-30.592 79.701333-159.317333-61.184 30.592-79.658667 39.765333 15.274667 31.914667-82.944A258.346667 258.346667 0 0 1 298.666667 653.653333l-81.194667 36.138667 17.365333 38.997333-77.952 34.688L87.466667 607.573333l77.952-34.688 17.322666 38.997334 81.194667-36.181334a258.986667 258.986667 0 0 1-2.944-114.346666l-82.986667-31.829334-15.232 39.808-79.701333-30.592L144.256 279.466667l79.658667 30.592-15.317334 39.808 82.986667 31.872A258.048 258.048 0 0 1 370.346667 298.666667l-36.138667-81.194667-38.997333 17.365333-34.688-77.952L416.426667 87.509333l34.688 77.952-38.954667 17.365334 36.138667 81.152a256.981333 256.981333 0 0 1 114.346666-2.986667l31.786667-82.986667L554.666667 162.773333l30.592-79.701333z m-152.874667 481.493333a42.666667 42.666667 0 1 0 73.941333 42.666667 42.666667 42.666667 0 0 0-73.941333-42.666667zM597.333333 469.333333a42.666667 42.666667 0 1 0 0 85.333334 42.666667 42.666667 0 0 0 0-85.333334z m-149.333333-68.181333a42.666667 42.666667 0 1 0 42.709333 73.898667A42.666667 42.666667 0 0 0 448 401.152z" p-id="29304" ></path></svg>
