<svg width="14" height="12" viewBox="0 0 14 12" fill="none" xmlns="http://www.w3.org/2000/svg">
<path d="M0.718767 1.4923H13.2812C13.6788 1.4923 14 1.15809 14 0.74615C14 0.334407 13.679 0 13.2812 0H0.718767C0.321923 0 0 0.334213 0 0.74615C0 1.15809 0.321923 1.4923 0.718767 1.4923ZM13.2811 5.22305H0.718767C0.321011 5.22305 0 5.55726 0 5.9692C0 6.38114 0.321011 6.71535 0.718767 6.71535H13.2812C13.6788 6.71535 14 6.38114 14 5.9692C13.9998 5.55726 13.6768 5.22305 13.2811 5.22305ZM13.2811 10.5077H0.718767C0.322105 10.5077 0 10.8419 0 11.2538C0 11.6658 0.321923 12 0.718767 12H13.2812C13.6788 12 14 11.6658 14 11.2538C13.9998 10.8421 13.6788 10.5077 13.2811 10.5077Z" fill="#007AFF"/>
</svg>
