<?xml version="1.0" standalone="no"?><!DOCTYPE svg PUBLIC "-//W3C//DTD SVG 1.1//EN" "http://www.w3.org/Graphics/SVG/1.1/DTD/svg11.dtd"><svg t="1655876396400" class="icon" viewBox="0 0 1024 1024" version="1.1" xmlns="http://www.w3.org/2000/svg" p-id="871" xmlns:xlink="http://www.w3.org/1999/xlink" width="200" height="200"><defs><style type="text/css">@font-face { font-family: feedback-iconfont; src: url("") format("woff2"), url("") format("woff"), url("") format("truetype"); }
</style></defs><path d="M409.6 226.742857h204.8c32.329143 0 58.514286-26.185143 58.514286-58.514286s-26.185143-58.514286-58.514286-58.514285H409.6c-32.329143 0-58.514286 26.185143-58.514286 58.514285s26.185143 58.514286 58.514286 58.514286z" p-id="872" ></path><path d="M775.314286 168.228571h-64.438857c0 52.443429-42.642286 95.085714-95.085715 95.085715h-204.8c-52.443429 0-95.085714-42.642286-95.085714-95.085715H248.685714c-40.374857 0-73.142857 32.768-73.142857 73.142858v599.771428c0 40.374857 32.768 73.142857 73.142857 73.142857h526.628572c40.374857 0 73.142857-32.768 73.142857-73.142857V241.371429c0-40.374857-32.768-73.142857-73.142857-73.142858z m-403.309715 616.886858c-51.273143 0-92.818286-41.545143-92.818285-92.818286s41.545143-92.818286 92.818285-92.818286 92.818286 41.545143 92.818286 92.818286c-0.073143 51.273143-41.618286 92.818286-92.818286 92.818286z m99.620572-382.171429L371.2 503.369143c-4.242286 4.242286-9.801143 6.290286-15.36 6.290286s-11.117714-2.048-15.36-6.290286l-71.606857-71.606857a21.635657 21.635657 0 0 1 0-30.427429 21.635657 21.635657 0 0 1 30.427428 0l56.466286 56.466286 85.357714-85.357714a21.635657 21.635657 0 0 1 30.427429 0 21.518629 21.518629 0 0 1 0.073143 30.500571z m268.214857 358.838857h-182.125714c-11.849143 0-21.504-9.728-21.504-21.504 0-11.849143 9.728-21.504 21.504-21.504h182.125714c11.849143 0 21.504 9.728 21.504 21.504 0 11.776-9.654857 21.504-21.504 21.504z m0-90.624h-182.125714c-11.849143 0-21.504-9.728-21.504-21.504 0-11.849143 9.728-21.504 21.504-21.504h182.125714c11.849143 0 21.504 9.728 21.504 21.504 0 11.776-9.654857 21.504-21.504 21.504z m0-166.546286h-182.125714c-11.849143 0-21.504-9.728-21.504-21.504 0-11.849143 9.728-21.504 21.504-21.504h182.125714c11.849143 0 21.504 9.654857 21.504 21.504 0 11.849143-9.654857 21.504-21.504 21.504z m0-93.330285h-182.125714c-11.849143 0-21.504-9.728-21.504-21.504 0-11.849143 9.728-21.504 21.504-21.504h182.125714c11.849143 0 21.504 9.728 21.504 21.504 0 11.849143-9.654857 21.504-21.504 21.504z" p-id="873" ></path><path d="M372.004571 640.292571c-28.745143 0-52.077714 23.332571-52.077714 52.077715s23.332571 52.077714 52.077714 52.077714 52.077714-23.332571 52.077715-52.077714c-0.073143-28.745143-23.259429-52.077714-52.077715-52.077715z" p-id="874" ></path></svg>
