<?xml version="1.0" standalone="no"?><!DOCTYPE svg PUBLIC "-//W3C//DTD SVG 1.1//EN" "http://www.w3.org/Graphics/SVG/1.1/DTD/svg11.dtd"><svg t="1655868210173" class="icon" viewBox="0 0 1024 1024" version="1.1" xmlns="http://www.w3.org/2000/svg" p-id="2917" xmlns:xlink="http://www.w3.org/1999/xlink" width="200" height="200"><defs><style type="text/css">@font-face { font-family: feedback-iconfont; src: url("") format("woff2"), url("") format("woff"), url("") format("truetype"); }
</style></defs><path d="M85.333333 554.666667h298.666667v85.546666l0.298667 4.650667c2.346667 18.304 18.346667 33.109333 39.082666 36.864l5.290667 0.725333 5.12 0.213334h156.416l5.461333-0.256c21.461333-2.005333 38.826667-15.616 43.264-33.365334l0.810667-4.522666 0.256-4.309334V554.666667h298.666667v256a128 128 0 0 1-128 128H213.333333a128 128 0 0 1-128-128v-256z m483.541334 0v61.738666l-113.749334-0.213333V554.666667h113.749334zM597.333333 149.333333a128 128 0 0 1 128 128h85.333334a128 128 0 0 1 128 128v85.333334H85.333333v-85.333334a128 128 0 0 1 128-128h85.333334a128 128 0 0 1 120.490666-127.786666L426.666667 149.333333h170.666666zM597.333333 213.333333h-170.666666a42.666667 42.666667 0 0 0-42.368 37.674667L384 256h256a42.666667 42.666667 0 0 0-37.674667-42.368L597.333333 213.333333z" p-id="2918" ></path></svg>
