<?xml version="1.0" standalone="no"?><!DOCTYPE svg PUBLIC "-//W3C//DTD SVG 1.1//EN" "http://www.w3.org/Graphics/SVG/1.1/DTD/svg11.dtd"><svg t="1655869388743" class="icon" viewBox="0 0 1024 1024" version="1.1" xmlns="http://www.w3.org/2000/svg" p-id="1793" xmlns:xlink="http://www.w3.org/1999/xlink" width="200" height="200"><defs><style type="text/css">@font-face { font-family: feedback-iconfont; src: url("") format("woff2"), url("") format("woff"), url("") format("truetype"); }
</style></defs><path d="M942.848 203.136a233.152 233.152 0 0 1-49.088 250.304c-72.512 74.88-183.424 85.632-268.8 36.416L563.2 558.336l44.8 44.928 25.6-27.84c12.8-12.8 36.288-12.8 49.088 0l213.312 220.352c12.8 12.8 12.8 36.416 0 49.28l-98.112 100.48c-12.8 12.8-36.288 12.8-49.088 0l-213.312-220.352c-12.8-12.8-12.8-36.352 0-49.216l23.488-25.664-42.688-42.816L224 939.136c-27.776 27.84-70.4 27.84-98.112 0L102.4 913.472a71.104 71.104 0 0 1 0-100.544l337.024-288.832-224-226.816h-70.4L64 162.56 130.112 94.016l134.4 83.456v70.592l226.112 235.392 66.112-55.68c-64-89.856-57.6-216.064 21.376-297.344a221.12 221.12 0 0 1 243.2-49.28L676.16 226.752l121.6 124.096 145.024-147.648zM183.488 840.704c-12.8-12.8-32-12.8-44.8 0-12.8 12.8-12.8 32.128 0 44.928 12.8 12.8 32 12.8 44.8 0 10.624-10.688 10.624-32.064 0-44.928z" p-id="1794" ></path></svg>
