<?xml version="1.0" standalone="no"?><!DOCTYPE svg PUBLIC "-//W3C//DTD SVG 1.1//EN" "http://www.w3.org/Graphics/SVG/1.1/DTD/svg11.dtd"><svg t="1655869380749" class="icon" viewBox="0 0 1024 1024" version="1.1" xmlns="http://www.w3.org/2000/svg" p-id="1525" xmlns:xlink="http://www.w3.org/1999/xlink" width="200" height="200"><defs><style type="text/css">@font-face { font-family: feedback-iconfont; src: url("") format("woff2"), url("") format("woff"), url("") format("truetype"); }
</style></defs><path d="M952.789262 683.431785s-70.390057 88.115554-139.18034 156.905837c-65.91069 65.91069-130.221606 112.560101-130.221607 112.560101a242.525743 242.525743 0 0 1-342.927561 0s-64.374907-46.713402-130.221606-112.560101c-68.918265-68.790283-139.180341-156.905837-139.180341-156.905837a242.525743 242.525743 0 0 1 0-342.86357s50.61685-68.406338 118.51126-136.300748C256.503613 137.460904 340.587736 71.038286 340.587736 71.038286a242.525743 242.525743 0 0 1 342.927561 0s82.100403 64.438898 147.947103 130.285597A1456.754233 1456.754233 0 0 1 952.981235 340.440233a242.525743 242.525743 0 0 1-0.127982 342.991552zM836.517686 461.063195a33.2753 33.2753 0 0 0-34.107183-34.107183H597.511445v-204.771076a33.211309 33.211309 0 0 0-34.107182-34.107182h-102.385538a33.211309 33.211309 0 0 0-34.171173 34.107182v204.771076H221.820512a33.211309 33.211309 0 0 0-34.107183 34.107183v102.385538c0 19.581234 14.525948 34.171173 34.107183 34.171173h204.899058v204.771076a33.2753 33.2753 0 0 0 34.107182 34.107183h102.385538c19.645225 0 34.171173-31.611535 34.171174-51.192769V597.619906h204.899058a33.2753 33.2753 0 0 0 34.107182-34.171173l0.127982-102.385538z" p-id="1526" ></path></svg>
