<?xml version="1.0" standalone="no"?><!DOCTYPE svg PUBLIC "-//W3C//DTD SVG 1.1//EN" "http://www.w3.org/Graphics/SVG/1.1/DTD/svg11.dtd"><svg t="1655876424725" class="icon" viewBox="0 0 1024 1024" version="1.1" xmlns="http://www.w3.org/2000/svg" p-id="1374" xmlns:xlink="http://www.w3.org/1999/xlink" width="200" height="200"><defs><style type="text/css">@font-face { font-family: feedback-iconfont; src: url("") format("woff2"), url("") format("woff"), url("") format("truetype"); }
</style></defs><path d="M783.286857 555.812571H667.136a224.277943 224.277943 0 0 1 35.693714 120.685715v40.228571H380.928v-40.228571h281.673143c0-99.986286-81.042286-181.101714-181.101714-181.101715H394.166857c-38.765714-30.72-85.065143-50.468571-133.997714-57.490285v374.418285C336.603429 853.942857 430.811429 877.714286 541.842286 877.714286c173.860571 0 327.972571-81.627429 423.204571-207.213715a201.1136 201.1136 0 0 0-181.76-114.688zM179.712 394.825143h-80.457143c-22.235429 0-40.228571 17.993143-40.228571 40.228571V797.257143c0 22.235429 17.993143 40.228571 40.228571 40.228571h80.457143c22.235429 0 40.228571-17.993143 40.228571-40.228571V435.053714l-0.292571-4.754285a40.301714 40.301714 0 0 0-39.936-35.474286zM582.070857 475.282286l156.525714-156.452572c39.277714-39.277714 39.277714-102.985143 0-142.262857-39.277714-39.277714-102.985143-39.277714-142.262857 0l-14.189714 14.189714-14.189714-14.262857v0.073143a100.615314 100.615314 0 1 0-169.179429 44.617143c-9.289143 34.962286 0.950857 72.265143 26.843429 97.572571l156.452571 156.525715z" p-id="1375" ></path></svg>
