<?xml version="1.0" standalone="no"?><!DOCTYPE svg PUBLIC "-//W3C//DTD SVG 1.1//EN" "http://www.w3.org/Graphics/SVG/1.1/DTD/svg11.dtd"><svg t="1655869173952" class="icon" viewBox="0 0 1024 1024" version="1.1" xmlns="http://www.w3.org/2000/svg" p-id="972" xmlns:xlink="http://www.w3.org/1999/xlink" width="200" height="200"><defs><style type="text/css">@font-face { font-family: feedback-iconfont; src: url("") format("woff2"), url("") format("woff"), url("") format("truetype"); }
</style></defs><path d="M681.984 687.050105l0.107789-91.836631s-120.508632 152.468211-120.508631 214.393263c0 61.817263 120.508632 214.393263 120.508631 214.393263l-0.107789-91.621053h120.239158a82.997895 82.997895 0 0 0 72.811789-42.684631L1024 624.747789a120.939789 120.939789 0 0 1-106.010947 62.302316h-236.058948z m68.176842-612.998737a95.393684 95.393684 0 0 0-82.458947-49.04421c-34.007579 0-65.536 19.132632-82.189474 49.529263 0 0-27.701895 48.990316-55.565474 98.789053l56.158316 99.866947-78.147368 44.948211s188.847158 30.935579 241.178947-0.10779c52.170105-30.935579 120.616421-214.393263 120.616421-214.393263l-77.338947 46.026105s-30.181053-54.164211-42.253474-75.614316z" p-id="973" ></path><path d="M1004.166737 612.405895a99.489684 99.489684 0 0 0-0.485053-97.926737l-107.142737-190.517895-206.955789 122.664421 120.670316 214.393263h111.023158a94.315789 94.315789 0 0 0 82.890105-48.613052z m-719.818105-49.906527l77.392842 46.026106S293.402947 425.013895 241.125053 394.132211c-52.170105-30.881684-241.125053 0-241.125053 0l77.554526 45.702736-60.200421 107.034948a87.309474 87.309474 0 0 0-0.485052 86.016l148.965052 264.946526c-21.719579-38.804211-21.557895-86.878316 0.485053-125.413053l118.029474-209.92z" p-id="974" ></path><path d="M186.260211 886.298947c16.976842 30.342737 48.720842 48.990316 82.728421 48.720842H483.435789v-245.274947H242.095158c-27.863579 49.690947-55.511579 98.789053-55.619369 98.896842a99.328 99.328 0 0 0-0.215578 97.657263z m-13.581474-619.789473L380.281263 389.658947s155.917474-277.557895 184.266105-327.68C586.374737 23.228632 624.855579 0 668.402526 0H370.472421c-31.043368 0-57.236211 17.946947-72.326737 43.277474-26.354526 43.870316-125.466947 223.232-125.466947 223.232z" p-id="975" ></path></svg>
