<?xml version="1.0" standalone="no"?><!DOCTYPE svg PUBLIC "-//W3C//DTD SVG 1.1//EN" "http://www.w3.org/Graphics/SVG/1.1/DTD/svg11.dtd"><svg t="1655868322620" class="icon" viewBox="0 0 1024 1024" version="1.1" xmlns="http://www.w3.org/2000/svg" p-id="2236" xmlns:xlink="http://www.w3.org/1999/xlink" width="200" height="200"><defs><style type="text/css">@font-face { font-family: feedback-iconfont; src: url("") format("woff2"), url("") format("woff"), url("") format("truetype"); }
</style></defs><path d="M989.696 304.64c-13.312-11.776-29.696-17.92-45.568-17.92-4.608 0-9.728 0.512-14.336 1.536L778.24 322.048V286.72c0-56.832-45.568-102.4-102.4-102.4H102.4C46.08 184.32 0 229.888 0 286.72v450.56c0 56.32 46.08 102.4 102.4 102.4h573.44c56.832 0 102.4-46.08 102.4-102.4v-35.328l151.04 33.792c4.608 1.024 9.728 1.536 14.336 1.536 16.384 0 32.256-6.144 45.568-17.92 21.504-18.944 34.816-50.688 34.816-84.48V389.12c0-34.304-12.8-66.048-34.304-84.48zM225.28 452.096c-33.792 0-61.44-27.648-61.44-61.44s27.648-61.44 61.44-61.44 61.44 27.648 61.44 61.44-27.648 61.44-61.44 61.44z" p-id="2237" ></path></svg>
