<?xml version="1.0" standalone="no"?><!DOCTYPE svg PUBLIC "-//W3C//DTD SVG 1.1//EN" "http://www.w3.org/Graphics/SVG/1.1/DTD/svg11.dtd"><svg t="1655868133678" class="icon" viewBox="0 0 1024 1024" version="1.1" xmlns="http://www.w3.org/2000/svg" p-id="1227" xmlns:xlink="http://www.w3.org/1999/xlink" width="200" height="200"><defs><style type="text/css">@font-face { font-family: feedback-iconfont; src: url("") format("woff2"), url("") format("woff"), url("") format("truetype"); }
</style></defs><path d="M487.04 68.693333c12.586667-5.333333 26.581333-6.101333 39.552-2.389333l6.4 2.261333L859.648 204.8c20.906667 8.746667 34.858667 28.501333 36.266667 50.773333l0.042666 5.632-8.832 271.317334a363.477333 363.477333 0 0 1-60.970666 189.824l-8.32 11.946666-7.338667 10.112a454.741333 454.741333 0 0 1-123.562667 116.266667l-14.634666 8.96-140.288 82.218667a59.392 59.392 0 0 1-55.168 2.56l-5.717334-3.072-135.936-82.730667a455.125333 455.125333 0 0 1-121.770666-108.202667l-9.856-13.098666-9.472-13.013334a345.984 345.984 0 0 1-65.792-188.672L128 531.114667V259.328c0-21.76 11.989333-41.557333 30.848-51.797333l5.290667-2.56 322.901333-136.32zM512 277.333333a149.333333 149.333333 0 0 0-50.261333 290.005334l7.594666 2.474666V704l0.298667 4.992a42.666667 42.666667 0 0 0 84.736 0L554.666667 704v-134.186667A149.418667 149.418667 0 0 0 512 277.333333z" p-id="1228" ></path></svg>
