<?xml version="1.0" standalone="no"?><!DOCTYPE svg PUBLIC "-//W3C//DTD SVG 1.1//EN" "http://www.w3.org/Graphics/SVG/1.1/DTD/svg11.dtd"><svg t="1655868105189" class="icon" viewBox="0 0 1024 1024" version="1.1" xmlns="http://www.w3.org/2000/svg" p-id="974" xmlns:xlink="http://www.w3.org/1999/xlink" width="200" height="200"><defs><style type="text/css">@font-face { font-family: feedback-iconfont; src: url("") format("woff2"), url("") format("woff"), url("") format("truetype"); }
</style></defs><path d="M832 192m53.333333 0l0 0q53.333333 0 53.333334 53.333333l0 533.333334q0 53.333333-53.333334 53.333333l0 0q-53.333333 0-53.333333-53.333333l0-533.333334q0-53.333333 53.333333-53.333333Z" p-id="975" ></path><path d="M745.834667 171.616a96 96 0 0 1 0.832 12.586667V839.786667a96 96 0 0 1-108.586667 95.178666l-469.333333-62.08A96 96 0 0 1 85.333333 777.728V246.272a96 96 0 0 1 83.413334-95.168l469.333333-62.08a96 96 0 0 1 107.754667 82.592zM565.333333 405.333333a53.333333 53.333333 0 0 0-53.333333 53.333334v106.666666a53.333333 53.333333 0 0 0 106.666667 0V458.666667a53.333333 53.333333 0 0 0-53.333334-53.333334z" p-id="976" ></path></svg>
