<?xml version="1.0" standalone="no"?><!DOCTYPE svg PUBLIC "-//W3C//DTD SVG 1.1//EN" "http://www.w3.org/Graphics/SVG/1.1/DTD/svg11.dtd"><svg t="1655868123756" class="icon" viewBox="0 0 1024 1024" version="1.1" xmlns="http://www.w3.org/2000/svg" p-id="2001" xmlns:xlink="http://www.w3.org/1999/xlink" width="200" height="200"><defs><style type="text/css">@font-face { font-family: feedback-iconfont; src: url("") format("woff2"), url("") format("woff"), url("") format("truetype"); }
</style></defs><path d="M192 821.333333m53.333333 0l533.333334 0q53.333333 0 53.333333 53.333334l0 0q0 53.333333-53.333333 53.333333l-533.333334 0q-53.333333 0-53.333333-53.333333l0 0q0-53.333333 53.333333-53.333334Z" p-id="2002" ></path><path d="M853.333333 74.666667a85.333333 85.333333 0 0 1 85.333334 85.333333v490.666667a85.333333 85.333333 0 0 1-85.333334 85.333333H170.666667a85.333333 85.333333 0 0 1-85.333334-85.333333V160a85.333333 85.333333 0 0 1 85.333334-85.333333h682.666666z m-30.048 178.026666a53.333333 53.333333 0 0 0-75.285333-4.672L570.698667 404.533333l-87.232-108.224-1.653334-1.952a53.333333 53.333333 0 0 0-76.042666-3.776L219.893333 462.144l-1.856 1.792a53.333333 53.333333 0 0 0-1.162666 73.568l1.802666 1.856a53.333333 53.333333 0 0 0 73.557334 1.173333l143.968-132.896 86.453333 107.274667 1.632 1.92a53.333333 53.333333 0 0 0 75.2 4.586667l219.104-193.44 1.898667-1.749334a53.333333 53.333333 0 0 0 2.794666-73.525333z" p-id="2003" ></path></svg>
