<?xml version="1.0" standalone="no"?><!DOCTYPE svg PUBLIC "-//W3C//DTD SVG 1.1//EN" "http://www.w3.org/Graphics/SVG/1.1/DTD/svg11.dtd"><svg t="1655876989148" class="icon" viewBox="0 0 1024 1024" version="1.1" xmlns="http://www.w3.org/2000/svg" p-id="47756" xmlns:xlink="http://www.w3.org/1999/xlink" width="200" height="200"><defs><style type="text/css">@font-face { font-family: feedback-iconfont; src: url("") format("woff2"), url("") format("woff"), url("") format("truetype"); }
</style></defs><path d="M964.47 522.68c-24.76 0-65-3-115.83-17.29C775.94 484.9 736 448 736 448s-39.94 36.9-112.64 57.38c-50.8 14.31-91.07 17.29-115.83 17.29-17.75 0-27.53-1.53-27.53-1.53s0.68 66.49 20.48 183.89c21.14 125.39 87 197.61 138.24 225.25C693.33 959.77 734.69 960 736 960c1.27 0 42.64-0.23 97.25-29.72 51.2-27.64 117.1-99.86 138.24-225.25C991.32 587.63 992 521.14 992 521.14s-9.79 1.54-27.53 1.54zM940 699.71c-0.24 1.44-0.52 2.86-0.77 4.29H736v224c-2.1-0.06-36.7-1.37-82.08-25.87-14.22-7.68-42.13-26.45-69.21-65.92-25.38-37-42.81-81.46-51.91-132.21H736V488.23c20.79 14.24 56.05 34.46 104 47.95 50.23 14.15 91.14 17.95 118.24 18.44C956 584.76 951 634.23 940 699.71z" p-id="47757" ></path><path d="M512 490.64c23-0.36 58.42-3.59 102.68-16.06 43.85-12.35 74.45-31.36 89.32-42.06V384H512zM736 224v180.43l0.22-0.21 21.44 20.22c1.68 1.49 37.34 32.59 99.66 50.14a437.76 437.76 0 0 0 70.69 14V224zM531.94 872.42A354.17 354.17 0 0 1 512 839.64V960h114.44l-2.92-1.56c-33.34-18-65.86-48.55-91.58-86.02z m316.54 86l-2.92 1.58H928v-71.15c-23.47 29.95-51.2 54.3-79.52 69.59zM64 960h192V224H64z m224 0h192V759.79a465.83 465.83 0 0 1-11.07-49.43C448.94 591.84 448 524.29 448 521.47l-0.39-38.21L480 488.7V64H288z" p-id="47758" ></path><path d="M964.47 522.68c-24.76 0-65-3-115.83-17.29C775.94 484.9 736 448 736 448s-39.94 36.9-112.64 57.38c-50.8 14.31-91.07 17.29-115.83 17.29-17.75 0-27.53-1.53-27.53-1.53s0.68 66.49 20.48 183.89c21.14 125.39 87 197.61 138.24 225.25C693.33 959.77 734.69 960 736 960c1.27 0 42.64-0.23 97.25-29.72 51.2-27.64 117.1-99.86 138.24-225.25C991.32 587.63 992 521.14 992 521.14s-9.79 1.54-27.53 1.54zM940 699.71c-0.24 1.44-0.52 2.86-0.77 4.29H736v224c-2.1-0.06-36.7-1.37-82.08-25.87-14.22-7.68-42.13-26.45-69.21-65.92-25.38-37-42.81-81.46-51.91-132.21H736V488.23c20.79 14.24 56.05 34.46 104 47.95 50.23 14.15 91.14 17.95 118.24 18.44C956 584.76 951 634.23 940 699.71z" p-id="47759" ></path></svg>
