<?xml version="1.0" standalone="no"?><!DOCTYPE svg PUBLIC "-//W3C//DTD SVG 1.1//EN" "http://www.w3.org/Graphics/SVG/1.1/DTD/svg11.dtd"><svg t="1655868239293" class="icon" viewBox="0 0 1024 1024" version="1.1" xmlns="http://www.w3.org/2000/svg" p-id="851" xmlns:xlink="http://www.w3.org/1999/xlink" width="200" height="200"><defs><style type="text/css">@font-face { font-family: feedback-iconfont; src: url("") format("woff2"), url("") format("woff"), url("") format("truetype"); }
</style></defs><path d="M571.2896 321.8432a26.9824 26.9824 0 0 0 19.3024-8.0384l49.92-50.1248a81.2544 81.2544 0 0 1 57.9072-24.1152H839.68c0-14.0288-5.3248-28.0576-15.9744-38.8096a54.272 54.272 0 0 0-38.6048-16.0768H425.3696a53.9648 53.9648 0 0 1-38.6048-16.0768l-49.92-50.1248A53.9648 53.9648 0 0 0 298.24 102.4H157.0304A54.528 54.528 0 0 0 102.4 157.2352v658.2784A54.784 54.784 0 0 0 157.0304 870.4V404.1216a81.92 81.92 0 0 1 24.0128-58.1632 81.1008 81.1008 0 0 1 57.9072-24.1152h332.3392z m334.2848-11.3664a54.272 54.272 0 0 0-38.6048-16.0768h-141.2096a53.9648 53.9648 0 0 0-38.6048 16.0768l-49.92 50.1248a53.3504 53.3504 0 0 1-17.7152 11.8784 53.76 53.76 0 0 1-20.8896 4.1984H266.24a54.6304 54.6304 0 0 0-54.6304 54.8352V870.4h655.36A54.6304 54.6304 0 0 0 921.6 815.5648V349.2352c0-14.0288-5.3248-28.0576-16.0256-38.7584z"  p-id="852"></path></svg>
