<?xml version="1.0" standalone="no"?><!DOCTYPE svg PUBLIC "-//W3C//DTD SVG 1.1//EN" "http://www.w3.org/Graphics/SVG/1.1/DTD/svg11.dtd"><svg t="1655868294397" class="icon" viewBox="0 0 1024 1024" version="1.1" xmlns="http://www.w3.org/2000/svg" p-id="1687" xmlns:xlink="http://www.w3.org/1999/xlink" width="200" height="200"><defs><style type="text/css">@font-face { font-family: feedback-iconfont; src: url("") format("woff2"), url("") format("woff"), url("") format("truetype"); }
</style></defs><path d="M512.512 389.12c-90.624 0-163.84 73.728-163.84 163.84s73.728 163.84 163.84 163.84c90.624 0 163.84-73.728 163.84-163.84 0-90.624-73.216-163.84-163.84-163.84z" p-id="1688" ></path><path d="M1024 247.296l-1.536-6.144c-8.192-30.72-32.768-50.688-61.952-50.688h-186.88l-46.08-93.184-4.096-7.168c-14.336-19.456-33.28-28.672-53.248-28.672H355.328l-8.192 0.512-7.68 1.536c-19.456 5.632-33.792 17.408-41.472 33.28l-46.592 93.184H64.512l-7.68 0.512C23.04 196.608 0.512 223.232 0.512 254.464v635.392c0 5.12 0 10.24 0.512 15.36 6.144 34.304 32.256 56.832 63.488 56.832h888.32c5.12 0 10.24 0 15.36-0.512 34.304-6.144 56.32-32.768 56.32-64V254.976l-0.512-7.68zM512.512 798.72c-135.68 0-245.76-110.08-245.76-245.76s110.08-245.76 245.76-245.76 245.76 110.08 245.76 245.76-110.08 245.76-245.76 245.76z m326.656-389.12c-22.528 0-40.96-18.432-40.96-40.96s18.432-40.96 40.96-40.96 40.96 18.432 40.96 40.96-18.432 40.96-40.96 40.96z" p-id="1689" ></path></svg>
