<?xml version="1.0" standalone="no"?><!DOCTYPE svg PUBLIC "-//W3C//DTD SVG 1.1//EN" "http://www.w3.org/Graphics/SVG/1.1/DTD/svg11.dtd"><svg t="1655868171415" class="icon" viewBox="0 0 1024 1024" version="1.1" xmlns="http://www.w3.org/2000/svg" p-id="2179" xmlns:xlink="http://www.w3.org/1999/xlink" width="200" height="200"><defs><style type="text/css">@font-face { font-family: feedback-iconfont; src: url("") format("woff2"), url("") format("woff"), url("") format("truetype"); }
</style></defs><path d="M554.666667 597.290667L853.333333 597.333333v213.333334a128 128 0 0 1-120.490666 127.786666L725.333333 938.666667h-170.666666v-341.376zM469.333333 597.333333v341.333334H298.666667a128 128 0 0 1-127.786667-120.490667L170.666667 810.666667v-213.333334h298.666666z m305.066667-480.085333c52.394667 46.208 46.250667 105.770667 9.472 159.573333h26.752a127.957333 127.957333 0 0 1 127.829333 120.32l0.213334 7.552-0.213334 7.594667a128 128 0 0 1-120.277333 120.277333l-7.509333 0.213334H213.034667a127.701333 127.701333 0 0 1-7.509334-255.274667l7.509334-0.213333h27.648c-37.461333-54.4-43.904-113.706667 8.917333-160.128 36.821333-32.512 92.16-39.893333 148.608-22.869334 46.805333 15.573333 86.229333 43.264 113.92 78.592 27.733333-35.328 67.370667-63.104 114.645333-78.933333 55.296-16.64 109.994667-9.301333 147.626667 23.296zM305.92 181.248c-16.042667 14.08-1.194667 49.578667 39.381333 85.461333a42.666667 42.666667 0 0 1 8.618667 10.453334l114.56-0.085334-0.128-0.853333c-8.362667-44.586667-44.629333-83.498667-96-100.565333-29.098667-8.789333-53.930667-5.461333-66.432 5.546666z m346.666667-5.973333c-52.48 17.578667-88.832 56.832-97.109334 101.76l114.517334-0.128a42.624 42.624 0 0 1 8.832-10.538667c40.277333-34.773333 55.296-70.826667 39.338666-84.906667-13.098667-11.349333-37.546667-14.634667-65.578666-6.186666z" p-id="2180" ></path></svg>
