<?xml version="1.0" standalone="no"?><!DOCTYPE svg PUBLIC "-//W3C//DTD SVG 1.1//EN" "http://www.w3.org/Graphics/SVG/1.1/DTD/svg11.dtd"><svg t="1655876996652" class="icon" viewBox="0 0 1024 1024" version="1.1" xmlns="http://www.w3.org/2000/svg" p-id="48009" xmlns:xlink="http://www.w3.org/1999/xlink" width="200" height="200"><defs><style type="text/css">@font-face { font-family: feedback-iconfont; src: url("") format("woff2"), url("") format("woff"), url("") format("truetype"); }
</style></defs><path d="M902.4 121.6c-51.2-51.2-121.6-76.8-192-76.8s-140.8 25.6-192 76.8L121.6 512c-108.8 108.8-108.8 281.6 0 384 51.2 51.2 121.6 76.8 192 76.8s140.8-25.6 192-76.8l396.8-384c51.2-51.2 76.8-121.6 76.8-192 0-76.8-25.6-147.2-76.8-198.4zM480 870.4c-44.8 44.8-102.4 70.4-166.4 70.4s-121.6-25.6-166.4-70.4C57.6 780.8 57.6 633.6 147.2 537.6l179.2-179.2 332.8 332.8-179.2 179.2z m364.8-665.6c-6.4 6.4-19.2 6.4-25.6 0-32-32-70.4-44.8-108.8-44.8-44.8 0-83.2 19.2-108.8 44.8l-121.6 128c-12.8 0-19.2 6.4-19.2 6.4-6.4 0-12.8 0-12.8-6.4-6.4-6.4-6.4-19.2 0-25.6l128-128c38.4-38.4 83.2-57.6 140.8-57.6 51.2 0 102.4 19.2 140.8 57.6-6.4 6.4-6.4 19.2-12.8 25.6z"  p-id="48010"></path></svg>
