<?xml version="1.0" standalone="no"?><!DOCTYPE svg PUBLIC "-//W3C//DTD SVG 1.1//EN" "http://www.w3.org/Graphics/SVG/1.1/DTD/svg11.dtd"><svg t="1655868065695" class="icon" viewBox="0 0 1024 1024" version="1.1" xmlns="http://www.w3.org/2000/svg" p-id="1443" xmlns:xlink="http://www.w3.org/1999/xlink" width="200" height="200"><defs><style type="text/css">@font-face { font-family: feedback-iconfont; src: url("") format("woff2"), url("") format("woff"), url("") format("truetype"); }
</style></defs><path d="M231.9 614.3c-13.8-32.7-21.7-67.3-23.5-102.9-5.4 0.4-10.9 0.6-16.4 0.6-27.6 0-54.5-5-80-14.7 0.4 137.4 70.1 258.5 176 330.2 0.6-28.6 6.5-56.4 17.6-82.7 2.6-6.1 5.4-12.1 8.6-18-5.9-5-11.6-10.3-17.1-15.9-28-27.9-49.9-60.4-65.2-96.6zM402.8 212.2C437.6 198.8 474.2 192 512 192s74.4 6.8 109.2 20.2c1.4-3.8 2.9-7.6 4.4-11.4 11.2-26.6 27.3-50.4 47.7-70.9C624 108.1 569.4 96 512 96s-112 12.1-161.3 33.9c20.4 20.5 36.5 44.4 47.7 70.9 1.6 3.7 3 7.6 4.4 11.4zM815.6 511.4c-1.8 35.6-9.6 70.2-23.5 102.9-15.3 36.2-37.2 68.7-65.1 96.7-5.5 5.5-11.3 10.8-17.1 15.9 3.1 5.8 6 11.8 8.6 18 11.1 26.3 17 54.1 17.6 82.7 105.9-71.7 175.6-192.8 176-330.2-25.5 9.8-52.4 14.7-80 14.7-5.6-0.1-11-0.3-16.5-0.7zM192 448c6.8 0 13.4-0.4 19.9-1.2C290.9 437 352 369.6 352 288c0-16.1-2.4-31.6-6.8-46.3-9.6-31.7-28.7-59.3-54-79.3-27.3-21.5-61.7-34.4-99.2-34.4-88.4 0-160 71.6-160 160 0 61.5 34.6 114.8 85.5 141.6 22.3 11.8 47.6 18.4 74.5 18.4zM832 128c-37.5 0-71.9 12.9-99.2 34.4-25.4 20-44.5 47.6-54 79.3-4.4 14.6-6.8 30.2-6.8 46.3 0 81.6 61.1 149 140.1 158.8 6.5 0.8 13.2 1.2 19.9 1.2 26.9 0 52.3-6.6 74.5-18.4C957.4 402.8 992 349.5 992 288c0-88.4-71.6-160-160-160zM512 672c-63.9 0-119 37.4-144.6 91.5-9.9 20.8-15.4 44-15.4 68.5 0 11 1.1 21.7 3.2 32.1C370.1 937.1 434.6 992 512 992s141.9-54.9 156.8-127.9c2.1-10.4 3.2-21.1 3.2-32.1 0-24.5-5.5-47.7-15.4-68.5C631 709.4 575.9 672 512 672z" p-id="1444" ></path></svg>
