<?xml version="1.0" standalone="no"?><!DOCTYPE svg PUBLIC "-//W3C//DTD SVG 1.1//EN" "http://www.w3.org/Graphics/SVG/1.1/DTD/svg11.dtd"><svg t="1655868148832" class="icon" viewBox="0 0 1024 1024" version="1.1" xmlns="http://www.w3.org/2000/svg" p-id="1757" xmlns:xlink="http://www.w3.org/1999/xlink" width="200" height="200"><defs><style type="text/css">@font-face { font-family: feedback-iconfont; src: url("") format("woff2"), url("") format("woff"), url("") format("truetype"); }
</style></defs><path d="M212.821333 853.546667c-40.618667 0-76.8-18.901333-100.138666-48.597334l272.768-292.096 21.845333 21.333334 6.528 5.930666a154.112 154.112 0 0 0 88.661333 36.266667l9.514667 0.426667a154.453333 154.453333 0 0 0 90.325333-30.464l7.850667-6.229334 6.528-5.930666 21.845333-21.333334 272.768 292.096a126.890667 126.890667 0 0 1-91.477333 48.298667l-8.618667 0.298667H212.821333zM102.613333 236.586667l237.098667 231.594666-0.682667 0.64-252.928 270.848a131.925333 131.925333 0 0 1-0.768-14.506666l0.896-425.898667c0.042667-19.498667 4.437333-38.016 12.202667-54.613333l4.181333-8.106667z m818.773334 0l4.181333 8.106666c6.485333 13.781333 10.666667 28.928 11.861333 44.928l0.341334 9.642667 0.896 425.856-0.170667 7.338667-0.597333 7.253333-252.885334-270.890667-0.725333-0.64 237.098667-231.637333zM457.386667 493.056l-5.632-4.949333L146.773333 190.208a127.36 127.36 0 0 1 67.669334-19.328h595.029333c21.76 0 42.24 5.418667 60.16 14.976l7.552 4.352-304.938667 297.941333-5.674666 4.949334a89.984 89.984 0 0 1-47.36 19.285333l-7.253334 0.426667a90.282667 90.282667 0 0 1-54.613333-19.712z" p-id="1758" ></path></svg>
